<svg version="1.1" id="Layer_1" xmlns="http://www.w3.org/2000/svg" xmlns:xlink="http://www.w3.org/1999/xlink" x="0px" y="0px"
	 width="100%" viewBox="0 0 1024 1024" enable-background="new 0 0 1024 1024" xml:space="preserve">
<path fill="#FFFFFF" opacity="1.000000" stroke="none" 
	d="
M1.000000,361.000000 
	C1.000000,240.666687 1.000000,120.833359 1.000000,1.000032 
	C342.333282,1.000021 683.666565,1.000021 1025.000000,1.000011 
	C1025.000000,342.333252 1025.000000,683.666504 1025.000000,1024.999756 
	C683.666809,1024.999878 342.333618,1024.999878 1.000205,1025.000000 
	C1.000000,803.833313 1.000000,582.666687 1.000000,361.000000 
M651.098145,731.144043 
	C650.846924,729.453186 650.595764,727.762390 650.648438,725.179260 
	C650.345886,716.796265 650.043396,708.413330 649.922241,699.152283 
	C649.276428,692.768677 648.630615,686.385132 648.075317,679.120605 
	C646.363892,667.648132 645.019409,656.106201 642.862183,644.718201 
	C638.777222,623.153992 632.720093,602.136169 624.317139,581.484375 
	C636.849915,570.663574 649.382690,559.842773 662.546570,548.765198 
	C667.093445,543.711792 671.894226,538.860962 676.125793,533.556091 
	C682.002991,526.188171 687.453186,518.479675 693.649475,511.269348 
	C699.981506,516.604248 705.878357,522.595825 712.734558,527.139832 
	C727.878784,537.176758 743.505981,546.484863 759.126587,556.876099 
	C760.036987,560.889771 760.670105,564.991577 761.911316,568.900208 
	C765.254395,579.427063 773.190735,586.111267 782.018738,592.734314 
	C788.194336,601.209412 794.464417,609.617737 800.515869,618.180542 
	C805.444580,625.154663 811.891113,629.158813 820.485046,627.779114 
	C829.161255,626.386108 834.705322,620.971802 836.984680,612.376282 
	C837.099731,611.942322 837.465759,611.574890 837.940857,610.815247 
	C841.324097,612.667664 844.620483,614.541931 847.979187,616.296875 
	C854.673767,619.794800 861.511475,619.972473 867.995117,616.084656 
	C874.700684,612.063965 877.588257,605.874268 877.233643,597.969055 
	C876.934753,591.307861 873.226807,586.708191 868.496216,582.489319 
	C877.059998,579.213196 880.936951,575.908508 883.148254,570.170715 
	C887.497131,558.886780 881.764709,547.509644 869.762268,543.848328 
	C861.243896,541.249756 852.670471,538.831909 844.121582,536.333374 
	C850.139282,532.845093 856.219360,530.674255 862.038147,527.945862 
	C868.505920,524.913147 872.470459,519.687256 872.963928,512.399536 
	C873.991577,497.220306 860.532166,487.383026 845.861694,492.703400 
	C833.193787,497.297485 820.635925,502.198425 808.071838,507.073059 
	C803.326538,508.914185 798.700317,511.062042 793.273865,513.103638 
	C788.180176,515.081360 783.086487,517.059082 777.712158,518.405273 
	C753.741089,505.525696 731.433167,490.354340 712.235657,470.200165 
	C712.662354,468.938751 713.089050,467.677338 714.003113,465.813812 
	C716.811646,458.037231 714.961121,454.388702 705.999512,449.143036 
	C706.194641,447.021179 706.290161,444.884613 706.601013,442.779846 
	C708.707703,428.514343 710.859924,414.255585 712.999512,399.139587 
	C712.998230,397.429047 712.997009,395.718475 712.999023,393.335999 
	C712.996887,392.888062 712.994751,392.440125 712.994690,391.056458 
	C712.649780,377.699768 712.304932,364.343079 711.960876,350.190430 
	C711.310852,347.141388 710.660828,344.092346 710.863892,340.898468 
	C712.847412,340.776825 714.830933,340.655182 717.693481,340.729675 
	C719.743958,340.729675 721.794373,340.729675 724.137085,340.729675 
	C723.982910,338.918732 724.002869,337.922821 723.802002,336.973633 
	C718.716492,312.937805 710.442688,290.080109 698.671143,268.484924 
	C688.181274,249.241180 674.808777,232.150864 660.865601,216.004089 
	C666.513977,216.574631 670.651123,213.928696 674.530090,210.117813 
	C726.212524,159.342300 777.905701,108.577438 829.715149,57.931625 
	C846.923645,41.109718 873.488403,41.367607 889.852661,58.128819 
	C906.138916,74.810165 905.178040,99.775734 887.617554,116.987701 
	C849.079773,154.760712 810.543884,192.535797 772.056641,230.360229 
	C770.189575,232.195114 768.333130,234.300659 767.269775,236.642517 
	C764.554077,242.623169 766.670349,249.232635 772.031860,252.964478 
	C777.586365,256.830627 784.727844,256.395020 789.891724,251.476044 
	C797.969360,243.781494 805.852295,235.882599 813.817444,228.069916 
	C845.446533,197.045944 877.013184,165.957962 908.729370,135.023270 
	C926.009094,118.169296 952.319885,118.702690 969.232788,135.959305 
	C985.707336,152.768661 985.031494,177.652420 967.591675,194.843689 
	C959.406921,202.911789 951.141968,210.898438 942.934265,218.943359 
	C904.514160,256.601440 866.092102,294.257538 827.690613,331.934662 
	C813.994751,345.372253 812.899536,364.486542 825.414856,377.416504 
	C835.143555,387.467438 845.228394,397.180878 855.336609,406.854553 
	C861.414795,412.671478 870.038025,412.514008 875.502502,406.905853 
	C880.998352,401.265411 880.574707,393.166199 874.326965,386.956604 
	C865.702454,378.384857 857.006470,369.884857 848.328796,361.366699 
	C843.473022,356.600098 843.449402,355.206299 848.319275,350.428528 
	C895.162781,304.470490 942.168457,258.676270 988.805115,212.509308 
	C1024.569824,177.104813 1011.017029,118.111435 963.079224,99.886047 
	C952.148743,95.730408 940.852600,94.692162 929.200012,96.010406 
	C929.200012,93.419441 929.116089,91.128952 929.213989,88.846245 
	C929.755798,76.207230 927.140442,64.199440 920.582703,53.450047 
	C906.944702,31.094810 887.481995,19.097036 860.542297,18.820438 
	C841.027893,18.620079 824.467651,24.544270 810.756287,37.925175 
	C758.427673,88.992455 706.325195,140.291367 654.080811,191.445084 
	C650.384155,195.064529 648.268616,199.064133 648.058960,204.146835 
	C647.328613,203.816483 646.513245,203.602188 645.880676,203.138428 
	C635.160706,195.279648 624.876038,186.738480 613.674133,179.644409 
	C591.305115,165.478195 567.028442,155.610703 540.165588,150.041382 
	C535.332520,149.341721 530.502319,148.621216 525.665649,147.947403 
	C518.879822,147.002045 512.113892,145.670578 505.294464,145.269562 
	C496.222382,144.736084 487.106964,144.938950 477.087799,144.742477 
	C470.874695,145.480682 464.628174,146.010834 458.455811,147.002655 
	C447.395081,148.779968 436.376221,150.819717 425.345825,152.783249 
	C421.962646,153.385498 418.598938,154.096939 414.954926,154.142273 
	C407.432556,142.817657 396.502747,136.981583 383.213135,133.925446 
	C377.493835,123.909088 371.774536,113.892723 366.140137,103.154495 
	C366.509735,102.233566 366.867981,101.307884 367.250610,100.392395 
	C376.714966,77.746956 360.983246,54.862507 336.497192,56.080719 
	C323.229340,56.740810 313.827576,63.949192 309.585510,76.289360 
	C305.722382,87.527161 307.004852,98.413483 315.946075,107.632118 
	C321.272491,113.123764 327.715332,116.021355 334.917023,118.801857 
	C337.724518,129.577164 340.532013,140.352463 343.118652,151.810242 
	C342.372070,153.084854 341.612244,154.351929 340.880981,155.635254 
	C333.474213,168.633377 332.161163,182.037415 338.021118,196.611130 
	C337.304626,197.498795 336.714172,198.538437 335.853455,199.252136 
	C305.678558,224.272705 282.838013,254.780273 267.585388,290.882355 
	C249.627487,333.387634 244.598404,377.438232 252.060379,423.609680 
	C243.067535,430.060944 233.652618,436.004913 225.166702,443.065460 
	C205.429291,459.487640 190.573853,479.585815 181.397003,504.464386 
	C172.679688,526.597839 169.707245,549.616333 170.885681,573.255310 
	C171.064819,576.848633 171.593842,580.424622 171.707428,584.555054 
	C171.121338,585.362732 170.535248,586.170410 169.329483,587.229187 
	C163.250137,592.989380 158.704880,599.667603 156.509872,608.659912 
	C156.291290,609.612061 155.908356,610.559387 155.880478,611.517090 
	C155.682449,618.319031 155.557068,625.123108 154.908798,632.362183 
	C150.476654,643.847595 145.614624,655.189941 141.729187,666.857361 
	C137.565887,679.359192 147.018478,692.956421 160.163345,693.892700 
	C163.355881,694.120178 165.204895,695.287598 167.166946,697.574829 
	C173.576218,705.046265 182.981033,707.237976 192.059067,703.258545 
	C194.926605,702.001526 196.551575,702.222229 198.945755,704.346985 
	C211.653046,715.623962 230.866730,708.968933 234.129623,692.319763 
	C234.703079,689.393616 235.148697,686.442444 235.822617,682.516968 
	C237.195953,684.575073 237.860931,685.711792 238.659012,686.745850 
	C246.257156,696.590271 258.714081,698.726562 268.882629,691.953003 
	C277.748230,686.047363 281.009094,672.766052 274.794250,663.541321 
	C265.408936,649.610779 255.208694,636.229248 245.218399,621.773804 
	C243.511749,614.502747 241.805099,607.231689 240.022705,599.261902 
	C235.903915,592.039978 230.898697,585.672546 222.846588,581.311646 
	C221.373795,580.238281 219.901001,579.164917 218.638458,577.285767 
	C217.418274,564.456848 217.842743,551.713379 220.731628,539.114624 
	C223.271820,528.036560 225.679520,516.902710 232.663574,506.781616 
	C239.133469,498.689941 245.205963,490.229584 252.233490,482.655243 
	C255.997360,478.598450 261.405365,476.067047 266.252472,473.551300 
	C271.477356,484.092224 276.702209,494.633148 282.021271,505.864746 
	C291.513855,521.911987 302.254700,537.007385 316.180206,550.530762 
	C337.319733,572.076416 361.434998,589.421326 388.791229,602.835266 
	C386.521545,620.559753 384.190033,638.276550 382.004120,656.011353 
	C380.568085,667.662048 379.342224,679.338684 377.789948,691.787415 
	C377.143829,697.182861 376.497711,702.578247 375.480103,708.685242 
	C374.927216,714.106262 374.374329,719.527222 373.505341,725.659790 
	C369.813904,745.392151 366.161224,765.131836 362.415619,784.853943 
	C360.376587,795.590271 358.179840,806.296753 355.132843,816.995117 
	C349.175781,817.378113 343.189880,817.510376 337.267273,818.192627 
	C321.660828,819.990356 306.044647,821.771057 290.501251,824.032227 
	C270.210846,826.983887 249.867584,829.789673 229.767563,833.771362 
	C209.476425,837.790955 189.361603,842.814941 169.340698,848.053040 
	C148.231171,853.576050 127.827904,861.217407 108.659805,871.764526 
	C99.192329,876.973999 90.191986,882.985840 83.639122,891.886963 
	C77.592087,900.101013 75.636055,908.925293 80.231598,918.514221 
	C86.569092,931.737793 98.393005,939.051086 110.527931,945.662781 
	C136.268005,959.687256 164.106308,968.449341 192.508469,974.631104 
	C224.327515,981.556580 256.546814,986.725464 288.699280,992.004761 
	C306.962982,995.003479 325.412750,996.969421 343.831909,998.890564 
	C360.297913,1000.608154 376.819641,1001.924744 393.347900,1002.879761 
	C415.877777,1004.181641 438.432648,1005.679871 460.984955,1005.825012 
	C499.768524,1006.074707 538.560364,1005.484985 577.344604,1004.949890 
	C591.104736,1004.760010 604.866028,1003.903198 618.603394,1002.996033 
	C641.413391,1001.489685 664.215332,999.830444 686.999268,997.973755 
	C700.522888,996.871765 714.068420,995.707520 727.492004,993.787354 
	C747.624390,990.907471 767.673035,987.425781 787.730957,984.044067 
	C822.958374,978.104919 857.611633,969.803833 890.921936,956.756836 
	C908.885742,949.720764 926.337830,941.567688 939.823914,926.845520 
	C949.093750,916.725952 950.783569,904.983887 943.088135,893.707825 
	C935.263550,882.242493 923.792358,875.024048 911.715698,868.970093 
	C880.295959,853.219971 846.627441,844.159912 812.424622,837.107117 
	C790.399292,832.565369 768.197510,828.810303 745.983276,825.278381 
	C731.451599,822.967957 716.756165,821.687561 701.651001,819.475647 
	C694.479553,810.302856 687.308167,801.130127 679.901550,791.293213 
	C675.977905,785.121155 672.054321,778.949036 667.981995,772.100525 
	C665.626648,767.731934 663.271240,763.363342 660.828674,758.295959 
	C658.838806,753.860107 656.848938,749.424194 654.815125,744.253052 
	C653.555237,740.169128 652.295410,736.085266 651.098145,731.144043 
M815.054993,149.552216 
	C832.765137,132.174438 850.481934,114.803352 868.182068,97.415405 
	C874.758789,90.954712 875.367432,82.901688 869.769836,77.091759 
	C864.265991,71.379128 855.455933,71.336044 849.245483,77.414017 
	C809.973267,115.847954 770.592712,154.174301 731.638000,192.928268 
	C711.933960,212.530670 707.260498,244.121490 719.356567,268.401398 
	C741.078308,312.002045 797.632629,321.209015 832.706970,286.842834 
	C855.901367,264.116730 879.078796,241.373260 902.258484,218.632141 
	C917.353699,203.822632 932.482178,189.046692 947.509277,174.168442 
	C954.089172,167.653687 953.908569,158.397812 947.339600,153.196091 
	C941.351562,148.454391 933.977600,148.962219 927.973572,154.798248 
	C914.122437,168.262070 900.357605,181.814728 886.566895,195.340637 
	C861.958679,219.476288 837.385803,243.648010 812.741272,267.746460 
	C799.893555,280.309479 781.076355,283.906952 765.681030,276.924622 
	C738.224792,264.472260 732.128479,231.053314 753.562683,209.859482 
	C773.809631,189.839584 794.205139,169.969910 815.054993,149.552216 
z"/>
<path fill="#DFD8F7" opacity="1.000000" stroke="none" 
	d="
M702.134033,819.945801 
	C716.756165,821.687561 731.451599,822.967957 745.983276,825.278381 
	C768.197510,828.810303 790.399292,832.565369 812.424622,837.107117 
	C846.627441,844.159912 880.295959,853.219971 911.715698,868.970093 
	C923.792358,875.024048 935.263550,882.242493 943.088135,893.707825 
	C950.783569,904.983887 949.093750,916.725952 939.823914,926.845520 
	C926.337830,941.567688 908.885742,949.720764 890.921936,956.756836 
	C857.611633,969.803833 822.958374,978.104919 787.730957,984.044067 
	C767.673035,987.425781 747.624390,990.907471 727.492004,993.787354 
	C714.068420,995.707520 700.522888,996.871765 686.999268,997.973755 
	C664.215332,999.830444 641.413391,1001.489685 618.603394,1002.996033 
	C604.866028,1003.903198 591.104736,1004.760010 577.344604,1004.949890 
	C538.560364,1005.484985 499.768524,1006.074707 460.984955,1005.825012 
	C438.432648,1005.679871 415.877777,1004.181641 393.347900,1002.879761 
	C376.819641,1001.924744 360.297913,1000.608154 343.831909,998.890564 
	C325.412750,996.969421 306.962982,995.003479 288.699280,992.004761 
	C256.546814,986.725464 224.327515,981.556580 192.508469,974.631104 
	C164.106308,968.449341 136.268005,959.687256 110.527931,945.662781 
	C98.393005,939.051086 86.569092,931.737793 80.231598,918.514221 
	C75.636055,908.925293 77.592087,900.101013 83.639122,891.886963 
	C90.191986,882.985840 99.192329,876.973999 108.659805,871.764526 
	C127.827904,861.217407 148.231171,853.576050 169.340698,848.053040 
	C189.361603,842.814941 209.476425,837.790955 229.767563,833.771362 
	C249.867584,829.789673 270.210846,826.983887 290.501251,824.032227 
	C306.044647,821.771057 321.660828,819.990356 337.267273,818.192627 
	C343.189880,817.510376 349.175781,817.378113 355.624207,817.419495 
	C350.585632,847.356140 345.045380,876.866455 339.533234,906.382080 
	C338.224915,913.387756 341.312256,917.426208 348.332825,917.636169 
	C352.802887,917.769836 357.285492,917.483337 362.228394,917.550659 
	C390.459351,917.430725 418.224396,917.145508 446.454956,916.927490 
	C454.056610,916.995544 461.192810,916.973206 468.328796,917.005737 
	C472.886841,917.026550 476.519287,914.791016 477.423950,910.664368 
	C479.645752,900.529297 481.074493,890.220398 482.883484,879.584473 
	C482.369263,876.766724 481.793793,874.345886 481.142975,871.585083 
	C478.292877,868.195801 475.597321,865.069885 472.730072,862.110352 
	C458.285583,847.200806 446.992645,830.203552 439.256897,811.114380 
	C457.833130,810.718872 475.932129,809.922485 494.021942,810.093750 
	C529.216614,810.426758 564.406189,811.302307 599.681152,812.366455 
	C597.720276,844.002197 595.652039,875.223022 593.651367,906.448242 
	C593.234802,912.949951 596.884521,916.971680 603.396912,916.968750 
	C624.879944,916.959045 646.362976,916.796692 668.312500,916.803345 
	C681.587524,916.664185 694.395203,916.322876 707.204895,916.191345 
	C719.697693,916.063049 732.192749,916.175842 744.686584,916.130188 
	C751.134521,916.106689 754.450989,912.990051 754.849426,906.483459 
	C755.062744,902.998962 754.960938,899.495117 755.048828,895.536804 
	C755.023621,890.711853 754.951111,886.350159 754.931152,881.546265 
	C754.714233,878.041382 754.444702,874.978638 754.103516,871.578857 
	C751.597717,868.784668 749.357544,866.090942 746.697754,863.908691 
	C730.493591,850.613831 715.449524,836.160522 702.134033,819.945801 
z"/>
<path fill="#030303" opacity="1.000000" stroke="none" 
	d="
M648.761841,204.284378 
	C648.268616,199.064133 650.384155,195.064529 654.080811,191.445084 
	C706.325195,140.291367 758.427673,88.992455 810.756287,37.925175 
	C824.467651,24.544270 841.027893,18.620079 860.542297,18.820438 
	C887.481995,19.097036 906.944702,31.094810 920.582703,53.450047 
	C927.140442,64.199440 929.755798,76.207230 929.213989,88.846245 
	C929.116089,91.128952 929.200012,93.419441 929.200012,96.010406 
	C940.852600,94.692162 952.148743,95.730408 963.079224,99.886047 
	C1011.017029,118.111435 1024.569824,177.104813 988.805115,212.509308 
	C942.168457,258.676270 895.162781,304.470490 848.319275,350.428528 
	C843.449402,355.206299 843.473022,356.600098 848.328796,361.366699 
	C857.006470,369.884857 865.702454,378.384857 874.326965,386.956604 
	C880.574707,393.166199 880.998352,401.265411 875.502502,406.905853 
	C870.038025,412.514008 861.414795,412.671478 855.336609,406.854553 
	C845.228394,397.180878 835.143555,387.467438 825.414856,377.416504 
	C812.899536,364.486542 813.994751,345.372253 827.690613,331.934662 
	C866.092102,294.257538 904.514160,256.601440 942.934265,218.943359 
	C951.141968,210.898438 959.406921,202.911789 967.591675,194.843689 
	C985.031494,177.652420 985.707336,152.768661 969.232788,135.959305 
	C952.319885,118.702690 926.009094,118.169296 908.729370,135.023270 
	C877.013184,165.957962 845.446533,197.045944 813.817444,228.069916 
	C805.852295,235.882599 797.969360,243.781494 789.891724,251.476044 
	C784.727844,256.395020 777.586365,256.830627 772.031860,252.964478 
	C766.670349,249.232635 764.554077,242.623169 767.269775,236.642517 
	C768.333130,234.300659 770.189575,232.195114 772.056641,230.360229 
	C810.543884,192.535797 849.079773,154.760712 887.617554,116.987701 
	C905.178040,99.775734 906.138916,74.810165 889.852661,58.128819 
	C873.488403,41.367607 846.923645,41.109718 829.715149,57.931625 
	C777.905701,108.577438 726.212524,159.342300 674.530090,210.117813 
	C670.651123,213.928696 666.513977,216.574631 660.146240,215.843460 
	C653.459778,214.140182 650.091492,210.165985 648.761841,204.284378 
z"/>
<path fill="#8065E0" opacity="1.000000" stroke="none" 
	d="
M661.915527,549.021973 
	C649.382690,559.842773 636.849915,570.663574 623.745239,581.777222 
	C622.712463,582.250122 622.225952,582.382751 621.794556,582.616882 
	C610.068237,588.980774 598.336975,595.335815 586.651123,601.773132 
	C585.916504,602.177795 585.542786,603.237427 584.619995,603.986450 
	C578.961609,605.963501 573.723633,608.058655 568.401001,609.910706 
	C535.969238,621.195862 502.596893,625.710327 468.394562,622.726501 
	C456.549713,621.693176 444.840179,619.107971 432.842834,616.915527 
	C421.579041,612.989136 410.535156,609.397217 399.506958,605.757812 
	C395.948975,604.583557 392.432312,603.284241 388.896729,602.042175 
	C361.434998,589.421326 337.319733,572.076416 316.240906,549.948914 
	C318.276703,549.222534 320.251678,548.953979 322.226929,548.952209 
	C352.014954,548.925232 381.803040,548.944214 411.591095,548.930725 
	C463.344910,548.907288 515.098755,548.868896 566.899414,549.312683 
	C566.946289,553.710022 566.946289,557.631409 566.946289,561.997192 
	C569.596985,561.997192 571.396484,561.998352 573.195984,561.997009 
	C593.002441,561.982178 612.808960,561.968079 632.615417,561.951477 
	C645.800415,561.940430 645.800415,561.938721 646.444092,548.997864 
	C651.912476,548.980347 656.914001,549.001160 661.915527,549.021973 
z"/>
<path fill="#8065E0" opacity="1.000000" stroke="none" 
	d="
M415.226318,154.758392 
	C418.598938,154.096939 421.962646,153.385498 425.345825,152.783249 
	C436.376221,150.819717 447.395081,148.779968 458.455811,147.002655 
	C464.628174,146.010834 470.874695,145.480682 477.510284,145.166504 
	C476.231903,146.687408 474.670654,148.301468 472.809296,148.803909 
	C442.845245,156.892212 416.019440,171.035522 392.989960,191.716156 
	C370.140930,212.234711 352.165588,236.403915 340.757965,265.307800 
	C328.289001,296.900726 323.579926,329.424805 327.123871,363.143188 
	C327.511047,366.826904 329.028992,370.391785 329.863983,374.316376 
	C325.794861,377.403442 321.884186,380.185913 317.675812,383.119598 
	C311.228760,388.559906 306.809540,394.944366 304.688110,403.122620 
	C304.268036,403.886688 304.087830,404.463684 303.496185,405.026917 
	C293.477783,407.970337 283.779022,410.664001 274.293213,413.968872 
	C266.836090,416.566956 259.641846,419.919617 252.330826,422.937103 
	C244.598404,377.438232 249.627487,333.387634 267.585388,290.882355 
	C282.838013,254.780273 305.678558,224.272705 335.853455,199.252136 
	C336.714172,198.538437 337.304626,197.498795 338.474670,196.288467 
	C340.534332,195.206604 342.335754,194.703323 343.716949,193.649353 
	C361.210571,180.300507 380.190979,169.636642 400.658142,161.550323 
	C405.632233,159.585083 410.376404,157.037949 415.226318,154.758392 
z"/>
<path fill="#030303" opacity="1.000000" stroke="none" 
	d="
M814.795166,149.793182 
	C794.205139,169.969910 773.809631,189.839584 753.562683,209.859482 
	C732.128479,231.053314 738.224792,264.472260 765.681030,276.924622 
	C781.076355,283.906952 799.893555,280.309479 812.741272,267.746460 
	C837.385803,243.648010 861.958679,219.476288 886.566895,195.340637 
	C900.357605,181.814728 914.122437,168.262070 927.973572,154.798248 
	C933.977600,148.962219 941.351562,148.454391 947.339600,153.196091 
	C953.908569,158.397812 954.089172,167.653687 947.509277,174.168442 
	C932.482178,189.046692 917.353699,203.822632 902.258484,218.632141 
	C879.078796,241.373260 855.901367,264.116730 832.706970,286.842834 
	C797.632629,321.209015 741.078308,312.002045 719.356567,268.401398 
	C707.260498,244.121490 711.933960,212.530670 731.638000,192.928268 
	C770.592712,154.174301 809.973267,115.847954 849.245483,77.414017 
	C855.455933,71.336044 864.265991,71.379128 869.769836,77.091759 
	C875.367432,82.901688 874.758789,90.954712 868.182068,97.415405 
	C850.481934,114.803352 832.765137,132.174438 814.795166,149.793182 
z"/>
<path fill="#D7CEF7" opacity="1.000000" stroke="none" 
	d="
M566.852539,548.836731 
	C515.098755,548.868896 463.344910,548.907288 411.591095,548.930725 
	C381.803040,548.944214 352.014954,548.925232 322.226929,548.952209 
	C320.251678,548.953979 318.276703,549.222534 316.002686,549.702393 
	C302.254700,537.007385 291.513855,521.911987 282.448151,505.492859 
	C329.583435,505.081696 376.291870,505.042419 423.467102,505.049927 
	C441.622589,505.065460 459.311310,505.034180 477.467346,505.042908 
	C507.498016,505.154175 537.061340,505.225464 566.703369,505.739410 
	C566.805542,520.400269 566.829041,534.618530 566.852539,548.836731 
z"/>
<path fill="#896EE7" opacity="1.000000" stroke="none" 
	d="
M701.892517,819.710693 
	C715.449524,836.160522 730.493591,850.613831 746.697754,863.908691 
	C749.357544,866.090942 751.597717,868.784668 753.619873,871.600952 
	C734.140198,871.975769 715.072510,871.991577 695.536133,872.003296 
	C688.862610,871.999329 682.657898,871.999329 675.137573,871.999329 
	C677.135803,874.770752 678.002686,876.611572 679.413147,877.815857 
	C684.805603,882.420288 690.044128,887.322205 695.946716,891.186401 
	C706.614685,898.170105 718.922363,900.910828 731.390137,900.700562 
	C739.284790,900.567383 747.132568,897.662109 755.001404,896.000000 
	C754.960938,899.495117 755.062744,902.998962 754.849426,906.483459 
	C754.450989,912.990051 751.134521,916.106689 744.686584,916.130188 
	C732.192749,916.175842 719.697693,916.063049 707.204895,916.191345 
	C694.395203,916.322876 681.587524,916.664185 668.294922,916.470154 
	C666.574829,913.734985 664.476807,911.514526 664.280273,909.136902 
	C663.858948,904.037903 664.182556,898.837036 664.630737,893.715515 
	C665.368530,885.284424 665.875122,876.704773 660.061707,869.883606 
	C647.040710,854.605530 640.126770,836.283325 633.395142,817.994507 
	C635.454590,817.350342 637.264038,816.928101 638.803284,816.038391 
	C652.608154,808.058167 666.365417,799.995667 680.136719,791.957397 
	C687.308167,801.130127 694.479553,810.302856 701.892517,819.710693 
z"/>
<path fill="#886FE2" opacity="1.000000" stroke="none" 
	d="
M648.410400,204.215607 
	C650.091492,210.165985 653.459778,214.140182 659.723083,215.887817 
	C674.808777,232.150864 688.181274,249.241180 698.671143,268.484924 
	C710.442688,290.080109 718.716492,312.937805 723.802002,336.973633 
	C724.002869,337.922821 723.982910,338.918732 724.137085,340.729675 
	C721.794373,340.729675 719.743958,340.729675 716.917053,340.443359 
	C710.100098,340.083313 704.059631,340.009583 698.055908,339.563782 
	C697.512512,329.671234 697.967957,319.941223 696.095032,310.682251 
	C693.644531,298.568878 689.828735,286.661957 685.745728,274.964539 
	C679.277466,256.433319 668.944031,239.977371 655.832703,225.460770 
	C638.183533,205.919861 617.993835,189.797668 593.324402,179.528687 
	C572.736084,170.958557 551.569580,165.472336 529.293762,165.134583 
	C519.564636,164.987061 509.810486,166.266815 500.072723,166.968491 
	C484.354614,168.101120 469.507751,172.894867 455.232788,179.043732 
	C429.858978,189.973389 408.027771,205.960464 390.212372,227.258865 
	C376.883636,243.193481 366.448853,260.785950 359.374084,280.330780 
	C351.607300,301.787506 348.209686,324.000946 349.159058,346.734253 
	C349.511932,355.183807 351.667999,363.558044 352.541260,371.980347 
	C348.389587,371.980743 344.698456,371.967468 340.997620,371.558685 
	C340.324341,368.437500 339.119446,365.718323 339.086853,362.985107 
	C338.903198,347.595520 338.221222,332.151489 339.223846,316.825134 
	C340.218689,301.617950 344.681885,286.954468 350.132874,272.679138 
	C356.512909,255.970856 365.498077,240.788605 376.195679,226.475784 
	C387.543457,211.293030 401.116852,198.307968 416.478119,187.589828 
	C433.081787,176.004807 451.156921,166.638611 470.995209,161.619843 
	C481.845978,158.874756 492.879974,156.463043 503.979187,155.201462 
	C514.983704,153.950638 526.172424,154.243973 537.283691,154.060501 
	C540.092590,154.014114 541.339294,153.143768 540.991699,150.320480 
	C567.028442,155.610703 591.305115,165.478195 613.674133,179.644409 
	C624.876038,186.738480 635.160706,195.279648 645.880676,203.138428 
	C646.513245,203.602188 647.328613,203.816483 648.410400,204.215607 
z"/>
<path fill="#8B70E8" opacity="1.000000" stroke="none" 
	d="
M794.019836,513.070129 
	C798.700317,511.062042 803.326538,508.914185 808.071838,507.073059 
	C820.635925,502.198425 833.193787,497.297485 845.861694,492.703400 
	C860.532166,487.383026 873.991577,497.220306 872.963928,512.399536 
	C872.470459,519.687256 868.505920,524.913147 862.038147,527.945862 
	C856.219360,530.674255 850.139282,532.845093 844.121582,536.333374 
	C852.670471,538.831909 861.243896,541.249756 869.762268,543.848328 
	C881.764709,547.509644 887.497131,558.886780 883.148254,570.170715 
	C880.936951,575.908508 877.059998,579.213196 868.496216,582.489319 
	C873.226807,586.708191 876.934753,591.307861 877.233643,597.969055 
	C877.588257,605.874268 874.700684,612.063965 867.995117,616.084656 
	C861.511475,619.972473 854.673767,619.794800 847.979187,616.296875 
	C844.620483,614.541931 841.324097,612.667664 837.940857,610.815247 
	C837.465759,611.574890 837.099731,611.942322 836.984680,612.376282 
	C834.705322,620.971802 829.161255,626.386108 820.485046,627.779114 
	C811.891113,629.158813 805.444580,625.154663 800.515869,618.180542 
	C794.464417,609.617737 788.194336,601.209412 782.358643,592.391113 
	C789.662354,593.311951 796.765747,596.153931 803.564392,595.552185 
	C826.442139,593.527283 842.469238,573.935181 841.199402,551.988159 
	C840.233582,535.294556 826.537048,517.996338 810.083252,515.010986 
	C804.785767,514.049805 799.377441,513.699768 794.019836,513.070129 
z"/>
<path fill="#8B70E8" opacity="1.000000" stroke="none" 
	d="
M245.354767,622.614380 
	C255.208694,636.229248 265.408936,649.610779 274.794250,663.541321 
	C281.009094,672.766052 277.748230,686.047363 268.882629,691.953003 
	C258.714081,698.726562 246.257156,696.590271 238.659012,686.745850 
	C237.860931,685.711792 237.195953,684.575073 235.822617,682.516968 
	C235.148697,686.442444 234.703079,689.393616 234.129623,692.319763 
	C230.866730,708.968933 211.653046,715.623962 198.945755,704.346985 
	C196.551575,702.222229 194.926605,702.001526 192.059067,703.258545 
	C182.981033,707.237976 173.576218,705.046265 167.166946,697.574829 
	C165.204895,695.287598 163.355881,694.120178 160.163345,693.892700 
	C147.018478,692.956421 137.565887,679.359192 141.729187,666.857361 
	C145.614624,655.189941 150.476654,643.847595 155.485718,632.223755 
	C156.648575,632.741211 157.234497,633.397156 157.867706,634.439453 
	C158.289261,636.252747 158.471481,637.765564 159.066574,639.093445 
	C167.956573,658.929688 191.955154,669.694519 212.771515,663.234985 
	C230.385971,657.769043 243.640198,642.057983 244.359467,625.830200 
	C244.865524,624.577209 245.110138,623.595764 245.354767,622.614380 
z"/>
<path fill="#8065E0" opacity="1.000000" stroke="none" 
	d="
M423.000244,505.003143 
	C376.291870,505.042419 329.583435,505.081696 282.401062,505.147522 
	C276.702209,494.633148 271.477356,484.092224 266.211975,472.872864 
	C275.543243,467.146851 284.696350,461.620850 294.356873,457.204987 
	C301.916718,453.749359 310.105621,451.669739 318.321899,449.125214 
	C327.325684,455.927246 336.904327,459.369537 348.102295,459.215790 
	C356.971954,459.094055 364.496490,455.929718 371.972534,452.275299 
	C372.538330,453.815125 372.901123,455.116028 373.658844,456.118378 
	C386.385834,472.954071 402.006378,486.693970 419.138336,498.874298 
	C420.958221,500.168182 421.737976,502.925018 423.000244,505.003143 
z"/>
<path fill="#957EE6" opacity="1.000000" stroke="none" 
	d="
M318.015045,448.978760 
	C310.105621,451.669739 301.916718,453.749359 294.356873,457.204987 
	C284.696350,461.620850 275.543243,467.146851 266.121460,472.520813 
	C261.405365,476.067047 255.997360,478.598450 252.233490,482.655243 
	C245.205963,490.229584 239.133469,498.689941 232.230316,506.634399 
	C231.797058,503.208618 231.797058,499.930084 231.797058,495.256500 
	C225.262238,495.156097 218.026154,495.000549 210.789352,494.952606 
	C207.235840,494.929047 203.612076,495.586700 200.141235,495.089844 
	C193.041290,494.073334 190.936111,494.935883 186.935715,500.817017 
	C185.916183,502.315887 183.618408,502.945374 181.907928,503.974304 
	C190.573853,479.585815 205.429291,459.487640 225.166702,443.065460 
	C233.652618,436.004913 243.067535,430.060944 252.195602,423.273376 
	C259.641846,419.919617 266.836090,416.566956 274.293213,413.968872 
	C283.779022,410.664001 293.477783,407.970337 303.505768,405.444489 
	C303.890320,412.254639 303.122711,418.734436 303.986450,424.988953 
	C305.327026,434.696381 311.219513,442.212067 318.015045,448.978760 
z"/>
<path fill="#8E76E3" opacity="1.000000" stroke="none" 
	d="
M698.019104,339.935852 
	C704.059631,340.009583 710.100098,340.083313 716.477539,340.345276 
	C714.830933,340.655182 712.847412,340.776825 709.971069,340.907043 
	C700.393677,340.782074 691.709045,340.648529 683.015808,340.093872 
	C682.632141,332.554291 682.774658,325.363159 681.788025,318.330444 
	C678.372803,293.987518 669.599670,271.694000 656.147766,251.036438 
	C642.415466,229.948273 624.182739,213.866699 602.663513,201.467758 
	C587.262146,192.593796 570.739136,186.847839 553.017090,183.425278 
	C537.860779,180.498215 522.903137,181.307617 507.857910,181.195557 
	C501.180664,181.145828 494.338715,182.594925 487.829773,184.331589 
	C466.191284,190.105011 446.236847,199.202591 428.049042,212.737289 
	C405.992432,229.151016 390.068176,249.951828 378.637665,274.614868 
	C371.750946,289.473907 366.867126,304.981873 365.303406,321.247131 
	C364.311249,331.567169 364.563141,342.065552 365.033630,352.448761 
	C365.406250,360.672852 366.959686,368.843445 367.623840,376.991241 
	C365.840454,376.614105 364.421997,376.283508 362.835632,375.690857 
	C361.445129,374.619171 360.222565,373.809570 359.000000,372.556396 
	C358.978088,370.613861 359.127747,369.089294 358.907654,367.620087 
	C356.796417,353.525909 354.607819,339.424042 357.026489,325.151703 
	C358.847321,314.407349 360.026520,303.447693 363.042023,293.032867 
	C371.278351,264.586700 386.304840,240.118301 407.788422,219.521301 
	C420.616333,207.222778 434.699341,196.778503 450.707672,189.303223 
	C465.717743,182.294098 481.302246,176.931793 497.993439,174.649445 
	C517.438782,171.990463 536.867554,171.650345 555.921814,175.436600 
	C573.951294,179.019211 591.463501,185.173660 607.411011,194.762344 
	C632.442322,209.812897 653.371216,229.230331 667.740234,254.846542 
	C673.958130,265.931427 679.083862,277.750885 683.495850,289.683990 
	C686.444824,297.660309 687.575745,306.374359 688.941772,314.851501 
	C690.249939,322.968994 690.811096,331.206909 691.759705,339.935852 
	C693.782043,339.935852 695.900574,339.935852 698.019104,339.935852 
z"/>
<path fill="#522DD4" opacity="1.000000" stroke="none" 
	d="
M705.997192,450.029114 
	C714.961121,454.388702 716.811646,458.037231 713.261597,466.002045 
	C698.296814,466.139984 684.073608,466.067139 669.850342,466.077911 
	C668.576965,466.078857 667.303894,466.621460 665.558472,466.905975 
	C654.731934,466.902588 644.377563,466.905731 633.559570,466.894073 
	C624.724548,466.702026 616.353149,466.524719 607.521240,466.256287 
	C600.033936,466.238342 593.007141,466.311493 585.521423,466.286591 
	C558.657104,466.160065 532.251770,466.103546 505.846466,466.114288 
	C491.236908,466.120239 476.627441,466.238831 461.578094,466.230042 
	C453.768524,466.959106 449.277924,463.037476 446.056091,456.524323 
	C446.042328,452.058014 446.057465,448.052612 446.335144,444.000488 
	C446.773560,443.927185 446.949402,443.900696 447.347382,444.131042 
	C451.221954,448.668884 456.070679,449.856201 461.433594,449.851105 
	C483.716797,449.829895 506.000031,449.868988 528.283203,449.831299 
	C537.419128,449.815857 546.554749,449.662109 556.166016,449.705200 
	C591.561768,449.894104 626.482056,449.953064 661.402405,449.983521 
	C662.378662,449.984375 663.355164,449.681183 664.763550,449.642548 
	C678.796082,449.853271 692.396606,449.941193 705.997192,450.029114 
z"/>
<path fill="#8A70E8" opacity="1.000000" stroke="none" 
	d="
M585.001221,603.992310 
	C585.542786,603.237427 585.916504,602.177795 586.651123,601.773132 
	C598.336975,595.335815 610.068237,588.980774 621.794556,582.616882 
	C622.225952,582.382751 622.712463,582.250122 623.518677,582.031067 
	C632.720093,602.136169 638.777222,623.153992 642.862183,644.718201 
	C645.019409,656.106201 646.363892,667.648132 647.608154,679.550415 
	C644.199707,679.653442 641.262024,679.090759 638.316406,679.045044 
	C630.021057,678.916199 621.708801,678.726196 613.431946,679.137756 
	C610.223572,679.297302 607.092407,681.007324 603.701172,681.682861 
	C602.133179,672.486877 601.488159,663.442444 599.298828,654.788757 
	C594.986023,637.741943 589.816406,620.911987 585.001221,603.992310 
z"/>
<path fill="#9178E6" opacity="1.000000" stroke="none" 
	d="
M181.652466,504.219360 
	C183.618408,502.945374 185.916183,502.315887 186.935715,500.817017 
	C190.936111,494.935883 193.041290,494.073334 200.141235,495.089844 
	C203.612076,495.586700 207.235840,494.929047 210.789352,494.952606 
	C218.026154,495.000549 225.262238,495.156097 231.797058,495.256500 
	C231.797058,499.930084 231.797058,503.208618 231.966492,506.854248 
	C225.679520,516.902710 223.271820,528.036560 220.731628,539.114624 
	C217.842743,551.713379 217.418274,564.456848 218.171295,577.668701 
	C208.752701,575.455078 199.628281,573.234192 190.458740,576.128540 
	C184.097519,578.136414 178.113556,581.339539 171.961029,584.008606 
	C171.593842,580.424622 171.064819,576.848633 170.885681,573.255310 
	C169.707245,549.616333 172.679688,526.597839 181.652466,504.219360 
z"/>
<path fill="#8A70E8" opacity="1.000000" stroke="none" 
	d="
M388.843994,602.438721 
	C392.432312,603.284241 395.948975,604.583557 399.506958,605.757812 
	C410.535156,609.397217 421.579041,612.989136 432.793762,617.316040 
	C431.973419,625.609314 430.952423,633.183044 429.983429,640.763489 
	C427.498810,660.200134 425.037415,679.639771 422.134521,699.057495 
	C420.261688,698.681152 418.835724,698.243286 417.378082,697.982788 
	C404.262634,695.638611 391.141632,693.325745 378.022247,691.003662 
	C379.342224,679.338684 380.568085,667.662048 382.004120,656.011353 
	C384.190033,638.276550 386.521545,620.559753 388.843994,602.438721 
z"/>
<path fill="#846AE1" opacity="1.000000" stroke="none" 
	d="
M540.578613,150.180939 
	C541.339294,153.143768 540.092590,154.014114 537.283691,154.060501 
	C526.172424,154.243973 514.983704,153.950638 503.979187,155.201462 
	C492.879974,156.463043 481.845978,158.874756 470.995209,161.619843 
	C451.156921,166.638611 433.081787,176.004807 416.478119,187.589828 
	C401.116852,198.307968 387.543457,211.293030 376.195679,226.475784 
	C365.498077,240.788605 356.512909,255.970856 350.132874,272.679138 
	C344.681885,286.954468 340.218689,301.617950 339.223846,316.825134 
	C338.221222,332.151489 338.903198,347.595520 339.086853,362.985107 
	C339.119446,365.718323 340.324341,368.437500 340.594727,371.588745 
	C336.808533,372.680115 333.415466,373.345947 330.022461,374.011780 
	C329.028992,370.391785 327.511047,366.826904 327.123871,363.143188 
	C323.579926,329.424805 328.289001,296.900726 340.757965,265.307800 
	C352.165588,236.403915 370.140930,212.234711 392.989960,191.716156 
	C416.019440,171.035522 442.845245,156.892212 472.809296,148.803909 
	C474.670654,148.301468 476.231903,146.687408 477.971466,145.208008 
	C487.106964,144.938950 496.222382,144.736084 505.294464,145.269562 
	C512.113892,145.670578 518.879822,147.002045 525.665649,147.947403 
	C530.502319,148.621216 535.332520,149.341721 540.578613,150.180939 
z"/>
<path fill="#8B70E8" opacity="1.000000" stroke="none" 
	d="
M712.239502,470.891663 
	C731.433167,490.354340 753.741089,505.525696 777.740784,519.037231 
	C776.835754,520.606506 775.987610,521.652588 774.955261,522.464355 
	C764.056763,531.034790 759.322021,542.522034 758.936157,556.090271 
	C743.505981,546.484863 727.878784,537.176758 712.734558,527.139832 
	C705.878357,522.595825 699.981506,516.604248 693.338562,510.747406 
	C693.648010,508.560028 694.268372,506.894562 695.031067,504.895203 
	C698.072205,499.138611 701.066345,493.764282 703.843506,488.280060 
	C706.750793,482.538910 709.449585,476.692200 712.239502,470.891663 
z"/>
<path fill="#D8CFF7" opacity="1.000000" stroke="none" 
	d="
M334.819031,117.987717 
	C327.715332,116.021355 321.272491,113.123764 315.946075,107.632118 
	C307.004852,98.413483 305.722382,87.527161 309.585510,76.289360 
	C313.827576,63.949192 323.229340,56.740810 336.497192,56.080719 
	C360.983246,54.862507 376.714966,77.746956 367.250610,100.392395 
	C366.867981,101.307884 366.509735,102.233566 365.780701,103.651123 
	C357.504608,113.811516 347.426270,118.695541 334.819031,117.987717 
z"/>
<path fill="#552FD6" opacity="1.000000" stroke="none" 
	d="
M361.762482,917.385254 
	C357.285492,917.483337 352.802887,917.769836 348.332825,917.636169 
	C341.312256,917.426208 338.224915,913.387756 339.533234,906.382080 
	C345.045380,876.866455 350.585632,847.356140 356.084869,817.430298 
	C358.179840,806.296753 360.376587,795.590271 362.415619,784.853943 
	C366.161224,765.131836 369.813904,745.392151 374.146118,725.319214 
	C387.519196,724.992798 400.251465,725.006958 412.983917,725.392090 
	C411.748291,727.133545 410.764465,728.969299 409.235077,729.797668 
	C400.473969,734.542908 391.475739,738.859436 382.814423,743.773560 
	C380.721832,744.960876 378.817749,747.646240 378.184692,750.006897 
	C376.695221,755.560730 376.025208,761.334351 375.019623,767.453613 
	C374.006195,775.256348 372.996796,782.624512 371.973755,790.400757 
	C370.978943,797.207764 369.997772,803.606750 368.990845,810.418640 
	C368.276337,816.537109 367.587555,822.242615 366.640930,828.258301 
	C365.287842,843.026978 364.192627,857.485596 363.177155,872.297363 
	C362.830200,878.763672 362.403534,884.876709 361.923584,891.383423 
	C361.195251,895.167725 360.637329,898.586975 359.818451,901.942566 
	C358.494354,907.368347 358.026886,912.624512 361.762482,917.385254 
z"/>
<path fill="#522DD4" opacity="1.000000" stroke="none" 
	d="
M415.090637,154.450333 
	C410.376404,157.037949 405.632233,159.585083 400.658142,161.550323 
	C380.190979,169.636642 361.210571,180.300507 343.716949,193.649353 
	C342.335754,194.703323 340.534332,195.206604 338.569305,195.947083 
	C332.161163,182.037415 333.474213,168.633377 340.880981,155.635254 
	C341.612244,154.351929 342.372070,153.084854 343.539001,151.382156 
	C350.743866,143.162064 358.893250,137.439926 369.175110,135.549393 
	C373.832733,134.692978 378.680420,134.869980 383.441864,134.578171 
	C396.502747,136.981583 407.432556,142.817657 415.090637,154.450333 
z"/>
<path fill="#EAE9E8" opacity="1.000000" stroke="none" 
	d="
M683.024414,340.514984 
	C691.709045,340.648529 700.393677,340.782074 709.544556,340.979431 
	C710.660828,344.092346 711.310852,347.141388 711.578247,350.593079 
	C709.416626,351.685486 707.502747,352.147369 705.882690,353.105865 
	C699.984253,356.595795 694.167603,360.225525 688.363770,363.872040 
	C687.441162,364.451721 686.743164,365.388702 685.626709,366.003754 
	C677.191406,360.291046 672.342102,361.241241 663.645203,369.999817 
	C645.180664,370.399231 627.925232,367.508148 612.743469,357.236084 
	C605.485107,352.325043 598.894348,346.427216 592.468506,340.936462 
	C611.305237,340.792603 629.674683,340.688599 648.498535,340.678772 
	C653.973145,340.698425 658.993347,340.623962 664.459839,340.663513 
	C668.278625,340.695587 671.651123,340.613586 675.454956,340.638428 
	C678.265686,340.668488 680.645020,340.591736 683.024414,340.514984 
z"/>
<path fill="#5733D5" opacity="1.000000" stroke="none" 
	d="
M759.031372,556.483154 
	C759.322021,542.522034 764.056763,531.034790 774.955261,522.464355 
	C775.987610,521.652588 776.835754,520.606506 777.881104,519.353027 
	C783.086487,517.059082 788.180176,515.081360 793.646851,513.086914 
	C799.377441,513.699768 804.785767,514.049805 810.083252,515.010986 
	C826.537048,517.996338 840.233582,535.294556 841.199402,551.988159 
	C842.469238,573.935181 826.442139,593.527283 803.564392,595.552185 
	C796.765747,596.153931 789.662354,593.311951 782.312134,592.046875 
	C773.190735,586.111267 765.254395,579.427063 761.911316,568.900208 
	C760.670105,564.991577 760.036987,560.889771 759.031372,556.483154 
M824.524109,576.976807 
	C833.599487,566.794495 834.777588,551.604187 827.392029,539.995728 
	C819.596741,527.742981 804.657898,522.989014 790.715759,528.196167 
	C779.698730,532.310852 769.156067,546.234070 771.952393,561.346558 
	C774.185547,573.415649 781.069946,581.774048 792.472595,585.491333 
	C804.287903,589.343140 815.065063,586.341736 824.524109,576.976807 
z"/>
<path fill="#F9F8F9" opacity="1.000000" stroke="none" 
	d="
M705.998352,449.586060 
	C692.396606,449.941193 678.796082,449.853271 664.634460,449.347321 
	C658.537415,444.496887 652.952698,440.123596 647.476990,435.617889 
	C639.719543,429.234711 632.042358,422.753906 624.838257,416.221100 
	C630.740967,416.529388 636.132019,417.179535 641.532715,417.272369 
	C648.717651,417.395966 655.910034,417.085510 663.383301,417.135803 
	C670.279358,426.000519 677.904236,428.228851 684.104553,421.988586 
	C688.067993,417.999634 690.070129,412.061890 693.230652,406.746063 
	C694.039734,403.999512 694.569702,401.504669 695.491577,399.005188 
	C701.586548,396.664459 707.289612,394.328339 712.992676,391.992188 
	C712.994751,392.440125 712.996887,392.888062 712.721497,393.915283 
	C712.628479,396.327942 712.812988,398.161285 712.997437,399.994629 
	C710.859924,414.255585 708.707703,428.514343 706.601013,442.779846 
	C706.290161,444.884613 706.194641,447.021179 705.998352,449.586060 
z"/>
<path fill="#8065E0" opacity="1.000000" stroke="none" 
	d="
M712.237549,470.545898 
	C709.449585,476.692200 706.750793,482.538910 703.843506,488.280060 
	C701.066345,493.764282 698.072205,499.138611 694.574585,504.853760 
	C677.770325,505.194550 661.565002,505.242828 645.259766,504.812805 
	C645.159973,500.405579 645.159973,496.476715 645.159973,492.356384 
	C642.917542,492.189606 641.456482,492.080933 640.055054,491.628601 
	C645.924988,486.749298 651.992432,482.498627 657.450195,477.572449 
	C660.793701,474.554626 663.202271,470.500977 666.030640,466.912506 
	C667.303894,466.621460 668.576965,466.078857 669.850342,466.077911 
	C684.073608,466.067139 698.296814,466.139984 713.017883,466.303101 
	C713.089050,467.677338 712.662354,468.938751 712.237549,470.545898 
z"/>
<path fill="#6442D8" opacity="1.000000" stroke="none" 
	d="
M157.820419,634.053101 
	C157.234497,633.397156 156.648575,632.741211 155.735596,632.005920 
	C155.557068,625.123108 155.682449,618.319031 155.880478,611.517090 
	C155.908356,610.559387 156.291290,609.612061 157.085419,608.332397 
	C159.394348,609.103516 161.524429,609.863892 162.796967,611.355774 
	C171.306976,621.332153 182.009445,627.603821 195.051575,627.817444 
	C212.554672,628.104248 225.791260,620.068298 234.378769,604.518127 
	C235.467224,602.547180 238.152802,601.458191 240.098450,599.960632 
	C241.805099,607.231689 243.511749,614.502747 245.286575,622.194092 
	C245.110138,623.595764 244.865524,624.577209 244.161652,625.571655 
	C240.473160,627.885010 237.147827,630.062744 234.030136,632.505554 
	C212.734528,649.191162 186.556931,650.445496 163.732697,635.940247 
	C162.044174,634.867065 159.804077,634.661804 157.820419,634.053101 
z"/>
<path fill="#6E4EDB" opacity="1.000000" stroke="none" 
	d="
M240.060577,599.611267 
	C238.152802,601.458191 235.467224,602.547180 234.378769,604.518127 
	C225.791260,620.068298 212.554672,628.104248 195.051575,627.817444 
	C182.009445,627.603821 171.306976,621.332153 162.796967,611.355774 
	C161.524429,609.863892 159.394348,609.103516 157.283722,607.997192 
	C158.704880,599.667603 163.250137,592.989380 170.003113,587.153625 
	C171.747253,588.443665 173.410507,589.661804 173.792770,591.198608 
	C176.414490,601.738708 188.341843,609.993713 198.488693,609.019592 
	C209.604584,607.952332 218.488037,599.124878 220.116608,587.652954 
	C220.406052,585.614075 222.165237,583.783936 223.245758,581.857361 
	C230.898697,585.672546 235.903915,592.039978 240.060577,599.611267 
z"/>
<path fill="#D7CEF7" opacity="1.000000" stroke="none" 
	d="
M645.359619,505.291138 
	C661.565002,505.242828 677.770325,505.194550 694.432251,505.187683 
	C694.268372,506.894562 693.648010,508.560028 693.056885,510.571228 
	C687.453186,518.479675 682.002991,526.188171 676.125793,533.556091 
	C671.894226,538.860962 667.093445,543.711792 662.231079,548.893555 
	C656.914001,549.001160 651.912476,548.980347 646.268494,548.619751 
	C645.537231,533.950439 645.448425,519.620789 645.359619,505.291138 
z"/>
<path fill="#785BDD" opacity="1.000000" stroke="none" 
	d="
M223.046173,581.584473 
	C222.165237,583.783936 220.406052,585.614075 220.116608,587.652954 
	C218.488037,599.124878 209.604584,607.952332 198.488693,609.019592 
	C188.341843,609.993713 176.414490,601.738708 173.792770,591.198608 
	C173.410507,589.661804 171.747253,588.443665 170.312958,587.028076 
	C170.535248,586.170410 171.121338,585.362732 171.834229,584.281860 
	C178.113556,581.339539 184.097519,578.136414 190.458740,576.128540 
	C199.628281,573.234192 208.752701,575.455078 218.066162,578.071594 
	C219.901001,579.164917 221.373795,580.238281 223.046173,581.584473 
z"/>
<path fill="#7555E0" opacity="1.000000" stroke="none" 
	d="
M649.740845,700.030334 
	C650.043396,708.413330 650.345886,716.796265 650.077759,725.608582 
	C643.331665,726.043701 637.156189,726.049438 630.543335,726.040161 
	C621.927429,726.274475 613.748962,726.523865 605.524780,726.329346 
	C605.378113,717.596130 605.277161,709.307007 605.571411,700.951233 
	C607.745422,700.589722 609.523132,700.048157 611.303406,700.039307 
	C624.115601,699.975769 636.928284,700.020203 649.740845,700.030334 
z"/>
<path fill="#8B70E8" opacity="1.000000" stroke="none" 
	d="
M383.327515,134.251801 
	C378.680420,134.869980 373.832733,134.692978 369.175110,135.549393 
	C358.893250,137.439926 350.743866,143.162064 343.649414,151.040924 
	C340.532013,140.352463 337.724518,129.577164 334.868042,118.394791 
	C347.426270,118.695541 357.504608,113.811516 365.738251,104.012054 
	C371.774536,113.892723 377.493835,123.909088 383.327515,134.251801 
z"/>
<path fill="#7D5FE3" opacity="1.000000" stroke="none" 
	d="
M680.019165,791.625305 
	C666.365417,799.995667 652.608154,808.058167 638.803284,816.038391 
	C637.264038,816.928101 635.454590,817.350342 633.119934,817.763062 
	C630.324951,811.027222 628.180481,804.517578 626.410522,798.000732 
	C636.017212,793.000854 645.390930,788.248108 654.425049,782.919556 
	C659.293884,780.047791 663.581116,776.189941 668.130737,772.776978 
	C672.054321,778.949036 675.977905,785.121155 680.019165,791.625305 
z"/>
<path fill="#8165E4" opacity="1.000000" stroke="none" 
	d="
M649.831543,699.591309 
	C636.928284,700.020203 624.115601,699.975769 611.303406,700.039307 
	C609.523132,700.048157 607.745422,700.589722 605.480225,700.505615 
	C604.638000,694.088074 604.282043,688.049561 603.926025,682.011047 
	C607.092407,681.007324 610.223572,679.297302 613.431946,679.137756 
	C621.708801,678.726196 630.021057,678.916199 638.316406,679.045044 
	C641.262024,679.090759 644.199707,679.653442 647.562866,679.990845 
	C648.630615,686.385132 649.276428,692.768677 649.831543,699.591309 
z"/>
<path fill="#EFEEEE" opacity="1.000000" stroke="none" 
	d="
M712.993652,391.524353 
	C707.289612,394.328339 701.586548,396.664459 695.460754,398.538635 
	C695.462952,388.480499 695.045715,379.064209 689.102905,370.503693 
	C687.976257,368.855103 686.958801,367.507812 685.941345,366.160522 
	C686.743164,365.388702 687.441162,364.451721 688.363770,363.872040 
	C694.167603,360.225525 699.984253,356.595795 705.882690,353.105865 
	C707.502747,352.147369 709.416626,351.685486 711.577881,350.991028 
	C712.304932,364.343079 712.649780,377.699768 712.993652,391.524353 
z"/>
<path fill="#7555E0" opacity="1.000000" stroke="none" 
	d="
M668.056396,772.438721 
	C663.581116,776.189941 659.293884,780.047791 654.425049,782.919556 
	C645.390930,788.248108 636.017212,793.000854 626.247803,797.666504 
	C624.466431,792.569031 623.222229,787.798462 622.133972,782.722717 
	C627.083984,779.566956 631.901550,776.754883 636.667053,773.857117 
	C644.767212,768.931396 652.834595,763.951721 660.915833,758.994751 
	C663.271240,763.363342 665.626648,767.731934 668.056396,772.438721 
z"/>
<path fill="#7D5FE3" opacity="1.000000" stroke="none" 
	d="
M377.906097,691.395508 
	C391.141632,693.325745 404.262634,695.638611 417.378082,697.982788 
	C418.835724,698.243286 420.261688,698.681152 422.071808,699.504272 
	C421.647522,705.984314 420.853790,711.996887 419.733429,717.856934 
	C416.530090,716.608093 413.738434,715.088257 410.761658,714.490356 
	C399.156799,712.159607 387.493286,710.120972 375.851593,707.973694 
	C376.497711,702.578247 377.143829,697.182861 377.906097,691.395508 
z"/>
<path fill="#6C4CDE" opacity="1.000000" stroke="none" 
	d="
M660.872253,758.645386 
	C652.834595,763.951721 644.767212,768.931396 636.667053,773.857117 
	C631.901550,776.754883 627.083984,779.566956 621.856445,782.479614 
	C620.275085,777.026245 619.127014,771.510864 618.300476,765.859497 
	C630.701050,758.811829 642.780029,751.900085 654.859009,744.988342 
	C656.848938,749.424194 658.838806,753.860107 660.872253,758.645386 
z"/>
<path fill="#6E4EDB" opacity="1.000000" stroke="none" 
	d="
M375.665833,708.329468 
	C387.493286,710.120972 399.156799,712.159607 410.761658,714.490356 
	C413.738434,715.088257 416.530090,716.608093 419.772339,718.263184 
	C419.874359,720.912903 419.610809,723.003845 418.889984,725.066711 
	C416.616394,725.032776 414.800049,725.026917 412.983734,725.021057 
	C400.251465,725.006958 387.519196,724.992798 374.304199,724.963440 
	C374.374329,719.527222 374.927216,714.106262 375.665833,708.329468 
z"/>
<path fill="#603ED8" opacity="1.000000" stroke="none" 
	d="
M654.837036,744.620728 
	C642.780029,751.900085 630.701050,758.811829 618.018005,765.595520 
	C616.937439,761.311218 616.460815,757.154968 616.290771,752.852356 
	C628.076782,745.804504 639.556213,738.902954 651.035645,732.001343 
	C652.295410,736.085266 653.555237,740.169128 654.837036,744.620728 
z"/>
<path fill="#5B37D6" opacity="1.000000" stroke="none" 
	d="
M651.066895,731.572754 
	C639.556213,738.902954 628.076782,745.804504 616.005249,752.576294 
	C615.070435,750.192139 614.892944,747.896973 614.348816,745.692200 
	C613.378418,741.760437 613.883911,738.635437 617.903198,736.626099 
	C621.131470,735.012268 624.395996,733.348145 627.277588,731.211609 
	C628.896423,730.011230 629.770935,727.807129 630.980774,726.055176 
	C637.156189,726.049438 643.331665,726.043701 649.925781,726.054688 
	C650.595764,727.762390 650.846924,729.453186 651.066895,731.572754 
z"/>
<path fill="#EFEEEE" opacity="1.000000" stroke="none" 
	d="
M712.998474,399.567108 
	C712.812988,398.161285 712.628479,396.327942 712.719849,394.251282 
	C712.997009,395.718475 712.998230,397.429047 712.998474,399.567108 
z"/>
<path fill="#FFFFFF" opacity="1.000000" stroke="none" 
	d="
M419.347260,725.094727 
	C419.610809,723.003845 419.874359,720.912903 420.098969,718.415771 
	C420.853790,711.996887 421.647522,705.984314 422.503967,699.524963 
	C425.037415,679.639771 427.498810,660.200134 429.983429,640.763489 
	C430.952423,633.183044 431.973419,625.609314 433.019775,617.632080 
	C444.840179,619.107971 456.549713,621.693176 468.394562,622.726501 
	C502.596893,625.710327 535.969238,621.195862 568.401001,609.910706 
	C573.723633,608.058655 578.961609,605.963501 584.619934,603.986450 
	C589.816406,620.911987 594.986023,637.741943 599.298828,654.788757 
	C601.488159,663.442444 602.133179,672.486877 603.701233,681.682861 
	C604.282043,688.049561 604.638000,694.088074 605.085083,700.572205 
	C605.277161,709.307007 605.378113,717.596130 605.377319,726.719604 
	C604.929138,732.850830 604.592163,738.148376 604.234497,743.444580 
	C602.692261,766.280945 601.143982,789.116943 599.597839,811.953064 
	C564.406189,811.302307 529.216614,810.426758 494.021942,810.093750 
	C475.932129,809.922485 457.833130,810.718872 439.031555,810.851379 
	C436.149048,805.413513 433.973267,800.202332 431.800354,794.624512 
	C430.208221,789.505920 428.613312,784.753845 427.024200,779.608521 
	C425.787720,774.459045 424.545441,769.702881 423.281494,764.516602 
	C422.153687,757.389160 421.047577,750.691833 420.003998,743.542603 
	C419.826782,737.092102 419.587036,731.093445 419.347260,725.094727 
z"/>
<path fill="#532DD5" opacity="1.000000" stroke="none" 
	d="
M599.681152,812.366455 
	C601.143982,789.116943 602.692261,766.280945 604.234497,743.444580 
	C604.592163,738.148376 604.929138,732.850830 605.423096,727.163574 
	C613.748962,726.523865 621.927429,726.274475 630.543335,726.040161 
	C629.770935,727.807129 628.896423,730.011230 627.277588,731.211609 
	C624.395996,733.348145 621.131470,735.012268 617.903198,736.626099 
	C613.883911,738.635437 613.378418,741.760437 614.348816,745.692200 
	C614.892944,747.896973 615.070435,750.192139 615.698730,752.722656 
	C616.460815,757.154968 616.937439,761.311218 617.696472,765.731445 
	C619.127014,771.510864 620.275085,777.026245 621.700562,782.784790 
	C623.222229,787.798462 624.466431,792.569031 625.873352,797.673828 
	C628.180481,804.517578 630.324951,811.027222 632.744629,817.768188 
	C640.126770,836.283325 647.040710,854.605530 660.061707,869.883606 
	C665.875122,876.704773 665.368530,885.284424 664.630737,893.715515 
	C664.182556,898.837036 663.858948,904.037903 664.280273,909.136902 
	C664.476807,911.514526 666.574829,913.734985 667.828491,916.359863 
	C646.362976,916.796692 624.879944,916.959045 603.396912,916.968750 
	C596.884521,916.971680 593.234802,912.949951 593.651367,906.448242 
	C595.652039,875.223022 597.720276,844.002197 599.681152,812.366455 
z"/>
<path fill="#896EE7" opacity="1.000000" stroke="none" 
	d="
M431.797516,794.991089 
	C433.973267,800.202332 436.149048,805.413513 438.550171,810.887817 
	C446.992645,830.203552 458.285583,847.200806 472.730072,862.110352 
	C475.597321,865.069885 478.292877,868.195801 480.656799,871.609619 
	C475.495331,871.984436 470.744598,871.994629 465.527618,872.004517 
	C460.036011,872.010559 455.010681,872.017029 449.518250,872.017700 
	C422.028381,872.334229 395.005646,872.656616 367.651306,872.832397 
	C365.912262,872.438538 364.504852,872.191345 363.097443,871.944153 
	C364.192627,857.485596 365.287842,843.026978 367.029785,828.272095 
	C369.526154,827.283936 371.475220,826.781677 373.210175,825.871338 
	C392.758270,815.614075 412.273468,805.294128 431.797516,794.991089 
z"/>
<path fill="#8165E4" opacity="1.000000" stroke="none" 
	d="
M465.993896,872.004883 
	C470.744598,871.994629 475.495331,871.984436 480.732178,871.949646 
	C481.793793,874.345886 482.369263,876.766724 482.533081,879.597290 
	C481.105377,880.944458 479.804230,881.709290 479.116791,882.845459 
	C471.156464,896.002014 461.781555,907.691589 447.431946,914.456421 
	C446.729492,914.787598 446.460327,916.037964 445.989410,916.860291 
	C418.224396,917.145508 390.459351,917.430725 362.228394,917.550598 
	C358.026886,912.624512 358.494354,907.368347 359.818451,901.942566 
	C360.637329,898.586975 361.195251,895.167725 362.275574,891.422119 
	C364.710754,892.467773 366.848602,893.736145 368.752991,895.290466 
	C380.959839,905.253174 395.338043,910.208496 410.652100,909.686035 
	C429.591827,909.039795 445.991821,901.089355 458.171021,886.113525 
	C461.511169,882.006348 463.425323,876.739502 465.993896,872.004883 
z"/>
<path fill="#7D5FE3" opacity="1.000000" stroke="none" 
	d="
M755.048828,895.536865 
	C747.132568,897.662109 739.284790,900.567383 731.390137,900.700562 
	C718.922363,900.910828 706.614685,898.170105 695.946716,891.186401 
	C690.044128,887.322205 684.805603,882.420288 679.413147,877.815857 
	C678.002686,876.611572 677.135803,874.770752 675.137573,871.999329 
	C682.657898,871.999329 688.862610,871.999329 695.570312,872.351440 
	C696.615845,873.514343 696.986938,874.558716 697.726257,875.101318 
	C710.205688,884.259277 724.088379,887.912292 739.426086,885.298096 
	C744.614197,884.413757 749.729858,883.103821 754.878601,881.988403 
	C754.951111,886.350159 755.023621,890.711853 755.048828,895.536865 
z"/>
<path fill="#7555E0" opacity="1.000000" stroke="none" 
	d="
M754.931152,881.546265 
	C749.729858,883.103821 744.614197,884.413757 739.426086,885.298096 
	C724.088379,887.912292 710.205688,884.259277 697.726257,875.101318 
	C696.986938,874.558716 696.615845,873.514343 696.039062,872.355469 
	C715.072510,871.991577 734.140198,871.975769 753.691467,871.937866 
	C754.444702,874.978638 754.714233,878.041382 754.931152,881.546265 
z"/>
<path fill="#896EE7" opacity="1.000000" stroke="none" 
	d="
M446.454956,916.927490 
	C446.460327,916.037964 446.729492,914.787598 447.431946,914.456421 
	C461.781555,907.691589 471.156464,896.002014 479.116791,882.845459 
	C479.804230,881.709290 481.105377,880.944458 482.471863,879.994263 
	C481.074493,890.220398 479.645752,900.529297 477.423950,910.664368 
	C476.519287,914.791016 472.886841,917.026550 468.328796,917.005737 
	C461.192810,916.973206 454.056610,916.995544 446.454956,916.927490 
z"/>
<path fill="#522DD4" opacity="1.000000" stroke="none" 
	d="
M645.259766,504.812805 
	C645.448425,519.620789 645.537231,533.950439 645.801636,548.658203 
	C645.800415,561.938721 645.800415,561.940430 632.615417,561.951477 
	C612.808960,561.968079 593.002441,561.982178 573.195984,561.997009 
	C571.396484,561.998352 569.596985,561.997192 566.946289,561.997192 
	C566.946289,557.631409 566.946289,553.710022 566.899414,549.312683 
	C566.829041,534.618530 566.805542,520.400269 566.802490,505.258301 
	C566.822998,500.420898 566.822998,496.507263 566.822998,492.018555 
	C578.482117,492.018555 589.242188,492.018555 600.470276,492.041779 
	C613.957336,492.034088 626.976379,492.003174 639.995422,491.972260 
	C641.456482,492.080933 642.917542,492.189606 645.159973,492.356384 
	C645.159973,496.476715 645.159973,500.405579 645.259766,504.812805 
M601.603577,533.704468 
	C601.605835,528.707336 601.688049,523.707642 601.533264,518.715393 
	C601.506836,517.864807 600.465515,517.045593 599.893066,516.211914 
	C599.347107,517.075134 598.382935,517.913757 598.330261,518.806152 
	C598.139648,522.035828 598.255188,525.283569 598.255188,528.524536 
	C595.672607,526.360962 594.221985,523.822632 592.483582,521.499634 
	C590.796326,519.244995 590.357849,515.038391 585.259949,516.755798 
	C585.259949,521.985413 585.174255,527.280518 585.331970,532.568359 
	C585.363647,533.629578 586.321228,534.663086 586.851807,535.709412 
	C587.477844,534.590332 588.544128,533.509033 588.643921,532.344849 
	C588.900940,529.348572 588.729919,526.315613 588.729919,523.297302 
	C592.113831,526.604919 594.307617,530.084229 596.590088,533.504333 
	C597.849854,535.392029 599.237061,537.285645 601.603577,533.704468 
M613.240967,519.176636 
	C614.027710,518.749634 614.814453,518.322632 615.601196,517.895630 
	C614.978577,517.299133 614.391724,516.239136 613.727112,516.187988 
	C611.125854,515.987793 608.500183,516.106140 605.611816,516.106140 
	C605.611816,522.843201 605.611816,529.064392 605.611816,535.836304 
	C608.402710,535.836304 610.861145,535.974304 613.289856,535.765808 
	C614.211121,535.686707 615.063782,534.809631 615.947754,534.296326 
	C614.986816,533.684143 614.096008,532.847839 613.046326,532.518982 
	C611.850708,532.144470 610.513306,532.222717 608.815979,532.065002 
	C608.965820,530.403870 609.087158,529.059082 609.145325,528.414062 
	C611.560059,527.448914 613.274353,526.763672 614.988708,526.078491 
	C613.176392,525.132568 611.364075,524.186646 608.939331,522.921021 
	C608.280029,520.750183 608.605774,518.789551 613.240967,519.176636 
M625.812317,530.270325 
	C625.812317,526.673401 625.812317,523.076416 625.812317,519.703064 
	C628.014282,519.143982 629.565979,518.750000 631.891296,518.159607 
	C627.169434,515.138306 619.176147,515.497009 616.831909,518.484863 
	C618.642334,518.922668 620.285095,519.319885 622.215027,519.786560 
	C622.215027,523.708984 622.040161,527.531311 622.301819,531.323486 
	C622.405151,532.820801 623.480896,534.250916 624.113831,535.711670 
	C624.681885,534.203064 625.250000,532.694519 625.812317,530.270325 
z"/>
<path fill="#522DD4" opacity="1.000000" stroke="none" 
	d="
M318.321899,449.125244 
	C311.219513,442.212067 305.327026,434.696381 303.986450,424.988953 
	C303.122711,418.734436 303.890320,412.254639 303.917236,405.458221 
	C304.087830,404.463684 304.268036,403.886688 304.980774,403.341156 
	C308.923767,411.789581 311.856140,420.228058 319.019104,426.765869 
	C330.213531,436.983215 350.363892,439.752075 362.978577,431.311920 
	C374.518799,423.590729 381.610962,413.149780 381.099152,398.523956 
	C381.012512,396.048920 382.214844,393.528748 383.006714,391.334839 
	C388.777863,400.643768 391.612335,410.310455 390.181366,421.387146 
	C388.716980,426.505463 387.335144,431.221802 385.692932,436.149811 
	C380.939514,441.540131 376.446411,446.718781 371.953308,451.897430 
	C364.496490,455.929718 356.971954,459.094055 348.102295,459.215790 
	C336.904327,459.369537 327.325684,455.927246 318.321899,449.125244 
z"/>
<path fill="#5B37D6" opacity="1.000000" stroke="none" 
	d="
M382.821655,391.029449 
	C382.214844,393.528748 381.012512,396.048920 381.099152,398.523956 
	C381.610962,413.149780 374.518799,423.590729 362.978577,431.311920 
	C350.363892,439.752075 330.213531,436.983215 319.019104,426.765869 
	C311.856140,420.228058 308.923767,411.789581 305.220673,403.154053 
	C306.809540,394.944366 311.228760,388.559906 317.949005,383.350098 
	C318.254974,384.821198 318.101013,386.245270 317.707489,387.599731 
	C314.586914,398.340546 314.582397,408.620575 322.240173,417.702026 
	C329.982880,426.884186 340.485626,429.086670 351.259308,426.523987 
	C370.925415,421.846191 379.751953,397.801331 365.570221,380.041687 
	C364.572540,378.792297 363.852631,377.321014 363.003540,375.952942 
	C364.421997,376.283508 365.840454,376.614105 367.775452,377.296692 
	C371.843262,380.149963 375.394501,382.651276 379.096680,385.432312 
	C380.438934,387.484497 381.630310,389.256989 382.821655,391.029449 
z"/>
<path fill="#6442D8" opacity="1.000000" stroke="none" 
	d="
M362.835632,375.690857 
	C363.852631,377.321014 364.572540,378.792297 365.570221,380.041687 
	C379.751953,397.801331 370.925415,421.846191 351.259308,426.523987 
	C340.485626,429.086670 329.982880,426.884186 322.240173,417.702026 
	C314.582397,408.620575 314.586914,398.340546 317.707489,387.599731 
	C318.101013,386.245270 318.254974,384.821198 318.246735,383.198914 
	C321.884186,380.185913 325.794861,377.403442 329.863953,374.316376 
	C333.415466,373.345947 336.808533,372.680115 340.604431,371.984253 
	C344.698456,371.967468 348.389587,371.980743 352.924316,372.006714 
	C355.511932,372.346283 357.255981,372.673157 359.000000,373.000000 
	C360.222565,373.809570 361.445129,374.619171 362.835632,375.690857 
M338.047150,379.131653 
	C328.295715,383.494843 321.899811,392.400604 323.083771,400.340973 
	C324.821930,411.998138 334.056061,421.730713 348.495544,419.034760 
	C362.264130,416.464050 369.219940,398.272400 360.713287,387.158081 
	C355.043701,379.750458 347.703796,377.509094 338.047150,379.131653 
z"/>
<path fill="#8F77E3" opacity="1.000000" stroke="none" 
	d="
M385.953308,435.938141 
	C387.335144,431.221802 388.716980,426.505463 390.539917,421.391876 
	C392.428619,421.857086 394.213654,422.423584 395.270844,423.628571 
	C404.125305,433.721710 411.976379,444.893188 421.855286,453.833099 
	C431.465485,462.529846 442.458557,470.269226 454.016266,476.110229 
	C471.630249,485.011963 490.311951,491.070709 510.524963,492.383606 
	C524.744019,493.307159 538.787476,493.024841 552.576538,490.429749 
	C571.430481,486.881439 589.265198,479.981171 605.586121,469.638214 
	C606.651855,468.962830 607.195312,467.463501 607.981750,466.347412 
	C616.353149,466.524719 624.724548,466.702026 633.518799,467.250519 
	C626.625427,473.082306 619.357361,478.609161 611.973389,483.976440 
	C608.087524,486.800995 603.999146,489.346802 600.002258,492.018555 
	C589.242188,492.018555 578.482117,492.018555 566.822998,492.018555 
	C566.822998,496.507263 566.822998,500.420898 566.723877,504.815674 
	C537.061340,505.225464 507.498016,505.154175 477.465942,504.650085 
	C477.192474,499.775055 473.187225,500.026611 470.769318,499.224243 
	C454.609070,493.861908 439.796722,485.907990 425.843414,476.307587 
	C409.996094,465.403900 397.143707,451.476471 385.953308,435.938141 
z"/>
<path fill="#886FE2" opacity="1.000000" stroke="none" 
	d="
M385.692963,436.149811 
	C397.143707,451.476471 409.996094,465.403900 425.843414,476.307587 
	C439.796722,485.907990 454.609070,493.861908 470.769318,499.224243 
	C473.187225,500.026611 477.192474,499.775055 476.998627,504.610107 
	C459.311310,505.034180 441.622589,505.065460 423.467072,505.049927 
	C421.737976,502.925018 420.958221,500.168182 419.138336,498.874298 
	C402.006378,486.693970 386.385834,472.954071 373.658844,456.118378 
	C372.901123,455.116028 372.538330,453.815125 371.972534,452.275299 
	C376.446411,446.718781 380.939514,441.540131 385.692963,436.149811 
z"/>
<path fill="#8B72E2" opacity="1.000000" stroke="none" 
	d="
M359.000000,372.556396 
	C357.255981,372.673157 355.511932,372.346283 353.384827,371.993042 
	C351.667999,363.558044 349.511932,355.183807 349.159058,346.734253 
	C348.209686,324.000946 351.607300,301.787506 359.374084,280.330780 
	C366.448853,260.785950 376.883636,243.193481 390.212372,227.258865 
	C408.027771,205.960464 429.858978,189.973389 455.232788,179.043732 
	C469.507751,172.894867 484.354614,168.101120 500.072723,166.968491 
	C509.810486,166.266815 519.564636,164.987061 529.293762,165.134583 
	C551.569580,165.472336 572.736084,170.958557 593.324402,179.528687 
	C617.993835,189.797668 638.183533,205.919861 655.832703,225.460770 
	C668.944031,239.977371 679.277466,256.433319 685.745728,274.964539 
	C689.828735,286.661957 693.644531,298.568878 696.095032,310.682251 
	C697.967957,319.941223 697.512512,329.671234 698.055908,339.563782 
	C695.900574,339.935852 693.782043,339.935852 691.759705,339.935852 
	C690.811096,331.206909 690.249939,322.968994 688.941772,314.851501 
	C687.575745,306.374359 686.444824,297.660309 683.495850,289.683990 
	C679.083862,277.750885 673.958130,265.931427 667.740234,254.846542 
	C653.371216,229.230331 632.442322,209.812897 607.411011,194.762344 
	C591.463501,185.173660 573.951294,179.019211 555.921814,175.436600 
	C536.867554,171.650345 517.438782,171.990463 497.993439,174.649445 
	C481.302246,176.931793 465.717743,182.294098 450.707672,189.303223 
	C434.699341,196.778503 420.616333,207.222778 407.788422,219.521301 
	C386.304840,240.118301 371.278351,264.586700 363.042023,293.032867 
	C360.026520,303.447693 358.847321,314.407349 357.026489,325.151703 
	C354.607819,339.424042 356.796417,353.525909 358.907654,367.620087 
	C359.127747,369.089294 358.978088,370.613861 359.000000,372.556396 
z"/>
<path fill="#5B37D6" opacity="1.000000" stroke="none" 
	d="
M157.867706,634.439514 
	C159.804077,634.661804 162.044174,634.867065 163.732697,635.940247 
	C186.556931,650.445496 212.734528,649.191162 234.030136,632.505554 
	C237.147827,630.062744 240.473160,627.885010 243.900208,625.843201 
	C243.640198,642.057983 230.385971,657.769043 212.771515,663.234985 
	C191.955154,669.694519 167.956573,658.929688 159.066574,639.093445 
	C158.471481,637.765564 158.289261,636.252747 157.867706,634.439514 
z"/>
<path fill="#9179E4" opacity="1.000000" stroke="none" 
	d="
M378.945740,385.152557 
	C375.394501,382.651276 371.843262,380.149963 368.140442,377.343201 
	C366.959686,368.843445 365.406250,360.672852 365.033630,352.448761 
	C364.563141,342.065552 364.311249,331.567169 365.303406,321.247131 
	C366.867126,304.981873 371.750946,289.473907 378.637665,274.614868 
	C390.068176,249.951828 405.992432,229.151016 428.049042,212.737289 
	C446.236847,199.202591 466.191284,190.105011 487.829773,184.331589 
	C494.338715,182.594925 501.180664,181.145828 507.857910,181.195557 
	C522.903137,181.307617 537.860779,180.498215 553.017090,183.425278 
	C570.739136,186.847839 587.262146,192.593796 602.663513,201.467758 
	C624.182739,213.866699 642.415466,229.948273 656.147766,251.036438 
	C669.599670,271.694000 678.372803,293.987518 681.788025,318.330444 
	C682.774658,325.363159 682.632141,332.554291 683.015808,340.093872 
	C680.645020,340.591736 678.265686,340.668488 675.446655,340.214294 
	C674.674744,333.564972 674.544189,327.427765 673.972595,321.331909 
	C672.246582,302.924286 666.402100,285.664520 657.811707,269.477631 
	C649.231079,253.308899 638.374695,238.873444 624.387695,226.609024 
	C606.815979,211.201416 586.803711,200.719238 564.711731,194.070312 
	C547.484131,188.885391 529.798279,186.342148 511.755219,189.029587 
	C502.139099,190.461884 492.414276,191.613632 483.022888,194.007584 
	C465.965668,198.355652 450.416046,206.329437 436.069061,216.440201 
	C424.231598,224.782455 414.146240,234.944107 404.951111,246.254745 
	C389.365997,265.425507 380.179413,287.330170 375.037231,311.119751 
	C372.126526,324.585693 371.907654,338.320374 373.024292,352.043793 
	C373.412354,356.812622 373.813965,361.608368 374.687408,366.302856 
	C375.864868,372.631104 377.504456,378.873383 378.945740,385.152557 
z"/>
<path fill="#FEFDFE" opacity="1.000000" stroke="none" 
	d="
M555.690552,449.571228 
	C546.554749,449.662109 537.419128,449.815857 528.283203,449.831299 
	C506.000031,449.868988 483.716797,449.829895 461.433594,449.851105 
	C456.070679,449.856201 451.221954,448.668884 447.342957,443.840027 
	C446.774414,442.849243 446.432465,442.406311 446.055420,441.516754 
	C445.922302,438.388458 445.824310,435.706818 445.808838,432.560577 
	C445.909180,431.264252 445.950256,430.432312 445.941498,429.600861 
	C445.680176,404.819305 445.363007,380.038177 445.174774,355.256042 
	C445.104095,345.953461 449.754944,340.941345 458.583069,340.894562 
	C475.388458,340.805573 492.195007,340.932953 509.052429,341.319519 
	C513.868164,348.460236 517.955017,355.552216 518.799316,364.261108 
	C505.105194,375.606415 502.624146,402.371521 513.646973,417.967957 
	C520.917847,428.255768 531.305786,428.148804 538.161621,417.489441 
	C539.998657,414.633240 540.916321,411.185669 542.487305,407.716858 
	C543.307739,404.285370 543.896973,401.146545 544.823730,398.017029 
	C545.911133,398.325745 546.787109,398.466583 547.391968,398.948059 
	C558.063782,407.443329 567.940796,417.004944 580.404419,423.091553 
	C581.628906,423.689514 582.165344,425.696655 582.852844,427.336884 
	C573.686523,434.939758 564.688538,442.255493 555.690552,449.571228 
z"/>
<path fill="#9881E6" opacity="1.000000" stroke="none" 
	d="
M445.726318,433.025177 
	C445.824310,435.706818 445.922302,438.388458 445.810364,441.662415 
	C445.757843,442.852203 445.915222,443.449707 446.072571,444.047241 
	C446.057465,448.052612 446.042328,452.058014 445.696960,456.496887 
	C425.261841,444.173706 410.127045,426.825165 399.047119,405.944489 
	C390.729919,390.270233 385.960480,373.475403 383.854187,355.788116 
	C381.293518,334.285187 383.529907,313.331390 390.637512,293.068359 
	C398.093842,271.811096 410.123901,253.355713 426.621094,237.725891 
	C441.600494,223.534042 458.735535,213.170746 478.121979,206.503967 
	C497.009369,200.008804 516.332397,198.319885 536.386536,199.678848 
	C556.481567,201.040588 574.954285,207.090744 592.122681,216.394577 
	C615.265381,228.936005 633.559326,247.190842 646.640564,270.292328 
	C654.804016,284.708984 660.222961,300.193420 662.838440,316.484894 
	C664.103699,324.366180 663.675110,332.519379 664.013489,340.549469 
	C658.993347,340.623962 653.973145,340.698425 648.484192,340.255005 
	C647.952759,326.217651 645.715393,313.150330 641.304626,300.288971 
	C631.048828,270.384125 612.347229,247.555618 584.932556,232.049973 
	C569.978088,223.591766 554.075928,218.035812 536.581787,216.782822 
	C522.734131,215.790985 509.155579,215.671875 495.641846,219.033020 
	C462.377594,227.306534 436.268311,245.673706 418.175690,274.825592 
	C402.539490,300.019623 397.091034,327.587738 400.975769,356.955750 
	C404.435089,383.107666 415.381073,405.855713 433.346497,425.031342 
	C436.556824,428.457855 439.327057,433.957764 445.726318,433.025177 
z"/>
<path fill="#937CE4" opacity="1.000000" stroke="none" 
	d="
M664.459839,340.663513 
	C663.675110,332.519379 664.103699,324.366180 662.838440,316.484894 
	C660.222961,300.193420 654.804016,284.708984 646.640564,270.292328 
	C633.559326,247.190842 615.265381,228.936005 592.122681,216.394577 
	C574.954285,207.090744 556.481567,201.040588 536.386536,199.678848 
	C516.332397,198.319885 497.009369,200.008804 478.121979,206.503967 
	C458.735535,213.170746 441.600494,223.534042 426.621094,237.725891 
	C410.123901,253.355713 398.093842,271.811096 390.637512,293.068359 
	C383.529907,313.331390 381.293518,334.285187 383.854187,355.788116 
	C385.960480,373.475403 390.729919,390.270233 399.047119,405.944489 
	C410.127045,426.825165 425.261841,444.173706 445.725830,456.957825 
	C449.277924,463.037476 453.768524,466.959106 461.585083,466.571655 
	C462.856781,467.913605 463.518463,469.370850 464.531158,469.680603 
	C478.252808,473.877655 491.802643,479.861328 505.842743,481.452942 
	C520.286560,483.090363 535.421143,484.060120 549.943481,479.924438 
	C561.210266,476.715881 572.381836,473.164978 583.532288,469.569427 
	C584.581604,469.231049 585.175232,467.479889 585.980408,466.384674 
	C593.007141,466.311493 600.033936,466.238342 607.521240,466.256317 
	C607.195312,467.463501 606.651855,468.962830 605.586121,469.638214 
	C589.265198,479.981171 571.430481,486.881439 552.576538,490.429749 
	C538.787476,493.024841 524.744019,493.307159 510.524963,492.383606 
	C490.311951,491.070709 471.630249,485.011963 454.016266,476.110229 
	C442.458557,470.269226 431.465485,462.529846 421.855286,453.833099 
	C411.976379,444.893188 404.125305,433.721710 395.270844,423.628571 
	C394.213654,422.423584 392.428619,421.857086 390.622437,420.989929 
	C391.612335,410.310455 388.777863,400.643768 383.006714,391.334839 
	C381.630310,389.256989 380.438934,387.484497 379.096680,385.432312 
	C377.504456,378.873383 375.864868,372.631104 374.687408,366.302856 
	C373.813965,361.608368 373.412354,356.812622 373.024292,352.043793 
	C371.907654,338.320374 372.126526,324.585693 375.037231,311.119751 
	C380.179413,287.330170 389.365997,265.425507 404.951111,246.254745 
	C414.146240,234.944107 424.231598,224.782455 436.069061,216.440201 
	C450.416046,206.329437 465.965668,198.355652 483.022888,194.007584 
	C492.414276,191.613632 502.139099,190.461884 511.755219,189.029587 
	C529.798279,186.342148 547.484131,188.885391 564.711731,194.070312 
	C586.803711,200.719238 606.815979,211.201416 624.387695,226.609024 
	C638.374695,238.873444 649.231079,253.308899 657.811707,269.477631 
	C666.402100,285.664520 672.246582,302.924286 673.972595,321.331909 
	C674.544189,327.427765 674.674744,333.564972 675.015320,340.107422 
	C671.651123,340.613586 668.278625,340.695587 664.459839,340.663513 
z"/>
<path fill="#9F8AE7" opacity="1.000000" stroke="none" 
	d="
M556.166016,449.705200 
	C564.688538,442.255493 573.686523,434.939758 583.171814,427.215698 
	C590.771057,421.523865 597.883118,416.240417 605.400024,410.929352 
	C611.355835,408.977692 616.217957,410.132324 620.574280,414.026520 
	C621.649292,414.987488 623.069397,415.562439 624.330872,416.314850 
	C632.042358,422.753906 639.719543,429.234711 647.476990,435.617889 
	C652.952698,440.123596 658.537415,444.496887 664.202515,449.224518 
	C663.355164,449.681183 662.378662,449.984375 661.402405,449.983521 
	C626.482056,449.953064 591.561768,449.894104 556.166016,449.705200 
z"/>
<path fill="#9881E6" opacity="1.000000" stroke="none" 
	d="
M585.521423,466.286591 
	C585.175232,467.479889 584.581604,469.231049 583.532288,469.569427 
	C572.381836,473.164978 561.210266,476.715881 549.943481,479.924438 
	C535.421143,484.060120 520.286560,483.090363 505.842743,481.452942 
	C491.802643,479.861328 478.252808,473.877655 464.531158,469.680603 
	C463.518463,469.370850 462.856781,467.913605 462.024902,466.648254 
	C476.627441,466.238831 491.236908,466.120239 505.846466,466.114288 
	C532.251770,466.103546 558.657104,466.160065 585.521423,466.286591 
z"/>
<path fill="#886FE2" opacity="1.000000" stroke="none" 
	d="
M600.470276,492.041748 
	C603.999146,489.346802 608.087524,486.800995 611.973389,483.976440 
	C619.357361,478.609161 626.625427,473.082306 633.982422,467.265289 
	C644.377563,466.905731 654.731934,466.902588 665.558472,466.905975 
	C663.202271,470.500977 660.793701,474.554626 657.450195,477.572449 
	C651.992432,482.498627 645.924988,486.749298 640.055054,491.628601 
	C626.976379,492.003174 613.957336,492.034088 600.470276,492.041748 
z"/>
<path fill="#9F8AE7" opacity="1.000000" stroke="none" 
	d="
M446.335175,444.000488 
	C445.915222,443.449707 445.757843,442.852203 445.845490,442.109070 
	C446.432465,442.406311 446.774414,442.849243 447.120789,443.583191 
	C446.949402,443.900696 446.773560,443.927185 446.335175,444.000488 
z"/>
<path fill="#7758E1" opacity="1.000000" stroke="none" 
	d="
M465.527588,872.004517 
	C463.425323,876.739502 461.511169,882.006348 458.171021,886.113525 
	C445.991821,901.089355 429.591827,909.039795 410.652100,909.686035 
	C395.338043,910.208496 380.959839,905.253174 368.752991,895.290466 
	C366.848602,893.736145 364.710754,892.467773 362.328857,891.028503 
	C362.403534,884.876709 362.830200,878.763672 363.177155,872.297363 
	C364.504852,872.191345 365.912262,872.438538 367.661316,873.199951 
	C368.446960,874.748352 368.672119,875.967529 369.367126,876.789551 
	C384.058990,894.165344 407.070557,900.895630 428.595825,891.529480 
	C437.745026,887.548462 446.394165,882.394897 449.985352,872.023499 
	C455.010681,872.017029 460.036011,872.010559 465.527588,872.004517 
z"/>
<path fill="#8165E4" opacity="1.000000" stroke="none" 
	d="
M431.800354,794.624512 
	C412.273468,805.294128 392.758270,815.614075 373.210175,825.871338 
	C371.475220,826.781677 369.526154,827.283936 367.287659,827.961975 
	C367.587555,822.242615 368.276337,816.537109 369.348572,810.379639 
	C372.383850,808.569336 375.046234,807.231262 377.685669,805.849426 
	C394.132721,797.238892 410.574707,788.618774 427.018372,780.001831 
	C428.613312,784.753845 430.208221,789.505920 431.800354,794.624512 
z"/>
<path fill="#6C4CDE" opacity="1.000000" stroke="none" 
	d="
M419.941467,743.994446 
	C421.047577,750.691833 422.153687,757.389160 422.886902,764.533203 
	C414.177216,769.318726 405.906158,773.790344 397.485138,777.959106 
	C389.063965,782.127991 380.492798,785.993958 371.987366,789.992676 
	C372.996796,782.624512 374.006195,775.256348 375.377075,767.409241 
	C377.547760,766.091187 379.395874,765.326294 381.159973,764.401184 
	C394.096588,757.616943 407.016357,750.800598 419.941467,743.994446 
z"/>
<path fill="#7758E1" opacity="1.000000" stroke="none" 
	d="
M371.973755,790.400757 
	C380.492798,785.993958 389.063965,782.127991 397.485138,777.959106 
	C405.906158,773.790344 414.177216,769.318726 422.908569,764.963257 
	C424.545441,769.702881 425.787720,774.459045 427.024200,779.608521 
	C410.574707,788.618774 394.132721,797.238892 377.685669,805.849426 
	C375.046234,807.231262 372.383850,808.569336 369.374329,809.966675 
	C369.997772,803.606750 370.978943,797.207764 371.973755,790.400757 
z"/>
<path fill="#603ED8" opacity="1.000000" stroke="none" 
	d="
M420.003967,743.542603 
	C407.016357,750.800598 394.096588,757.616943 381.159973,764.401184 
	C379.395874,765.326294 377.547760,766.091187 375.381104,766.974670 
	C376.025208,761.334351 376.695221,755.560730 378.184692,750.006897 
	C378.817749,747.646240 380.721832,744.960876 382.814423,743.773560 
	C391.475739,738.859436 400.473969,734.542908 409.235077,729.797668 
	C410.764465,728.969299 411.748291,727.133545 412.983917,725.392090 
	C414.800049,725.026917 416.616394,725.032776 418.889984,725.066711 
	C419.587036,731.093445 419.826782,737.092102 420.003967,743.542603 
z"/>
<path fill="#9F8AE7" opacity="1.000000" stroke="none" 
	d="
M445.808838,432.560577 
	C439.327057,433.957764 436.556824,428.457855 433.346497,425.031342 
	C415.381073,405.855713 404.435089,383.107666 400.975769,356.955750 
	C397.091034,327.587738 402.539490,300.019623 418.175690,274.825592 
	C436.268311,245.673706 462.377594,227.306534 495.641846,219.033020 
	C509.155579,215.671875 522.734131,215.790985 536.581787,216.782822 
	C554.075928,218.035812 569.978088,223.591766 584.932556,232.049973 
	C612.347229,247.555618 631.048828,270.384125 641.304626,300.288971 
	C645.715393,313.150330 647.952759,326.217651 648.029785,340.160828 
	C629.674683,340.688599 611.305237,340.792603 592.000732,340.901917 
	C580.710938,340.929443 570.356140,340.951569 559.533813,340.935364 
	C551.044556,340.923370 543.022705,340.949677 534.533752,340.932617 
	C525.711426,340.916321 517.356262,340.943420 509.001068,340.970520 
	C492.195007,340.932953 475.388458,340.805573 458.583069,340.894562 
	C449.754944,340.941345 445.104095,345.953461 445.174774,355.256042 
	C445.363007,380.038177 445.680176,404.819305 445.941498,429.600861 
	C445.950256,430.432312 445.909180,431.264252 445.808838,432.560577 
z"/>
<path fill="#EFEEEE" opacity="1.000000" stroke="none" 
	d="
M560.001343,340.973694 
	C570.356140,340.951569 580.710938,340.929443 591.533447,340.941803 
	C598.894348,346.427216 605.485107,352.325043 612.743469,357.236084 
	C627.925232,367.508148 645.180664,370.399231 663.557678,370.346039 
	C658.975830,378.411377 657.835022,387.103851 657.078857,396.004517 
	C651.874207,395.673706 647.097656,395.376373 642.326965,395.003876 
	C627.517273,393.847473 614.027161,388.480255 601.203003,381.458038 
	C583.708984,371.878693 571.853516,356.388031 560.001343,340.973694 
z"/>
<path fill="#532DD5" opacity="1.000000" stroke="none" 
	d="
M657.509705,396.003632 
	C657.835022,387.103851 658.975830,378.411377 664.031982,370.345825 
	C672.342102,361.241241 677.191406,360.291046 685.626709,366.003784 
	C686.958801,367.507812 687.976257,368.855103 688.881104,370.820068 
	C687.230591,371.953522 685.726807,372.638184 684.149048,372.957092 
	C675.378845,374.729553 669.150818,384.921143 671.685425,393.471069 
	C674.592529,403.277710 680.512512,407.043213 692.951538,406.997803 
	C690.070129,412.061890 688.067993,417.999634 684.104553,421.988586 
	C677.904236,428.228851 670.279358,426.000519 663.303345,416.784790 
	C659.663696,409.900421 657.357483,403.281494 657.509705,396.003632 
z"/>
<path fill="#603ED8" opacity="1.000000" stroke="none" 
	d="
M824.267578,577.233276 
	C815.065063,586.341736 804.287903,589.343140 792.472595,585.491333 
	C781.069946,581.774048 774.185547,573.415649 771.952393,561.346558 
	C769.156067,546.234070 779.698730,532.310852 790.715759,528.196167 
	C804.657898,522.989014 819.596741,527.742981 827.392029,539.995728 
	C834.777588,551.604187 833.599487,566.794495 824.267578,577.233276 
M804.139099,534.035950 
	C791.519714,533.940369 781.420105,541.418945 780.039612,551.881287 
	C778.267517,565.311646 784.361389,574.890747 796.947815,578.459534 
	C804.109436,580.490173 815.109070,576.822754 819.405029,570.971924 
	C824.846069,563.561340 825.541077,552.624268 821.470825,545.690674 
	C817.677612,539.229187 812.134949,535.628052 804.139099,534.035950 
z"/>
<path fill="#F5F4F4" opacity="1.000000" stroke="none" 
	d="
M657.078857,396.004517 
	C657.357483,403.281494 659.663696,409.900421 663.019226,416.610504 
	C655.910034,417.085510 648.717651,417.395966 641.532715,417.272369 
	C636.132019,417.179535 630.740967,416.529388 624.838257,416.221100 
	C623.069397,415.562439 621.649292,414.987488 620.574280,414.026520 
	C616.217957,410.132324 611.355835,408.977692 605.360962,410.576904 
	C603.933350,409.207397 603.124634,407.865356 601.937439,407.166565 
	C594.553101,402.820251 586.911621,398.890625 579.675598,394.316376 
	C559.127625,381.327148 546.522339,361.582092 535.000916,340.975983 
	C543.022705,340.949677 551.044556,340.923370 559.533813,340.935364 
	C571.853516,356.388031 583.708984,371.878693 601.203003,381.458038 
	C614.027161,388.480255 627.517273,393.847473 642.326965,395.003876 
	C647.097656,395.376373 651.874207,395.673706 657.078857,396.004517 
z"/>
<path fill="#8065E0" opacity="1.000000" stroke="none" 
	d="
M693.230652,406.746063 
	C680.512512,407.043213 674.592529,403.277710 671.685425,393.471069 
	C669.150818,384.921143 675.378845,374.729553 684.149048,372.957092 
	C685.726807,372.638184 687.230591,371.953522 688.990295,371.121368 
	C695.045715,379.064209 695.462952,388.480499 695.068848,398.543274 
	C694.569702,401.504669 694.039734,403.999512 693.230652,406.746063 
z"/>
<path fill="#6C4CDE" opacity="1.000000" stroke="none" 
	d="
M449.518250,872.017700 
	C446.394165,882.394897 437.745026,887.548462 428.595825,891.529480 
	C407.070557,900.895630 384.058990,894.165344 369.367126,876.789551 
	C368.672119,875.967529 368.446960,874.748352 367.992920,873.346558 
	C395.005646,872.656616 422.028381,872.334229 449.518250,872.017700 
z"/>
<path fill="#DFD8F7" opacity="1.000000" stroke="none" 
	d="
M601.555908,534.106812 
	C599.237061,537.285645 597.849854,535.392029 596.590088,533.504333 
	C594.307617,530.084229 592.113831,526.604919 588.729919,523.297302 
	C588.729919,526.315613 588.900940,529.348572 588.643921,532.344849 
	C588.544128,533.509033 587.477844,534.590332 586.851807,535.709412 
	C586.321228,534.663086 585.363647,533.629578 585.331970,532.568359 
	C585.174255,527.280518 585.259949,521.985413 585.259949,516.755798 
	C590.357849,515.038391 590.796326,519.244995 592.483582,521.499634 
	C594.221985,523.822632 595.672607,526.360962 598.255188,528.524536 
	C598.255188,525.283569 598.139648,522.035828 598.330261,518.806152 
	C598.382935,517.913757 599.347107,517.075134 599.893066,516.211914 
	C600.465515,517.045593 601.506836,517.864807 601.533264,518.715393 
	C601.688049,523.707642 601.605835,528.707336 601.555908,534.106812 
z"/>
<path fill="#D8CFF7" opacity="1.000000" stroke="none" 
	d="
M612.812927,519.179688 
	C608.605774,518.789551 608.280029,520.750183 608.939331,522.921021 
	C611.364075,524.186646 613.176392,525.132568 614.988708,526.078491 
	C613.274353,526.763672 611.560059,527.448914 609.145325,528.414062 
	C609.087158,529.059082 608.965820,530.403870 608.815979,532.065002 
	C610.513306,532.222717 611.850708,532.144470 613.046326,532.518982 
	C614.096008,532.847839 614.986816,533.684143 615.947754,534.296326 
	C615.063782,534.809631 614.211121,535.686707 613.289856,535.765808 
	C610.861145,535.974304 608.402710,535.836304 605.611816,535.836304 
	C605.611816,529.064392 605.611816,522.843201 605.611816,516.106140 
	C608.500183,516.106140 611.125854,515.987793 613.727112,516.187988 
	C614.391724,516.239136 614.978577,517.299133 615.601196,517.895630 
	C614.814453,518.322632 614.027710,518.749634 612.812927,519.179688 
z"/>
<path fill="#DFD8F7" opacity="1.000000" stroke="none" 
	d="
M625.815186,530.728149 
	C625.250000,532.694519 624.681885,534.203064 624.113831,535.711670 
	C623.480896,534.250916 622.405151,532.820801 622.301819,531.323486 
	C622.040161,527.531311 622.215027,523.708984 622.215027,519.786560 
	C620.285095,519.319885 618.642334,518.922668 616.831909,518.484863 
	C619.176147,515.497009 627.169434,515.138306 631.891296,518.159607 
	C629.565979,518.750000 628.014282,519.143982 625.812317,519.703064 
	C625.812317,523.076416 625.812317,526.673401 625.815186,530.728149 
z"/>
<path fill="#6E4EDB" opacity="1.000000" stroke="none" 
	d="
M338.444580,379.080322 
	C347.703796,377.509094 355.043701,379.750458 360.713287,387.158081 
	C369.219940,398.272400 362.264130,416.464050 348.495544,419.034760 
	C334.056061,421.730713 324.821930,411.998138 323.083771,400.340973 
	C321.899811,392.400604 328.295715,383.494843 338.444580,379.080322 
M355.251068,401.566528 
	C354.689392,398.461975 354.885803,394.924255 353.410217,392.341888 
	C350.214142,386.748657 343.312073,385.644989 337.781647,389.112183 
	C332.505371,392.420013 330.770691,399.342346 333.876221,404.718048 
	C336.130005,408.619385 339.650604,411.129089 343.997772,410.815216 
	C349.183624,410.440826 353.562744,408.006226 355.251068,401.566528 
z"/>
<path fill="#F9F8F9" opacity="1.000000" stroke="none" 
	d="
M534.533752,340.932617 
	C546.522339,361.582092 559.127625,381.327148 579.675598,394.316376 
	C586.911621,398.890625 594.553101,402.820251 601.937439,407.166565 
	C603.124634,407.865356 603.933350,409.207397 604.956055,410.604523 
	C597.883118,416.240417 590.771057,421.523865 583.340088,426.928528 
	C582.165344,425.696655 581.628906,423.689514 580.404419,423.091553 
	C567.940796,417.004944 558.063782,407.443329 547.391968,398.948059 
	C546.787109,398.466583 545.911133,398.325745 544.757202,397.645203 
	C544.683716,388.192810 543.478760,379.482086 538.207764,371.381775 
	C532.494141,362.994507 528.010132,361.330078 518.998169,363.993195 
	C517.955017,355.552216 513.868164,348.460236 509.052429,341.319519 
	C517.356262,340.943420 525.711426,340.916321 534.533752,340.932617 
z"/>
<path fill="#532DD5" opacity="1.000000" stroke="none" 
	d="
M518.799316,364.261108 
	C528.010132,361.330078 532.494141,362.994507 537.970215,371.697357 
	C536.169861,372.930786 534.473755,373.563904 532.758667,374.140625 
	C521.153870,378.043030 516.907715,391.111084 524.073120,401.141205 
	C528.568542,407.433868 535.219177,408.299988 542.256042,408.009552 
	C540.916321,411.185669 539.998657,414.633240 538.161621,417.489441 
	C531.305786,428.148804 520.917847,428.255768 513.646973,417.967957 
	C502.624146,402.371521 505.105194,375.606415 518.799316,364.261108 
z"/>
<path fill="#8065E0" opacity="1.000000" stroke="none" 
	d="
M542.487305,407.716858 
	C535.219177,408.299988 528.568542,407.433868 524.073120,401.141205 
	C516.907715,391.111084 521.153870,378.043030 532.758667,374.140625 
	C534.473755,373.563904 536.169861,372.930786 538.112305,372.008179 
	C543.478760,379.482086 544.683716,388.192810 544.419678,397.635864 
	C543.896973,401.146545 543.307739,404.285370 542.487305,407.716858 
z"/>
<path fill="#6C4CDE" opacity="1.000000" stroke="none" 
	d="
M804.560303,534.092407 
	C812.134949,535.628052 817.677612,539.229187 821.470825,545.690674 
	C825.541077,552.624268 824.846069,563.561340 819.405029,570.971924 
	C815.109070,576.822754 804.109436,580.490173 796.947815,578.459534 
	C784.361389,574.890747 778.267517,565.311646 780.039612,551.881287 
	C781.420105,541.418945 791.519714,533.940369 804.560303,534.092407 
M804.007507,544.022400 
	C803.174683,544.015320 802.341736,543.994263 801.509094,544.003418 
	C795.499084,544.069580 790.636536,547.909180 789.266968,553.662964 
	C788.032837,558.848145 791.119202,565.372559 796.058533,568.019592 
	C800.540161,570.421265 807.538513,569.128479 811.189087,565.320007 
	C817.781738,558.442200 815.189575,546.819702 804.007507,544.022400 
z"/>
<path fill="#785BDD" opacity="1.000000" stroke="none" 
	d="
M355.148743,401.943939 
	C353.562744,408.006226 349.183624,410.440826 343.997772,410.815216 
	C339.650604,411.129089 336.130005,408.619385 333.876221,404.718048 
	C330.770691,399.342346 332.505371,392.420013 337.781647,389.112183 
	C343.312073,385.644989 350.214142,386.748657 353.410217,392.341888 
	C354.885803,394.924255 354.689392,398.461975 355.148743,401.943939 
z"/>
<path fill="#785BDD" opacity="1.000000" stroke="none" 
	d="
M804.418335,544.066101 
	C815.189575,546.819702 817.781738,558.442200 811.189087,565.320007 
	C807.538513,569.128479 800.540161,570.421265 796.058533,568.019592 
	C791.119202,565.372559 788.032837,558.848145 789.266968,553.662964 
	C790.636536,547.909180 795.499084,544.069580 801.509094,544.003418 
	C802.341736,543.994263 803.174683,544.015320 804.418335,544.066101 
z"/>
</svg>