<?xml version="1.0" encoding="UTF-8"?>
<svg xmlns="http://www.w3.org/2000/svg" xmlns:xlink="http://www.w3.org/1999/xlink" width="100px" height="60px" viewBox="0 0 768 768" version="1.1">
<g id="surface1">
<path style=" stroke:none;fill-rule:nonzero;fill:rgb(100%,100%,100%);fill-opacity:1;" d="M 0.75 270.75 C 0.75 180.5 0.75 90.625 0.75 0.75 C 256.75 0.75 512.75 0.75 768.75 0.75 C 768.75 256.75 768.75 512.75 768.75 768.75 C 512.75 768.75 256.75 768.75 0.75 768.75 C 0.75 602.875 0.75 437 0.75 270.75 M 488.324219 548.359375 C 488.136719 547.089844 487.945312 545.820312 487.988281 543.882812 C 487.757812 537.597656 487.53125 531.308594 487.441406 524.363281 C 486.957031 519.578125 486.472656 514.789062 486.054688 509.339844 C 484.773438 500.734375 483.765625 492.078125 482.148438 483.539062 C 479.082031 467.367188 474.539062 451.601562 468.238281 436.113281 C 477.636719 427.996094 487.035156 419.882812 496.910156 411.574219 C 500.320312 407.785156 503.921875 404.144531 507.09375 400.167969 C 511.503906 394.640625 515.589844 388.859375 520.238281 383.453125 C 524.984375 387.453125 529.410156 391.945312 534.550781 395.355469 C 545.910156 402.882812 557.628906 409.863281 569.34375 417.65625 C 570.027344 420.667969 570.503906 423.742188 571.433594 426.675781 C 573.941406 434.570312 579.894531 439.582031 586.515625 444.550781 C 591.144531 450.90625 595.847656 457.214844 600.386719 463.636719 C 604.082031 468.867188 608.917969 471.867188 615.363281 470.835938 C 621.871094 469.789062 626.027344 465.730469 627.738281 459.28125 C 627.824219 458.957031 628.097656 458.679688 628.457031 458.113281 C 630.992188 459.5 633.464844 460.90625 635.984375 462.222656 C 641.003906 464.847656 646.132812 464.980469 650.996094 462.0625 C 656.027344 459.046875 658.191406 454.40625 657.925781 448.476562 C 657.699219 443.480469 654.921875 440.03125 651.371094 436.867188 C 657.796875 434.410156 660.703125 431.929688 662.359375 427.628906 C 665.621094 419.164062 661.324219 410.632812 652.320312 407.886719 C 645.933594 405.9375 639.503906 404.125 633.089844 402.25 C 637.605469 399.632812 642.164062 398.003906 646.527344 395.960938 C 651.378906 393.683594 654.351562 389.765625 654.722656 384.300781 C 655.492188 372.914062 645.398438 365.539062 634.394531 369.527344 C 624.894531 372.972656 615.476562 376.648438 606.054688 380.304688 C 602.496094 381.6875 599.023438 383.296875 594.957031 384.828125 C 591.136719 386.3125 587.316406 387.792969 583.285156 388.804688 C 565.304688 379.144531 548.574219 367.765625 534.175781 352.648438 C 534.496094 351.703125 534.816406 350.757812 535.503906 349.359375 C 537.609375 343.527344 536.222656 340.792969 529.5 336.855469 C 529.644531 335.265625 529.71875 333.664062 529.949219 332.085938 C 531.53125 321.386719 533.144531 310.691406 534.75 299.355469 C 534.75 298.070312 534.746094 296.789062 534.75 295.003906 C 534.746094 294.667969 534.746094 294.332031 534.746094 293.292969 C 534.488281 283.273438 534.230469 273.257812 533.96875 262.644531 C 533.484375 260.355469 532.996094 258.070312 533.148438 255.675781 C 534.636719 255.582031 536.125 255.492188 538.269531 255.546875 C 539.808594 255.546875 541.347656 255.546875 543.101562 255.546875 C 542.988281 254.1875 543.003906 253.441406 542.851562 252.730469 C 539.039062 234.703125 532.832031 217.558594 524.003906 201.363281 C 516.136719 186.929688 506.105469 174.113281 495.648438 162.003906 C 499.886719 162.429688 502.988281 160.445312 505.898438 157.589844 C 544.660156 119.507812 583.429688 81.433594 622.285156 43.449219 C 635.191406 30.832031 655.117188 31.027344 667.390625 43.597656 C 679.605469 56.109375 678.882812 74.832031 665.714844 87.742188 C 636.808594 116.070312 607.90625 144.402344 579.042969 172.769531 C 577.640625 174.144531 576.25 175.726562 575.453125 177.480469 C 573.414062 181.96875 575.003906 186.925781 579.023438 189.722656 C 583.191406 192.621094 588.546875 192.296875 592.417969 188.605469 C 598.476562 182.835938 604.390625 176.910156 610.363281 171.050781 C 634.085938 147.785156 657.761719 124.46875 681.546875 101.265625 C 694.507812 88.628906 714.238281 89.027344 726.925781 101.96875 C 739.28125 114.578125 738.773438 133.238281 725.695312 146.132812 C 719.554688 152.183594 713.355469 158.175781 707.199219 164.207031 C 678.386719 192.449219 649.570312 220.691406 620.769531 248.949219 C 610.496094 259.027344 609.675781 273.363281 619.0625 283.0625 C 626.359375 290.601562 633.921875 297.886719 641.503906 305.140625 C 646.0625 309.503906 652.527344 309.386719 656.625 305.179688 C 660.75 300.949219 660.429688 294.875 655.746094 290.21875 C 649.277344 283.789062 642.753906 277.414062 636.246094 271.023438 C 632.605469 267.449219 632.585938 266.40625 636.238281 262.820312 C 671.371094 228.351562 706.625 194.007812 741.605469 159.382812 C 768.425781 132.828125 758.261719 88.582031 722.308594 74.914062 C 714.113281 71.796875 705.640625 71.019531 696.898438 72.007812 C 696.898438 70.066406 696.835938 68.347656 696.910156 66.632812 C 697.316406 57.15625 695.355469 48.148438 690.4375 40.085938 C 680.207031 23.320312 665.613281 14.324219 645.40625 14.117188 C 630.769531 13.964844 618.351562 18.40625 608.066406 28.445312 C 568.820312 66.746094 529.742188 105.21875 490.5625 143.582031 C 487.789062 146.296875 486.203125 149.296875 486.042969 153.109375 C 485.496094 152.863281 484.886719 152.703125 484.410156 152.355469 C 476.371094 146.460938 468.65625 140.054688 460.253906 134.734375 C 443.480469 124.109375 425.269531 116.707031 405.125 112.53125 C 401.5 112.007812 397.875 111.464844 394.25 110.960938 C 389.160156 110.25 384.085938 109.253906 378.972656 108.953125 C 372.167969 108.550781 365.332031 108.703125 357.816406 108.558594 C 353.15625 109.109375 348.472656 109.507812 343.84375 110.253906 C 335.546875 111.585938 327.28125 113.113281 319.007812 114.585938 C 316.472656 115.039062 313.949219 115.574219 311.214844 115.605469 C 305.574219 107.113281 297.378906 102.734375 287.410156 100.445312 C 283.121094 92.933594 278.832031 85.417969 274.605469 77.367188 C 274.882812 76.675781 275.152344 75.980469 275.4375 75.292969 C 282.535156 58.308594 270.738281 41.148438 252.371094 42.058594 C 242.421875 42.554688 235.371094 47.960938 232.1875 57.21875 C 229.292969 65.644531 230.253906 73.808594 236.960938 80.722656 C 240.953125 84.84375 245.785156 87.015625 251.1875 89.101562 C 253.292969 97.183594 255.398438 105.265625 257.339844 113.859375 C 256.777344 114.8125 256.210938 115.765625 255.660156 116.726562 C 250.105469 126.476562 249.121094 136.527344 253.515625 147.457031 C 252.976562 148.125 252.535156 148.902344 251.890625 149.4375 C 229.257812 168.203125 212.128906 191.085938 200.6875 218.160156 C 187.21875 250.039062 183.449219 283.078125 189.046875 317.707031 C 182.300781 322.546875 175.238281 327.003906 168.875 332.300781 C 154.070312 344.617188 142.929688 359.6875 136.046875 378.347656 C 129.511719 394.949219 127.28125 412.210938 128.164062 429.941406 C 128.296875 432.636719 128.695312 435.320312 128.78125 438.417969 C 128.339844 439.023438 127.902344 439.628906 126.996094 440.421875 C 122.4375 444.742188 119.027344 449.75 117.382812 456.496094 C 117.21875 457.210938 116.929688 457.917969 116.910156 458.636719 C 116.761719 463.738281 116.667969 468.84375 116.179688 474.273438 C 112.859375 482.886719 109.210938 491.390625 106.296875 500.144531 C 103.175781 509.519531 110.265625 519.71875 120.121094 520.417969 C 122.515625 520.589844 123.902344 521.464844 125.375 523.179688 C 130.183594 528.785156 137.234375 530.429688 144.042969 527.445312 C 146.195312 526.5 147.414062 526.667969 149.210938 528.261719 C 158.738281 536.71875 173.148438 531.726562 175.597656 519.238281 C 176.027344 517.046875 176.363281 514.832031 176.867188 511.886719 C 177.898438 513.429688 178.394531 514.285156 178.996094 515.058594 C 184.691406 522.441406 194.035156 524.042969 201.660156 518.964844 C 208.3125 514.535156 210.757812 504.574219 206.09375 497.65625 C 199.058594 487.207031 191.40625 477.171875 183.914062 466.332031 C 182.632812 460.878906 181.355469 455.421875 180.015625 449.445312 C 176.929688 444.03125 173.175781 439.253906 167.136719 435.984375 C 166.03125 435.179688 164.925781 434.375 163.980469 432.964844 C 163.0625 423.34375 163.382812 413.785156 165.546875 404.335938 C 167.453125 396.027344 169.257812 387.675781 174.496094 380.085938 C 179.351562 374.015625 183.90625 367.671875 189.175781 361.992188 C 191.996094 358.949219 196.054688 357.050781 199.6875 355.164062 C 203.609375 363.070312 207.527344 370.976562 211.515625 379.398438 C 218.636719 391.433594 226.691406 402.753906 237.136719 412.898438 C 252.988281 429.058594 271.078125 442.066406 291.59375 452.125 C 289.890625 465.417969 288.140625 478.707031 286.503906 492.007812 C 285.425781 500.746094 284.507812 509.503906 283.34375 518.839844 C 282.859375 522.886719 282.375 526.933594 281.609375 531.515625 C 281.195312 535.578125 280.78125 539.644531 280.128906 544.246094 C 277.359375 559.042969 274.621094 573.847656 271.8125 588.640625 C 270.28125 596.691406 268.636719 604.722656 266.351562 612.746094 C 261.882812 613.035156 257.390625 613.132812 252.949219 613.644531 C 241.246094 614.992188 229.535156 616.328125 217.875 618.023438 C 202.65625 620.238281 187.402344 622.34375 172.324219 625.328125 C 157.105469 628.34375 142.019531 632.109375 127.003906 636.039062 C 111.171875 640.183594 95.871094 645.914062 81.496094 653.824219 C 74.394531 657.730469 67.644531 662.238281 62.730469 668.914062 C 58.195312 675.074219 56.726562 681.695312 60.171875 688.886719 C 64.925781 698.804688 73.792969 704.289062 82.894531 709.246094 C 102.199219 719.765625 123.078125 726.335938 144.382812 730.972656 C 168.246094 736.167969 192.410156 740.042969 216.523438 744.003906 C 230.222656 746.253906 244.058594 747.726562 257.875 749.167969 C 270.222656 750.457031 282.613281 751.445312 295.011719 752.160156 C 311.910156 753.136719 328.824219 754.261719 345.738281 754.367188 C 374.828125 754.554688 403.921875 754.113281 433.007812 753.710938 C 443.328125 753.570312 453.648438 752.925781 463.953125 752.246094 C 481.058594 751.117188 498.160156 749.871094 515.25 748.480469 C 525.390625 747.652344 535.550781 746.78125 545.617188 745.339844 C 560.71875 743.179688 575.753906 740.570312 590.796875 738.03125 C 617.21875 733.578125 643.207031 727.351562 668.191406 717.566406 C 681.664062 712.289062 694.753906 706.175781 704.867188 695.132812 C 711.820312 687.542969 713.085938 678.738281 707.316406 670.28125 C 701.449219 661.683594 692.84375 656.269531 683.785156 651.726562 C 660.222656 639.914062 634.96875 633.121094 609.320312 627.832031 C 592.800781 624.425781 576.148438 621.609375 559.488281 618.957031 C 548.589844 617.226562 537.566406 616.265625 526.238281 614.605469 C 520.859375 607.726562 515.480469 600.847656 509.925781 593.46875 C 506.984375 588.839844 504.039062 584.210938 500.988281 579.074219 C 499.21875 575.800781 497.453125 572.523438 495.621094 568.722656 C 494.128906 565.394531 492.636719 562.066406 491.113281 558.191406 C 490.167969 555.125 489.222656 552.0625 488.324219 548.359375 M 611.292969 112.164062 C 624.574219 99.128906 637.863281 86.101562 651.136719 73.0625 C 656.070312 68.214844 656.527344 62.175781 652.328125 57.820312 C 648.199219 53.535156 641.59375 53.503906 636.933594 58.058594 C 607.480469 86.886719 577.945312 115.628906 548.726562 144.695312 C 533.949219 159.398438 530.445312 183.089844 539.515625 201.300781 C 555.808594 234 598.222656 240.90625 624.53125 215.132812 C 641.925781 198.085938 659.308594 181.03125 676.695312 163.972656 C 688.015625 152.867188 699.363281 141.785156 710.632812 130.625 C 715.566406 125.742188 715.429688 118.796875 710.503906 114.898438 C 706.011719 111.339844 700.484375 111.722656 695.980469 116.097656 C 685.59375 126.195312 675.269531 136.359375 664.925781 146.503906 C 646.46875 164.605469 628.039062 182.734375 609.554688 200.808594 C 599.921875 210.230469 585.808594 212.929688 574.261719 207.695312 C 553.667969 198.355469 549.097656 173.289062 565.171875 157.394531 C 580.355469 142.378906 595.652344 127.476562 611.292969 112.164062 Z M 611.292969 112.164062 "/>
<path style=" stroke:none;fill-rule:nonzero;fill:rgb(87.450981%,84.705883%,96.862745%);fill-opacity:1;" d="M 526.601562 614.960938 C 537.566406 616.265625 548.589844 617.226562 559.488281 618.957031 C 576.148438 621.609375 592.800781 624.425781 609.320312 627.832031 C 634.96875 633.121094 660.222656 639.914062 683.785156 651.726562 C 692.84375 656.269531 701.449219 661.683594 707.316406 670.28125 C 713.085938 678.738281 711.820312 687.542969 704.867188 695.132812 C 694.753906 706.175781 681.664062 712.289062 668.191406 717.566406 C 643.207031 727.351562 617.21875 733.578125 590.796875 738.03125 C 575.753906 740.570312 560.71875 743.179688 545.617188 745.339844 C 535.550781 746.78125 525.390625 747.652344 515.25 748.480469 C 498.160156 749.871094 481.058594 751.117188 463.953125 752.246094 C 453.648438 752.925781 443.328125 753.570312 433.007812 753.710938 C 403.921875 754.113281 374.828125 754.554688 345.738281 754.367188 C 328.824219 754.261719 311.910156 753.136719 295.011719 752.160156 C 282.613281 751.445312 270.222656 750.457031 257.875 749.167969 C 244.058594 747.726562 230.222656 746.253906 216.523438 744.003906 C 192.410156 740.042969 168.246094 736.167969 144.382812 730.972656 C 123.078125 726.335938 102.199219 719.765625 82.894531 709.246094 C 73.792969 704.289062 64.925781 698.804688 60.171875 688.886719 C 56.726562 681.695312 58.195312 675.074219 62.730469 668.914062 C 67.644531 662.238281 74.394531 657.730469 81.496094 653.824219 C 95.871094 645.914062 111.171875 640.183594 127.003906 636.039062 C 142.019531 632.109375 157.105469 628.34375 172.324219 625.328125 C 187.402344 622.34375 202.65625 620.238281 217.875 618.023438 C 229.535156 616.328125 241.246094 614.992188 252.949219 613.644531 C 257.390625 613.132812 261.882812 613.035156 266.71875 613.066406 C 262.9375 635.515625 258.785156 657.648438 254.648438 679.785156 C 253.667969 685.039062 255.984375 688.070312 261.25 688.226562 C 264.601562 688.328125 267.964844 688.113281 271.671875 688.164062 C 292.84375 688.074219 313.667969 687.859375 334.839844 687.695312 C 340.542969 687.746094 345.894531 687.730469 351.246094 687.753906 C 354.664062 687.769531 357.390625 686.09375 358.066406 683 C 359.734375 675.398438 360.804688 667.664062 362.164062 659.6875 C 361.777344 657.574219 361.34375 655.757812 360.855469 653.6875 C 358.71875 651.148438 356.699219 648.800781 354.546875 646.582031 C 343.714844 635.402344 335.246094 622.652344 329.441406 608.335938 C 343.375 608.039062 356.949219 607.441406 370.515625 607.570312 C 396.914062 607.820312 423.304688 608.476562 449.761719 609.273438 C 448.289062 633 446.738281 656.417969 445.238281 679.835938 C 444.925781 684.710938 447.664062 687.730469 452.546875 687.726562 C 468.660156 687.71875 484.773438 687.597656 501.234375 687.601562 C 511.191406 687.5 520.796875 687.242188 530.402344 687.144531 C 539.773438 687.046875 549.144531 687.132812 558.515625 687.097656 C 563.351562 687.078125 565.839844 684.742188 566.136719 679.863281 C 566.296875 677.25 566.222656 674.621094 566.285156 671.652344 C 566.269531 668.035156 566.214844 664.761719 566.199219 661.160156 C 566.035156 658.53125 565.832031 656.234375 565.578125 653.683594 C 563.699219 651.589844 562.019531 649.566406 560.023438 647.929688 C 547.871094 637.960938 536.585938 627.121094 526.601562 614.960938 Z M 526.601562 614.960938 "/>
<path style=" stroke:none;fill-rule:nonzero;fill:rgb(1.176471%,1.176471%,1.176471%);fill-opacity:1;" d="M 486.570312 153.214844 C 486.203125 149.296875 487.789062 146.296875 490.5625 143.582031 C 529.742188 105.21875 568.820312 66.746094 608.066406 28.445312 C 618.351562 18.40625 630.769531 13.964844 645.40625 14.117188 C 665.613281 14.324219 680.207031 23.320312 690.4375 40.085938 C 695.355469 48.148438 697.316406 57.15625 696.910156 66.632812 C 696.835938 68.347656 696.898438 70.066406 696.898438 72.007812 C 705.640625 71.019531 714.113281 71.796875 722.308594 74.914062 C 758.261719 88.582031 768.425781 132.828125 741.605469 159.382812 C 706.625 194.007812 671.371094 228.351562 636.238281 262.820312 C 632.585938 266.40625 632.605469 267.449219 636.246094 271.023438 C 642.753906 277.414062 649.277344 283.789062 655.746094 290.21875 C 660.429688 294.875 660.75 300.949219 656.625 305.179688 C 652.527344 309.386719 646.0625 309.503906 641.503906 305.140625 C 633.921875 297.886719 626.359375 290.601562 619.0625 283.0625 C 609.675781 273.363281 610.496094 259.027344 620.769531 248.949219 C 649.570312 220.691406 678.386719 192.449219 707.199219 164.207031 C 713.355469 158.175781 719.554688 152.183594 725.695312 146.132812 C 738.773438 133.238281 739.28125 114.578125 726.925781 101.96875 C 714.238281 89.027344 694.507812 88.628906 681.546875 101.265625 C 657.761719 124.46875 634.085938 147.785156 610.363281 171.050781 C 604.390625 176.910156 598.476562 182.835938 592.417969 188.605469 C 588.546875 192.296875 583.191406 192.621094 579.023438 189.722656 C 575.003906 186.925781 573.414062 181.96875 575.453125 177.480469 C 576.25 175.726562 577.640625 174.144531 579.042969 172.769531 C 607.90625 144.402344 636.808594 116.070312 665.714844 87.742188 C 678.882812 74.832031 679.605469 56.109375 667.390625 43.597656 C 655.117188 31.027344 635.191406 30.832031 622.285156 43.449219 C 583.429688 81.433594 544.660156 119.507812 505.898438 157.589844 C 502.988281 160.445312 499.886719 162.429688 495.109375 161.882812 C 490.09375 160.605469 487.570312 157.625 486.570312 153.214844 Z M 486.570312 153.214844 "/>
<path style=" stroke:none;fill-rule:nonzero;fill:rgb(50.196081%,39.607844%,87.843138%);fill-opacity:1;" d="M 496.4375 411.765625 C 487.035156 419.882812 477.636719 427.996094 467.808594 436.332031 C 467.035156 436.6875 466.667969 436.785156 466.347656 436.960938 C 457.550781 441.734375 448.753906 446.5 439.988281 451.328125 C 439.4375 451.632812 439.15625 452.429688 438.464844 452.988281 C 434.222656 454.472656 430.292969 456.042969 426.300781 457.433594 C 401.976562 465.898438 376.949219 469.28125 351.296875 467.042969 C 342.414062 466.269531 333.628906 464.332031 324.632812 462.6875 C 316.183594 459.742188 307.902344 457.046875 299.628906 454.316406 C 296.960938 453.4375 294.324219 452.464844 291.671875 451.53125 C 271.078125 442.066406 252.988281 429.058594 237.179688 412.460938 C 238.707031 411.917969 240.1875 411.714844 241.671875 411.714844 C 264.011719 411.695312 286.351562 411.707031 308.691406 411.699219 C 347.507812 411.679688 386.324219 411.652344 425.175781 411.984375 C 425.210938 415.28125 425.210938 418.222656 425.210938 421.496094 C 427.199219 421.496094 428.546875 421.5 429.898438 421.496094 C 444.75 421.488281 459.605469 421.476562 474.460938 421.464844 C 484.351562 421.457031 484.351562 421.453125 484.832031 411.75 C 488.933594 411.734375 492.683594 411.75 496.4375 411.765625 Z M 496.4375 411.765625 "/>
<path style=" stroke:none;fill-rule:nonzero;fill:rgb(50.196081%,39.607844%,87.843138%);fill-opacity:1;" d="M 311.417969 116.070312 C 313.949219 115.574219 316.472656 115.039062 319.007812 114.585938 C 327.28125 113.113281 335.546875 111.585938 343.84375 110.253906 C 348.472656 109.507812 353.15625 109.109375 358.132812 108.875 C 357.175781 110.015625 356.003906 111.226562 354.605469 111.601562 C 332.132812 117.667969 312.015625 128.277344 294.742188 143.789062 C 277.605469 159.175781 264.125 177.304688 255.570312 198.980469 C 246.214844 222.675781 242.683594 247.070312 245.34375 272.355469 C 245.632812 275.121094 246.773438 277.792969 247.398438 280.738281 C 244.347656 283.050781 241.414062 285.140625 238.257812 287.339844 C 233.421875 291.421875 230.105469 296.207031 228.515625 302.34375 C 228.199219 302.914062 228.066406 303.347656 227.621094 303.769531 C 220.109375 305.976562 212.835938 307.996094 205.71875 310.476562 C 200.128906 312.425781 194.730469 314.941406 189.25 317.203125 C 183.449219 283.078125 187.21875 250.039062 200.6875 218.160156 C 212.128906 191.085938 229.257812 168.203125 251.890625 149.4375 C 252.535156 148.902344 252.976562 148.125 253.855469 147.214844 C 255.402344 146.40625 256.75 146.027344 257.789062 145.238281 C 270.90625 135.226562 285.144531 127.226562 300.492188 121.164062 C 304.222656 119.6875 307.78125 117.777344 311.417969 116.070312 Z M 311.417969 116.070312 "/>
<path style=" stroke:none;fill-rule:nonzero;fill:rgb(1.176471%,1.176471%,1.176471%);fill-opacity:1;" d="M 611.097656 112.34375 C 595.652344 127.476562 580.355469 142.378906 565.171875 157.394531 C 549.097656 173.289062 553.667969 198.355469 574.261719 207.695312 C 585.808594 212.929688 599.921875 210.230469 609.554688 200.808594 C 628.039062 182.734375 646.46875 164.605469 664.925781 146.503906 C 675.269531 136.359375 685.59375 126.195312 695.980469 116.097656 C 700.484375 111.722656 706.011719 111.339844 710.503906 114.898438 C 715.429688 118.796875 715.566406 125.742188 710.632812 130.625 C 699.363281 141.785156 688.015625 152.867188 676.695312 163.972656 C 659.308594 181.03125 641.925781 198.085938 624.53125 215.132812 C 598.222656 240.90625 555.808594 234 539.515625 201.300781 C 530.445312 183.089844 533.949219 159.398438 548.726562 144.695312 C 577.945312 115.628906 607.480469 86.886719 636.933594 58.058594 C 641.59375 53.503906 648.199219 53.535156 652.328125 57.820312 C 656.527344 62.175781 656.070312 68.214844 651.136719 73.0625 C 637.863281 86.101562 624.574219 99.128906 611.097656 112.34375 Z M 611.097656 112.34375 "/>
<path style=" stroke:none;fill-rule:nonzero;fill:rgb(84.313726%,80.784315%,96.862745%);fill-opacity:1;" d="M 425.140625 411.628906 C 386.324219 411.652344 347.507812 411.679688 308.691406 411.699219 C 286.351562 411.707031 264.011719 411.695312 241.671875 411.714844 C 240.1875 411.714844 238.707031 411.917969 237.003906 412.277344 C 226.691406 402.753906 218.636719 391.433594 211.835938 379.121094 C 247.1875 378.8125 282.21875 378.78125 317.601562 378.789062 C 331.21875 378.800781 344.484375 378.777344 358.101562 378.78125 C 380.625 378.867188 402.796875 378.917969 425.027344 379.304688 C 425.105469 390.300781 425.121094 400.964844 425.140625 411.628906 Z M 425.140625 411.628906 "/>
<path style=" stroke:none;fill-rule:nonzero;fill:rgb(53.725493%,43.137255%,90.588236%);fill-opacity:1;" d="M 526.417969 614.78125 C 536.585938 627.121094 547.871094 637.960938 560.023438 647.929688 C 562.019531 649.566406 563.699219 651.589844 565.214844 653.699219 C 550.605469 653.980469 536.304688 653.992188 521.652344 654.003906 C 516.648438 654 511.992188 654 506.351562 654 C 507.851562 656.078125 508.503906 657.457031 509.558594 658.363281 C 513.605469 661.816406 517.53125 665.492188 521.960938 668.390625 C 529.960938 673.628906 539.191406 675.683594 548.542969 675.527344 C 554.464844 675.425781 560.347656 673.246094 566.25 672 C 566.222656 674.621094 566.296875 677.25 566.136719 679.863281 C 565.839844 684.742188 563.351562 687.078125 558.515625 687.097656 C 549.144531 687.132812 539.773438 687.046875 530.402344 687.144531 C 520.796875 687.242188 511.191406 687.5 501.222656 687.351562 C 499.929688 685.300781 498.359375 683.636719 498.210938 681.851562 C 497.894531 678.027344 498.136719 674.128906 498.472656 670.285156 C 499.027344 663.964844 499.40625 657.527344 495.046875 652.414062 C 485.28125 640.953125 480.09375 627.210938 475.046875 613.496094 C 476.589844 613.011719 477.949219 612.695312 479.101562 612.027344 C 489.457031 606.042969 499.773438 599.996094 510.101562 593.96875 C 515.480469 600.847656 520.859375 607.726562 526.417969 614.78125 Z M 526.417969 614.78125 "/>
<path style=" stroke:none;fill-rule:nonzero;fill:rgb(53.333336%,43.529412%,88.627452%);fill-opacity:1;" d="M 486.308594 153.160156 C 487.570312 157.625 490.09375 160.605469 494.792969 161.914062 C 506.105469 174.113281 516.136719 186.929688 524.003906 201.363281 C 532.832031 217.558594 539.039062 234.703125 542.851562 252.730469 C 543.003906 253.441406 542.988281 254.1875 543.101562 255.546875 C 541.347656 255.546875 539.808594 255.546875 537.6875 255.332031 C 532.574219 255.0625 528.042969 255.007812 523.542969 254.671875 C 523.132812 247.253906 523.476562 239.957031 522.070312 233.011719 C 520.234375 223.925781 517.371094 214.996094 514.308594 206.222656 C 509.457031 192.324219 501.707031 179.984375 491.875 169.09375 C 478.636719 154.441406 463.496094 142.347656 444.992188 134.648438 C 429.550781 128.21875 413.675781 124.105469 396.96875 123.851562 C 389.671875 123.742188 382.359375 124.699219 375.054688 125.226562 C 363.265625 126.074219 352.128906 129.671875 341.425781 134.28125 C 322.394531 142.480469 306.019531 154.46875 292.660156 170.445312 C 282.664062 182.394531 274.835938 195.589844 269.53125 210.25 C 263.707031 226.339844 261.15625 243 261.871094 260.050781 C 262.132812 266.386719 263.75 272.667969 264.40625 278.984375 C 261.292969 278.984375 258.523438 278.976562 255.75 278.667969 C 255.242188 276.328125 254.339844 274.289062 254.316406 272.238281 C 254.175781 260.695312 253.664062 249.113281 254.417969 237.617188 C 255.164062 226.214844 258.511719 215.214844 262.601562 204.507812 C 267.382812 191.976562 274.125 180.589844 282.148438 169.855469 C 290.65625 158.46875 300.835938 148.730469 312.359375 140.691406 C 324.8125 132.003906 338.367188 124.980469 353.246094 121.214844 C 361.382812 119.15625 369.660156 117.347656 377.984375 116.402344 C 386.238281 115.464844 394.628906 115.683594 402.960938 115.546875 C 405.070312 115.511719 406.003906 114.859375 405.742188 112.742188 C 425.269531 116.707031 443.480469 124.109375 460.253906 134.734375 C 468.65625 140.054688 476.371094 146.460938 484.410156 152.355469 C 484.886719 152.703125 485.496094 152.863281 486.308594 153.160156 Z M 486.308594 153.160156 "/>
<path style=" stroke:none;fill-rule:nonzero;fill:rgb(54.509807%,43.921569%,90.980393%);fill-opacity:1;" d="M 595.515625 384.800781 C 599.023438 383.296875 602.496094 381.6875 606.054688 380.304688 C 615.476562 376.648438 624.894531 372.972656 634.394531 369.527344 C 645.398438 365.539062 655.492188 372.914062 654.722656 384.300781 C 654.351562 389.765625 651.378906 393.683594 646.527344 395.960938 C 642.164062 398.003906 637.605469 399.632812 633.089844 402.25 C 639.503906 404.125 645.933594 405.9375 652.320312 407.886719 C 661.324219 410.632812 665.621094 419.164062 662.359375 427.628906 C 660.703125 431.929688 657.796875 434.410156 651.371094 436.867188 C 654.921875 440.03125 657.699219 443.480469 657.925781 448.476562 C 658.191406 454.40625 656.027344 459.046875 650.996094 462.0625 C 646.132812 464.980469 641.003906 464.847656 635.984375 462.222656 C 633.464844 460.90625 630.992188 459.5 628.457031 458.113281 C 628.097656 458.679688 627.824219 458.957031 627.738281 459.28125 C 626.027344 465.730469 621.871094 469.789062 615.363281 470.835938 C 608.917969 471.867188 604.082031 468.867188 600.386719 463.636719 C 595.847656 457.214844 591.144531 450.90625 586.769531 444.292969 C 592.246094 444.984375 597.574219 447.117188 602.671875 446.664062 C 619.832031 445.144531 631.851562 430.453125 630.898438 413.992188 C 630.175781 401.472656 619.902344 388.496094 607.5625 386.257812 C 603.589844 385.539062 599.53125 385.273438 595.515625 384.800781 Z M 595.515625 384.800781 "/>
<path style=" stroke:none;fill-rule:nonzero;fill:rgb(54.509807%,43.921569%,90.980393%);fill-opacity:1;" d="M 184.015625 466.960938 C 191.40625 477.171875 199.058594 487.207031 206.09375 497.65625 C 210.757812 504.574219 208.3125 514.535156 201.660156 518.964844 C 194.035156 524.042969 184.691406 522.441406 178.996094 515.058594 C 178.394531 514.285156 177.898438 513.429688 176.867188 511.886719 C 176.363281 514.832031 176.027344 517.046875 175.597656 519.238281 C 173.148438 531.726562 158.738281 536.71875 149.210938 528.261719 C 147.414062 526.667969 146.195312 526.5 144.042969 527.445312 C 137.234375 530.429688 130.183594 528.785156 125.375 523.179688 C 123.902344 521.464844 122.515625 520.589844 120.121094 520.417969 C 110.265625 519.71875 103.175781 509.519531 106.296875 500.144531 C 109.210938 491.390625 112.859375 482.886719 116.613281 474.167969 C 117.488281 474.554688 117.925781 475.046875 118.402344 475.828125 C 118.71875 477.191406 118.855469 478.324219 119.300781 479.320312 C 125.96875 494.199219 143.964844 502.269531 159.578125 497.425781 C 172.789062 493.328125 182.730469 481.542969 183.269531 469.371094 C 183.648438 468.433594 183.832031 467.695312 184.015625 466.960938 Z M 184.015625 466.960938 "/>
<path style=" stroke:none;fill-rule:nonzero;fill:rgb(50.196081%,39.607844%,87.843138%);fill-opacity:1;" d="M 317.25 378.753906 C 282.21875 378.78125 247.1875 378.8125 211.800781 378.859375 C 207.527344 370.976562 203.609375 363.070312 199.660156 354.65625 C 206.65625 350.359375 213.523438 346.214844 220.769531 342.902344 C 226.4375 340.3125 232.578125 338.753906 238.742188 336.84375 C 245.496094 341.945312 252.679688 344.527344 261.078125 344.410156 C 267.730469 344.320312 273.371094 341.949219 278.980469 339.207031 C 279.402344 340.363281 279.675781 341.335938 280.242188 342.089844 C 289.789062 354.714844 301.503906 365.019531 314.355469 374.15625 C 315.71875 375.125 316.304688 377.195312 317.25 378.753906 Z M 317.25 378.753906 "/>
<path style=" stroke:none;fill-rule:nonzero;fill:rgb(58.431375%,49.411765%,90.196079%);fill-opacity:1;" d="M 238.511719 336.734375 C 232.578125 338.753906 226.4375 340.3125 220.769531 342.902344 C 213.523438 346.214844 206.65625 350.359375 199.589844 354.390625 C 196.054688 357.050781 191.996094 358.949219 189.175781 361.992188 C 183.90625 367.671875 179.351562 374.015625 174.171875 379.976562 C 173.847656 377.40625 173.847656 374.949219 173.847656 371.441406 C 168.945312 371.367188 163.519531 371.25 158.09375 371.214844 C 155.425781 371.195312 152.710938 371.691406 150.105469 371.316406 C 144.78125 370.554688 143.203125 371.203125 140.203125 375.613281 C 139.4375 376.738281 137.714844 377.210938 136.429688 377.980469 C 142.929688 359.6875 154.070312 344.617188 168.875 332.300781 C 175.238281 327.003906 182.300781 322.546875 189.148438 317.453125 C 194.730469 314.941406 200.128906 312.425781 205.71875 310.476562 C 212.835938 307.996094 220.109375 305.976562 227.628906 304.082031 C 227.917969 309.191406 227.34375 314.050781 227.988281 318.742188 C 228.996094 326.023438 233.414062 331.660156 238.511719 336.734375 Z M 238.511719 336.734375 "/>
<path style=" stroke:none;fill-rule:nonzero;fill:rgb(55.686277%,46.27451%,89.019608%);fill-opacity:1;" d="M 523.515625 254.953125 C 528.042969 255.007812 532.574219 255.0625 537.359375 255.257812 C 536.125 255.492188 534.636719 255.582031 532.476562 255.679688 C 525.296875 255.585938 518.78125 255.488281 512.261719 255.070312 C 511.972656 249.414062 512.082031 244.023438 511.339844 238.746094 C 508.78125 220.492188 502.199219 203.769531 492.109375 188.277344 C 481.8125 172.460938 468.136719 160.398438 451.996094 151.101562 C 440.445312 144.445312 428.054688 140.136719 414.761719 137.570312 C 403.394531 135.375 392.175781 135.980469 380.894531 135.898438 C 375.886719 135.859375 370.753906 136.945312 365.871094 138.25 C 349.644531 142.578125 334.675781 149.402344 321.035156 159.554688 C 304.496094 171.863281 292.550781 187.464844 283.976562 205.960938 C 278.8125 217.105469 275.148438 228.738281 273.976562 240.933594 C 273.234375 248.675781 273.421875 256.550781 273.773438 264.335938 C 274.054688 270.503906 275.21875 276.632812 275.71875 282.742188 C 274.378906 282.460938 273.316406 282.210938 272.125 281.769531 C 271.082031 280.964844 270.167969 280.355469 269.25 279.417969 C 269.234375 277.960938 269.347656 276.816406 269.179688 275.714844 C 267.597656 265.144531 265.957031 254.566406 267.769531 243.863281 C 269.136719 235.804688 270.019531 227.585938 272.28125 219.773438 C 278.457031 198.441406 289.730469 180.089844 305.839844 164.640625 C 315.460938 155.417969 326.023438 147.582031 338.03125 141.976562 C 349.289062 136.71875 360.976562 132.699219 373.496094 130.988281 C 388.078125 128.992188 402.652344 128.738281 416.941406 131.578125 C 430.464844 134.265625 443.597656 138.878906 455.558594 146.070312 C 474.332031 157.359375 490.027344 171.921875 500.804688 191.136719 C 505.46875 199.449219 509.3125 208.3125 512.621094 217.261719 C 514.832031 223.246094 515.683594 229.78125 516.707031 236.136719 C 517.6875 242.226562 518.109375 248.40625 518.820312 254.953125 C 520.335938 254.953125 521.925781 254.953125 523.515625 254.953125 Z M 523.515625 254.953125 "/>
<path style=" stroke:none;fill-rule:nonzero;fill:rgb(32.156864%,17.647059%,83.137256%);fill-opacity:1;" d="M 529.496094 337.523438 C 536.222656 340.792969 537.609375 343.527344 534.945312 349.5 C 523.722656 349.605469 513.054688 349.550781 502.386719 349.558594 C 501.433594 349.558594 500.476562 349.964844 499.167969 350.179688 C 491.050781 350.175781 483.28125 350.179688 475.167969 350.171875 C 468.542969 350.027344 462.265625 349.894531 455.640625 349.691406 C 450.027344 349.679688 444.753906 349.734375 439.140625 349.714844 C 418.992188 349.621094 399.1875 349.578125 379.386719 349.585938 C 368.425781 349.589844 357.46875 349.679688 346.183594 349.671875 C 340.328125 350.21875 336.957031 347.277344 334.542969 342.394531 C 334.53125 339.042969 334.542969 336.039062 334.75 333 C 335.082031 332.945312 335.210938 332.925781 335.511719 333.097656 C 338.417969 336.5 342.054688 337.390625 346.074219 337.386719 C 362.789062 337.371094 379.5 337.402344 396.210938 337.375 C 403.0625 337.363281 409.917969 337.246094 417.125 337.277344 C 443.671875 337.421875 469.863281 337.464844 496.050781 337.488281 C 496.785156 337.488281 497.515625 337.261719 498.574219 337.230469 C 509.097656 337.390625 519.296875 337.457031 529.496094 337.523438 Z M 529.496094 337.523438 "/>
<path style=" stroke:none;fill-rule:nonzero;fill:rgb(54.11765%,43.921569%,90.980393%);fill-opacity:1;" d="M 438.75 452.996094 C 439.15625 452.429688 439.4375 451.632812 439.988281 451.328125 C 448.753906 446.5 457.550781 441.734375 466.347656 436.960938 C 466.667969 436.785156 467.035156 436.6875 467.640625 436.523438 C 474.539062 451.601562 479.082031 467.367188 482.148438 483.539062 C 483.765625 492.078125 484.773438 500.734375 485.707031 509.664062 C 483.148438 509.738281 480.945312 509.316406 478.738281 509.285156 C 472.515625 509.1875 466.28125 509.042969 460.074219 509.351562 C 457.667969 509.472656 455.320312 510.753906 452.777344 511.261719 C 451.601562 504.363281 451.117188 497.582031 449.472656 491.089844 C 446.238281 478.304688 442.363281 465.683594 438.75 452.996094 Z M 438.75 452.996094 "/>
<path style=" stroke:none;fill-rule:nonzero;fill:rgb(56.862748%,47.058824%,90.196079%);fill-opacity:1;" d="M 136.238281 378.164062 C 137.714844 377.210938 139.4375 376.738281 140.203125 375.613281 C 143.203125 371.203125 144.78125 370.554688 150.105469 371.316406 C 152.710938 371.691406 155.425781 371.195312 158.09375 371.214844 C 163.519531 371.25 168.945312 371.367188 173.847656 371.441406 C 173.847656 374.949219 173.847656 377.40625 173.976562 380.140625 C 169.257812 387.675781 167.453125 396.027344 165.546875 404.335938 C 163.382812 413.785156 163.0625 423.34375 163.628906 433.25 C 156.566406 431.589844 149.722656 429.925781 142.84375 432.097656 C 138.074219 433.601562 133.585938 436.003906 128.972656 438.007812 C 128.695312 435.320312 128.296875 432.636719 128.164062 429.941406 C 127.28125 412.210938 129.511719 394.949219 136.238281 378.164062 Z M 136.238281 378.164062 "/>
<path style=" stroke:none;fill-rule:nonzero;fill:rgb(54.11765%,43.921569%,90.980393%);fill-opacity:1;" d="M 291.632812 451.828125 C 294.324219 452.464844 296.960938 453.4375 299.628906 454.316406 C 307.902344 457.046875 316.183594 459.742188 324.59375 462.988281 C 323.980469 469.207031 323.214844 474.886719 322.488281 480.574219 C 320.625 495.148438 318.777344 509.730469 316.601562 524.292969 C 315.195312 524.011719 314.125 523.683594 313.035156 523.488281 C 303.195312 521.730469 293.355469 519.996094 283.515625 518.253906 C 284.507812 509.503906 285.425781 500.746094 286.503906 492.007812 C 288.140625 478.707031 289.890625 465.417969 291.632812 451.828125 Z M 291.632812 451.828125 "/>
<path style=" stroke:none;fill-rule:nonzero;fill:rgb(51.764709%,41.568628%,88.235295%);fill-opacity:1;" d="M 405.433594 112.636719 C 406.003906 114.859375 405.070312 115.511719 402.960938 115.546875 C 394.628906 115.683594 386.238281 115.464844 377.984375 116.402344 C 369.660156 117.347656 361.382812 119.15625 353.246094 121.214844 C 338.367188 124.980469 324.8125 132.003906 312.359375 140.691406 C 300.835938 148.730469 290.65625 158.46875 282.148438 169.855469 C 274.125 180.589844 267.382812 191.976562 262.601562 204.507812 C 258.511719 215.214844 255.164062 226.214844 254.417969 237.617188 C 253.664062 249.113281 254.175781 260.695312 254.316406 272.238281 C 254.339844 274.289062 255.242188 276.328125 255.445312 278.691406 C 252.605469 279.511719 250.0625 280.007812 247.515625 280.507812 C 246.773438 277.792969 245.632812 275.121094 245.34375 272.355469 C 242.683594 247.070312 246.214844 222.675781 255.570312 198.980469 C 264.125 177.304688 277.605469 159.175781 294.742188 143.789062 C 312.015625 128.277344 332.132812 117.667969 354.605469 111.601562 C 356.003906 111.226562 357.175781 110.015625 358.480469 108.90625 C 365.332031 108.703125 372.167969 108.550781 378.972656 108.953125 C 384.085938 109.253906 389.160156 110.25 394.25 110.960938 C 397.875 111.464844 401.5 112.007812 405.433594 112.636719 Z M 405.433594 112.636719 "/>
<path style=" stroke:none;fill-rule:nonzero;fill:rgb(54.509807%,43.921569%,90.980393%);fill-opacity:1;" d="M 534.179688 353.167969 C 548.574219 367.765625 565.304688 379.144531 583.304688 389.277344 C 582.625 390.453125 581.992188 391.238281 581.214844 391.847656 C 573.042969 398.277344 569.492188 406.890625 569.203125 417.066406 C 557.628906 409.863281 545.910156 402.882812 534.550781 395.355469 C 529.410156 391.945312 524.984375 387.453125 520.003906 383.0625 C 520.234375 381.421875 520.703125 380.171875 521.273438 378.671875 C 523.554688 374.355469 525.800781 370.324219 527.882812 366.210938 C 530.0625 361.902344 532.085938 357.519531 534.179688 353.167969 Z M 534.179688 353.167969 "/>
<path style=" stroke:none;fill-rule:nonzero;fill:rgb(84.705883%,81.176472%,96.862745%);fill-opacity:1;" d="M 251.113281 88.492188 C 245.785156 87.015625 240.953125 84.84375 236.960938 80.722656 C 230.253906 73.808594 229.292969 65.644531 232.1875 57.21875 C 235.371094 47.960938 242.421875 42.554688 252.371094 42.058594 C 270.738281 41.148438 282.535156 58.308594 275.4375 75.292969 C 275.152344 75.980469 274.882812 76.675781 274.335938 77.738281 C 268.128906 85.359375 260.570312 89.023438 251.113281 88.492188 Z M 251.113281 88.492188 "/>
<path style=" stroke:none;fill-rule:nonzero;fill:rgb(33.333334%,18.431373%,83.92157%);fill-opacity:1;" d="M 271.320312 688.039062 C 267.964844 688.113281 264.601562 688.328125 261.25 688.226562 C 255.984375 688.070312 253.667969 685.039062 254.648438 679.785156 C 258.785156 657.648438 262.9375 635.515625 267.0625 613.074219 C 268.636719 604.722656 270.28125 596.691406 271.8125 588.640625 C 274.621094 573.847656 277.359375 559.042969 280.609375 543.988281 C 290.640625 543.746094 300.1875 543.753906 309.738281 544.042969 C 308.8125 545.351562 308.074219 546.726562 306.925781 547.347656 C 300.355469 550.90625 293.605469 554.144531 287.109375 557.832031 C 285.542969 558.71875 284.113281 560.734375 283.636719 562.503906 C 282.519531 566.671875 282.019531 571 281.265625 575.589844 C 280.503906 581.441406 279.746094 586.96875 278.980469 592.800781 C 278.234375 597.90625 277.5 602.703125 276.742188 607.8125 C 276.207031 612.402344 275.691406 616.683594 274.980469 621.195312 C 273.964844 632.269531 273.144531 643.113281 272.382812 654.222656 C 272.121094 659.074219 271.800781 663.65625 271.441406 668.539062 C 270.894531 671.375 270.476562 673.941406 269.863281 676.457031 C 268.871094 680.527344 268.519531 684.46875 271.320312 688.039062 Z M 271.320312 688.039062 "/>
<path style=" stroke:none;fill-rule:nonzero;fill:rgb(32.156864%,17.647059%,83.137256%);fill-opacity:1;" d="M 311.316406 115.835938 C 307.78125 117.777344 304.222656 119.6875 300.492188 121.164062 C 285.144531 127.226562 270.90625 135.226562 257.789062 145.238281 C 256.75 146.027344 255.402344 146.40625 253.925781 146.960938 C 249.121094 136.527344 250.105469 126.476562 255.660156 116.726562 C 256.210938 115.765625 256.777344 114.8125 257.652344 113.535156 C 263.058594 107.371094 269.171875 103.078125 276.882812 101.660156 C 280.375 101.019531 284.011719 101.152344 287.582031 100.933594 C 297.378906 102.734375 305.574219 107.113281 311.316406 115.835938 Z M 311.316406 115.835938 "/>
<path style=" stroke:none;fill-rule:nonzero;fill:rgb(91.764706%,91.37255%,90.980393%);fill-opacity:1;" d="M 512.269531 255.386719 C 518.78125 255.488281 525.296875 255.585938 532.160156 255.734375 C 532.996094 258.070312 533.484375 260.355469 533.683594 262.945312 C 532.0625 263.765625 530.628906 264.109375 529.410156 264.828125 C 524.988281 267.445312 520.625 270.167969 516.273438 272.902344 C 515.582031 273.339844 515.058594 274.042969 514.21875 274.503906 C 507.894531 270.21875 504.257812 270.929688 497.734375 277.5 C 483.886719 277.800781 470.945312 275.632812 459.558594 267.925781 C 454.113281 264.242188 449.171875 259.820312 444.351562 255.703125 C 458.480469 255.59375 472.257812 255.515625 486.375 255.507812 C 490.480469 255.523438 494.246094 255.46875 498.34375 255.496094 C 501.207031 255.523438 503.738281 255.460938 506.589844 255.480469 C 508.699219 255.5 510.484375 255.445312 512.269531 255.386719 Z M 512.269531 255.386719 "/>
<path style=" stroke:none;fill-rule:nonzero;fill:rgb(34.117648%,20%,83.529413%);fill-opacity:1;" d="M 569.273438 417.363281 C 569.492188 406.890625 573.042969 398.277344 581.214844 391.847656 C 581.992188 391.238281 582.625 390.453125 583.410156 389.515625 C 587.316406 387.792969 591.136719 386.3125 595.234375 384.816406 C 599.53125 385.273438 603.589844 385.539062 607.5625 386.257812 C 619.902344 388.496094 630.175781 401.472656 630.898438 413.992188 C 631.851562 430.453125 619.832031 445.144531 602.671875 446.664062 C 597.574219 447.117188 592.246094 444.984375 586.734375 444.035156 C 579.894531 439.582031 573.941406 434.570312 571.433594 426.675781 C 570.503906 423.742188 570.027344 420.667969 569.273438 417.363281 M 618.394531 432.734375 C 625.199219 425.097656 626.082031 413.703125 620.542969 404.996094 C 614.699219 395.808594 603.492188 392.242188 593.035156 396.148438 C 584.773438 399.234375 576.867188 409.675781 578.964844 421.011719 C 580.640625 430.0625 585.800781 436.332031 594.355469 439.117188 C 603.214844 442.007812 611.296875 439.757812 618.394531 432.734375 Z M 618.394531 432.734375 "/>
<path style=" stroke:none;fill-rule:nonzero;fill:rgb(97.647059%,97.254902%,97.647059%);fill-opacity:1;" d="M 529.5 337.191406 C 519.296875 337.457031 509.097656 337.390625 498.476562 337.011719 C 493.902344 333.371094 489.714844 330.09375 485.609375 326.714844 C 479.789062 321.925781 474.03125 317.066406 468.628906 312.164062 C 473.054688 312.398438 477.097656 312.882812 481.148438 312.953125 C 486.539062 313.046875 491.933594 312.8125 497.539062 312.851562 C 502.710938 319.5 508.429688 321.171875 513.078125 316.492188 C 516.050781 313.5 517.550781 309.046875 519.921875 305.058594 C 520.53125 303 520.925781 301.128906 521.617188 299.253906 C 526.191406 297.5 530.46875 295.746094 534.746094 293.996094 C 534.746094 294.332031 534.746094 294.667969 534.542969 295.4375 C 534.472656 297.246094 534.609375 298.621094 534.75 299.996094 C 533.144531 310.691406 531.53125 321.386719 529.949219 332.085938 C 529.71875 333.664062 529.644531 335.265625 529.5 337.191406 Z M 529.5 337.191406 "/>
<path style=" stroke:none;fill-rule:nonzero;fill:rgb(50.196081%,39.607844%,87.843138%);fill-opacity:1;" d="M 534.179688 352.910156 C 532.085938 357.519531 530.0625 361.902344 527.882812 366.210938 C 525.800781 370.324219 523.554688 374.355469 520.929688 378.640625 C 508.328125 378.894531 496.171875 378.933594 483.945312 378.609375 C 483.871094 375.304688 483.871094 372.359375 483.871094 369.265625 C 482.1875 369.140625 481.09375 369.0625 480.042969 368.722656 C 484.445312 365.0625 488.996094 361.875 493.085938 358.179688 C 495.59375 355.914062 497.402344 352.875 499.523438 350.183594 C 500.476562 349.964844 501.433594 349.558594 502.386719 349.558594 C 513.054688 349.550781 523.722656 349.605469 534.761719 349.726562 C 534.816406 350.757812 534.496094 351.703125 534.179688 352.910156 Z M 534.179688 352.910156 "/>
<path style=" stroke:none;fill-rule:nonzero;fill:rgb(39.215687%,25.882354%,84.705883%);fill-opacity:1;" d="M 118.367188 475.539062 C 117.925781 475.046875 117.488281 474.554688 116.800781 474.003906 C 116.667969 468.84375 116.761719 463.738281 116.910156 458.636719 C 116.929688 457.917969 117.21875 457.210938 117.8125 456.25 C 119.546875 456.828125 121.144531 457.398438 122.097656 458.515625 C 128.480469 466 136.507812 470.703125 146.289062 470.863281 C 159.414062 471.078125 169.34375 465.050781 175.785156 453.386719 C 176.601562 451.910156 178.613281 451.09375 180.074219 449.96875 C 181.355469 455.421875 182.632812 460.878906 183.964844 466.644531 C 183.832031 467.695312 183.648438 468.433594 183.121094 469.179688 C 180.355469 470.914062 177.859375 472.546875 175.523438 474.378906 C 159.550781 486.894531 139.917969 487.835938 122.800781 476.957031 C 121.53125 476.148438 119.851562 475.996094 118.367188 475.539062 Z M 118.367188 475.539062 "/>
<path style=" stroke:none;fill-rule:nonzero;fill:rgb(43.137255%,30.588236%,85.882354%);fill-opacity:1;" d="M 180.046875 449.707031 C 178.613281 451.09375 176.601562 451.910156 175.785156 453.386719 C 169.34375 465.050781 159.414062 471.078125 146.289062 470.863281 C 136.507812 470.703125 128.480469 466 122.097656 458.515625 C 121.144531 457.398438 119.546875 456.828125 117.960938 455.996094 C 119.027344 449.75 122.4375 444.742188 127.503906 440.363281 C 128.808594 441.332031 130.058594 442.246094 130.34375 443.398438 C 132.3125 451.304688 141.257812 457.496094 148.867188 456.765625 C 157.203125 455.964844 163.867188 449.34375 165.085938 440.738281 C 165.304688 439.210938 166.625 437.839844 167.433594 436.394531 C 173.175781 439.253906 176.929688 444.03125 180.046875 449.707031 Z M 180.046875 449.707031 "/>
<path style=" stroke:none;fill-rule:nonzero;fill:rgb(84.313726%,80.784315%,96.862745%);fill-opacity:1;" d="M 484.019531 378.96875 C 496.171875 378.933594 508.328125 378.894531 520.824219 378.890625 C 520.703125 380.171875 520.234375 381.421875 519.792969 382.929688 C 515.589844 388.859375 511.503906 394.640625 507.09375 400.167969 C 503.921875 404.144531 500.320312 407.785156 496.671875 411.671875 C 492.683594 411.75 488.933594 411.734375 484.703125 411.464844 C 484.152344 400.460938 484.085938 389.714844 484.019531 378.96875 Z M 484.019531 378.96875 "/>
<path style=" stroke:none;fill-rule:nonzero;fill:rgb(47.058824%,35.686275%,86.666667%);fill-opacity:1;" d="M 167.285156 436.1875 C 166.625 437.839844 165.304688 439.210938 165.085938 440.738281 C 163.867188 449.34375 157.203125 455.964844 148.867188 456.765625 C 141.257812 457.496094 132.3125 451.304688 130.34375 443.398438 C 130.058594 442.246094 128.808594 441.332031 127.734375 440.269531 C 127.902344 439.628906 128.339844 439.023438 128.875 438.210938 C 133.585938 436.003906 138.074219 433.601562 142.84375 432.097656 C 149.722656 429.925781 156.566406 431.589844 163.550781 433.554688 C 164.925781 434.375 166.03125 435.179688 167.285156 436.1875 Z M 167.285156 436.1875 "/>
<path style=" stroke:none;fill-rule:nonzero;fill:rgb(45.882353%,33.333334%,87.843138%);fill-opacity:1;" d="M 487.304688 525.023438 C 487.53125 531.308594 487.757812 537.597656 487.558594 544.207031 C 482.5 544.53125 477.867188 544.535156 472.90625 544.53125 C 466.445312 544.707031 460.3125 544.894531 454.144531 544.746094 C 454.035156 538.195312 453.957031 531.980469 454.179688 525.714844 C 455.808594 525.441406 457.140625 525.035156 458.476562 525.03125 C 468.085938 524.980469 477.695312 525.015625 487.304688 525.023438 Z M 487.304688 525.023438 "/>
<path style=" stroke:none;fill-rule:nonzero;fill:rgb(54.509807%,43.921569%,90.980393%);fill-opacity:1;" d="M 287.496094 100.6875 C 284.011719 101.152344 280.375 101.019531 276.882812 101.660156 C 269.171875 103.078125 263.058594 107.371094 257.738281 113.28125 C 255.398438 105.265625 253.292969 97.183594 251.152344 88.796875 C 260.570312 89.023438 268.128906 85.359375 274.304688 78.007812 C 278.832031 85.417969 283.121094 92.933594 287.496094 100.6875 Z M 287.496094 100.6875 "/>
<path style=" stroke:none;fill-rule:nonzero;fill:rgb(49.019608%,37.254903%,89.019608%);fill-opacity:1;" d="M 510.015625 593.71875 C 499.773438 599.996094 489.457031 606.042969 479.101562 612.027344 C 477.949219 612.695312 476.589844 613.011719 474.839844 613.324219 C 472.742188 608.269531 471.136719 603.386719 469.808594 598.5 C 477.011719 594.75 484.042969 591.1875 490.820312 587.191406 C 494.46875 585.035156 497.6875 582.140625 501.097656 579.582031 C 504.039062 584.210938 506.984375 588.839844 510.015625 593.71875 Z M 510.015625 593.71875 "/>
<path style=" stroke:none;fill-rule:nonzero;fill:rgb(50.588238%,39.607844%,89.411765%);fill-opacity:1;" d="M 487.375 524.695312 C 477.695312 525.015625 468.085938 524.980469 458.476562 525.03125 C 457.140625 525.035156 455.808594 525.441406 454.109375 525.378906 C 453.476562 520.566406 453.210938 516.039062 452.945312 511.507812 C 455.320312 510.753906 457.667969 509.472656 460.074219 509.351562 C 466.28125 509.042969 472.515625 509.1875 478.738281 509.285156 C 480.945312 509.316406 483.148438 509.738281 485.671875 509.992188 C 486.472656 514.789062 486.957031 519.578125 487.375 524.695312 Z M 487.375 524.695312 "/>
<path style=" stroke:none;fill-rule:nonzero;fill:rgb(93.725491%,93.333334%,93.333334%);fill-opacity:1;" d="M 534.746094 293.644531 C 530.46875 295.746094 526.191406 297.5 521.59375 298.902344 C 521.597656 291.359375 521.285156 284.296875 516.828125 277.878906 C 515.980469 276.640625 515.21875 275.628906 514.457031 274.621094 C 515.058594 274.042969 515.582031 273.339844 516.273438 272.902344 C 520.625 270.167969 524.988281 267.445312 529.410156 264.828125 C 530.628906 264.109375 532.0625 263.765625 533.683594 263.242188 C 534.230469 273.257812 534.488281 283.273438 534.746094 293.644531 Z M 534.746094 293.644531 "/>
<path style=" stroke:none;fill-rule:nonzero;fill:rgb(45.882353%,33.333334%,87.843138%);fill-opacity:1;" d="M 501.042969 579.328125 C 497.6875 582.140625 494.46875 585.035156 490.820312 587.191406 C 484.042969 591.1875 477.011719 594.75 469.6875 598.25 C 468.351562 594.425781 467.417969 590.847656 466.601562 587.042969 C 470.3125 584.675781 473.925781 582.566406 477.5 580.394531 C 483.574219 576.699219 489.625 572.964844 495.6875 569.246094 C 497.453125 572.523438 499.21875 575.800781 501.042969 579.328125 Z M 501.042969 579.328125 "/>
<path style=" stroke:none;fill-rule:nonzero;fill:rgb(49.019608%,37.254903%,89.019608%);fill-opacity:1;" d="M 283.429688 518.546875 C 293.355469 519.996094 303.195312 521.730469 313.035156 523.488281 C 314.125 523.683594 315.195312 524.011719 316.554688 524.628906 C 316.234375 529.488281 315.640625 533.996094 314.800781 538.394531 C 312.398438 537.457031 310.304688 536.316406 308.070312 535.867188 C 299.367188 534.121094 290.621094 532.589844 281.890625 530.980469 C 282.375 526.933594 282.859375 522.886719 283.429688 518.546875 Z M 283.429688 518.546875 "/>
<path style=" stroke:none;fill-rule:nonzero;fill:rgb(42.352942%,29.803923%,87.058824%);fill-opacity:1;" d="M 495.652344 568.984375 C 489.625 572.964844 483.574219 576.699219 477.5 580.394531 C 473.925781 582.566406 470.3125 584.675781 466.390625 586.859375 C 465.207031 582.769531 464.34375 578.632812 463.726562 574.394531 C 473.027344 569.109375 482.085938 563.925781 491.144531 558.742188 C 492.636719 562.066406 494.128906 565.394531 495.652344 568.984375 Z M 495.652344 568.984375 "/>
<path style=" stroke:none;fill-rule:nonzero;fill:rgb(43.137255%,30.588236%,85.882354%);fill-opacity:1;" d="M 281.75 531.246094 C 290.621094 532.589844 299.367188 534.121094 308.070312 535.867188 C 310.304688 536.316406 312.398438 537.457031 314.828125 538.699219 C 314.90625 540.683594 314.707031 542.253906 314.167969 543.800781 C 312.460938 543.773438 311.101562 543.769531 309.738281 543.765625 C 300.1875 543.753906 290.640625 543.746094 280.726562 543.722656 C 280.78125 539.644531 281.195312 535.578125 281.75 531.246094 Z M 281.75 531.246094 "/>
<path style=" stroke:none;fill-rule:nonzero;fill:rgb(37.64706%,24.313726%,84.705883%);fill-opacity:1;" d="M 491.128906 558.464844 C 482.085938 563.925781 473.027344 569.109375 463.511719 574.195312 C 462.703125 570.984375 462.34375 567.867188 462.21875 564.640625 C 471.058594 559.351562 479.667969 554.175781 488.277344 549 C 489.222656 552.0625 490.167969 555.125 491.128906 558.464844 Z M 491.128906 558.464844 "/>
<path style=" stroke:none;fill-rule:nonzero;fill:rgb(35.686275%,21.568628%,83.92157%);fill-opacity:1;" d="M 488.300781 548.679688 C 479.667969 554.175781 471.058594 559.351562 462.003906 564.433594 C 461.304688 562.644531 461.167969 560.921875 460.761719 559.269531 C 460.035156 556.320312 460.414062 553.976562 463.425781 552.46875 C 465.847656 551.257812 468.296875 550.011719 470.457031 548.410156 C 471.671875 547.507812 472.328125 545.855469 473.234375 544.542969 C 477.867188 544.535156 482.5 544.53125 487.445312 544.542969 C 487.945312 545.820312 488.136719 547.089844 488.300781 548.679688 Z M 488.300781 548.679688 "/>
<path style=" stroke:none;fill-rule:nonzero;fill:rgb(93.725491%,93.333334%,93.333334%);fill-opacity:1;" d="M 534.75 299.675781 C 534.609375 298.621094 534.472656 297.246094 534.539062 295.6875 C 534.746094 296.789062 534.75 298.070312 534.75 299.675781 Z M 534.75 299.675781 "/>
<path style=" stroke:none;fill-rule:nonzero;fill:rgb(100%,100%,100%);fill-opacity:1;" d="M 314.511719 543.820312 C 314.707031 542.253906 314.90625 540.683594 315.074219 538.8125 C 315.640625 533.996094 316.234375 529.488281 316.878906 524.644531 C 318.777344 509.730469 320.625 495.148438 322.488281 480.574219 C 323.214844 474.886719 323.980469 469.207031 324.765625 463.222656 C 333.628906 464.332031 342.414062 466.269531 351.296875 467.042969 C 376.949219 469.28125 401.976562 465.898438 426.300781 457.433594 C 430.292969 456.042969 434.222656 454.472656 438.464844 452.988281 C 442.363281 465.683594 446.238281 478.304688 449.472656 491.089844 C 451.117188 497.582031 451.601562 504.363281 452.777344 511.261719 C 453.210938 516.039062 453.476562 520.566406 453.8125 525.429688 C 453.957031 531.980469 454.035156 538.195312 454.03125 545.039062 C 453.695312 549.636719 453.445312 553.609375 453.175781 557.582031 C 452.019531 574.710938 450.859375 591.835938 449.699219 608.964844 C 423.304688 608.476562 396.914062 607.820312 370.515625 607.570312 C 356.949219 607.441406 343.375 608.039062 329.273438 608.136719 C 327.113281 604.058594 325.480469 600.152344 323.851562 595.96875 C 322.65625 592.128906 321.460938 588.566406 320.269531 584.707031 C 319.339844 580.84375 318.410156 577.277344 317.460938 573.386719 C 316.617188 568.042969 315.785156 563.019531 315.003906 557.65625 C 314.871094 552.820312 314.691406 548.320312 314.511719 543.820312 Z M 314.511719 543.820312 "/>
<path style=" stroke:none;fill-rule:nonzero;fill:rgb(32.549021%,17.647059%,83.529413%);fill-opacity:1;" d="M 449.761719 609.273438 C 450.859375 591.835938 452.019531 574.710938 453.175781 557.582031 C 453.445312 553.609375 453.695312 549.636719 454.066406 545.371094 C 460.3125 544.894531 466.445312 544.707031 472.90625 544.53125 C 472.328125 545.855469 471.671875 547.507812 470.457031 548.410156 C 468.296875 550.011719 465.847656 551.257812 463.425781 552.46875 C 460.414062 553.976562 460.035156 556.320312 460.761719 559.269531 C 461.167969 560.921875 461.304688 562.644531 461.773438 564.542969 C 462.34375 567.867188 462.703125 570.984375 463.273438 574.296875 C 464.34375 578.632812 465.207031 582.769531 466.277344 587.089844 C 467.417969 590.847656 468.351562 594.425781 469.40625 598.253906 C 471.136719 603.386719 472.742188 608.269531 474.558594 613.324219 C 480.09375 627.210938 485.28125 640.953125 495.046875 652.414062 C 499.40625 657.527344 499.027344 663.964844 498.472656 670.285156 C 498.136719 674.128906 497.894531 678.027344 498.210938 681.851562 C 498.359375 683.636719 499.929688 685.300781 500.871094 687.269531 C 484.773438 687.597656 468.660156 687.71875 452.546875 687.726562 C 447.664062 687.730469 444.925781 684.710938 445.238281 679.835938 C 446.738281 656.417969 448.289062 633 449.761719 609.273438 Z M 449.761719 609.273438 "/>
<path style=" stroke:none;fill-rule:nonzero;fill:rgb(53.725493%,43.137255%,90.588236%);fill-opacity:1;" d="M 323.847656 596.242188 C 325.480469 600.152344 327.113281 604.058594 328.914062 608.164062 C 335.246094 622.652344 343.714844 635.402344 354.546875 646.582031 C 356.699219 648.800781 358.71875 651.148438 360.492188 653.707031 C 356.621094 653.988281 353.058594 653.996094 349.144531 654.003906 C 345.027344 654.007812 341.257812 654.011719 337.140625 654.011719 C 316.519531 654.25 296.253906 654.492188 275.738281 654.625 C 274.433594 654.328125 273.378906 654.144531 272.324219 653.957031 C 273.144531 643.113281 273.964844 632.269531 275.273438 621.203125 C 277.144531 620.464844 278.605469 620.085938 279.90625 619.402344 C 294.570312 611.710938 309.207031 603.96875 323.847656 596.242188 Z M 323.847656 596.242188 "/>
<path style=" stroke:none;fill-rule:nonzero;fill:rgb(50.588238%,39.607844%,89.411765%);fill-opacity:1;" d="M 349.496094 654.003906 C 353.058594 653.996094 356.621094 653.988281 360.550781 653.960938 C 361.34375 655.757812 361.777344 657.574219 361.898438 659.699219 C 360.828125 660.707031 359.851562 661.28125 359.335938 662.132812 C 353.367188 672 346.335938 680.769531 335.574219 685.84375 C 335.046875 686.089844 334.84375 687.027344 334.492188 687.644531 C 313.667969 687.859375 292.84375 688.074219 271.671875 688.164062 C 268.519531 684.46875 268.871094 680.527344 269.863281 676.457031 C 270.476562 673.941406 270.894531 671.375 271.707031 668.566406 C 273.53125 669.351562 275.136719 670.300781 276.566406 671.46875 C 285.71875 678.941406 296.503906 682.65625 307.988281 682.265625 C 322.195312 681.78125 334.492188 675.816406 343.628906 664.585938 C 346.132812 661.503906 347.570312 657.554688 349.496094 654.003906 Z M 349.496094 654.003906 "/>
<path style=" stroke:none;fill-rule:nonzero;fill:rgb(49.019608%,37.254903%,89.019608%);fill-opacity:1;" d="M 566.285156 671.652344 C 560.347656 673.246094 554.464844 675.425781 548.542969 675.527344 C 539.191406 675.683594 529.960938 673.628906 521.960938 668.390625 C 517.53125 665.492188 513.605469 661.816406 509.558594 658.363281 C 508.503906 657.457031 507.851562 656.078125 506.351562 654 C 511.992188 654 516.648438 654 521.675781 654.261719 C 522.460938 655.136719 522.738281 655.917969 523.292969 656.324219 C 532.652344 663.195312 543.066406 665.933594 554.570312 663.972656 C 558.460938 663.308594 562.296875 662.328125 566.160156 661.492188 C 566.214844 664.761719 566.269531 668.035156 566.285156 671.652344 Z M 566.285156 671.652344 "/>
<path style=" stroke:none;fill-rule:nonzero;fill:rgb(45.882353%,33.333334%,87.843138%);fill-opacity:1;" d="M 566.199219 661.160156 C 562.296875 662.328125 558.460938 663.308594 554.570312 663.972656 C 543.066406 665.933594 532.652344 663.195312 523.292969 656.324219 C 522.738281 655.917969 522.460938 655.136719 522.027344 654.265625 C 536.304688 653.992188 550.605469 653.980469 565.269531 653.953125 C 565.832031 656.234375 566.035156 658.53125 566.199219 661.160156 Z M 566.199219 661.160156 "/>
<path style=" stroke:none;fill-rule:nonzero;fill:rgb(53.725493%,43.137255%,90.588236%);fill-opacity:1;" d="M 334.839844 687.695312 C 334.84375 687.027344 335.046875 686.089844 335.574219 685.84375 C 346.335938 680.769531 353.367188 672 359.335938 662.132812 C 359.851562 661.28125 360.828125 660.707031 361.855469 659.996094 C 360.804688 667.664062 359.734375 675.398438 358.066406 683 C 357.390625 686.09375 354.664062 687.769531 351.246094 687.753906 C 345.894531 687.730469 340.542969 687.746094 334.839844 687.695312 Z M 334.839844 687.695312 "/>
<path style=" stroke:none;fill-rule:nonzero;fill:rgb(32.156864%,17.647059%,83.137256%);fill-opacity:1;" d="M 483.945312 378.609375 C 484.085938 389.714844 484.152344 400.460938 484.351562 411.492188 C 484.351562 421.453125 484.351562 421.457031 474.460938 421.464844 C 459.605469 421.476562 444.75 421.488281 429.898438 421.496094 C 428.546875 421.5 427.199219 421.496094 425.210938 421.496094 C 425.210938 418.222656 425.210938 415.28125 425.175781 411.984375 C 425.121094 400.964844 425.105469 390.300781 425.101562 378.945312 C 425.117188 375.316406 425.117188 372.378906 425.117188 369.015625 C 433.863281 369.015625 441.933594 369.015625 450.351562 369.03125 C 460.46875 369.027344 470.230469 369.003906 479.996094 368.980469 C 481.09375 369.0625 482.1875 369.140625 483.871094 369.265625 C 483.871094 372.359375 483.871094 375.304688 483.945312 378.609375 M 451.203125 400.277344 C 451.203125 396.53125 451.265625 392.78125 451.148438 389.035156 C 451.128906 388.398438 450.347656 387.785156 449.917969 387.160156 C 449.511719 387.804688 448.789062 388.433594 448.746094 389.105469 C 448.605469 391.527344 448.691406 393.960938 448.691406 396.394531 C 446.753906 394.769531 445.667969 392.867188 444.363281 391.125 C 443.097656 389.433594 442.769531 386.277344 438.945312 387.566406 C 438.945312 391.488281 438.878906 395.460938 439 399.425781 C 439.023438 400.222656 439.742188 400.996094 440.140625 401.78125 C 440.609375 400.941406 441.40625 400.132812 441.484375 399.257812 C 441.675781 397.011719 441.546875 394.738281 441.546875 392.472656 C 444.085938 394.953125 445.730469 397.5625 447.441406 400.128906 C 448.386719 401.542969 449.429688 402.964844 451.203125 400.277344 M 459.929688 389.382812 C 460.519531 389.0625 461.109375 388.742188 461.699219 388.421875 C 461.234375 387.972656 460.792969 387.179688 460.296875 387.140625 C 458.34375 386.992188 456.375 387.078125 454.207031 387.078125 C 454.207031 392.132812 454.207031 396.796875 454.207031 401.878906 C 456.300781 401.878906 458.144531 401.980469 459.96875 401.824219 C 460.660156 401.765625 461.296875 401.105469 461.960938 400.722656 C 461.238281 400.261719 460.570312 399.636719 459.785156 399.390625 C 458.886719 399.109375 457.886719 399.167969 456.613281 399.046875 C 456.722656 397.804688 456.816406 396.792969 456.859375 396.308594 C 458.671875 395.585938 459.957031 395.074219 461.242188 394.558594 C 459.882812 393.847656 458.523438 393.140625 456.703125 392.191406 C 456.210938 390.5625 456.453125 389.09375 459.929688 389.382812 M 469.359375 397.703125 C 469.359375 395.003906 469.359375 392.308594 469.359375 389.777344 C 471.011719 389.359375 472.175781 389.0625 473.917969 388.621094 C 470.378906 386.355469 464.382812 386.621094 462.625 388.863281 C 463.980469 389.191406 465.214844 389.488281 466.660156 389.839844 C 466.660156 392.78125 466.53125 395.648438 466.726562 398.492188 C 466.804688 399.617188 467.609375 400.6875 468.085938 401.785156 C 468.511719 400.652344 468.9375 399.519531 469.359375 397.703125 Z M 469.359375 397.703125 "/>
<path style=" stroke:none;fill-rule:nonzero;fill:rgb(32.156864%,17.647059%,83.137256%);fill-opacity:1;" d="M 238.742188 336.84375 C 233.414062 331.660156 228.996094 326.023438 227.988281 318.742188 C 227.34375 314.050781 227.917969 309.191406 227.9375 304.09375 C 228.066406 303.347656 228.199219 302.914062 228.734375 302.507812 C 231.691406 308.84375 233.890625 315.171875 239.265625 320.074219 C 247.660156 327.738281 262.773438 329.8125 272.234375 323.484375 C 280.890625 317.691406 286.207031 309.863281 285.824219 298.894531 C 285.757812 297.035156 286.660156 295.148438 287.253906 293.5 C 291.582031 300.484375 293.710938 307.734375 292.636719 316.039062 C 291.539062 319.878906 290.5 323.417969 289.269531 327.113281 C 285.703125 331.15625 282.335938 335.039062 278.964844 338.921875 C 273.371094 341.949219 267.730469 344.320312 261.078125 344.410156 C 252.679688 344.527344 245.496094 341.945312 238.742188 336.84375 Z M 238.742188 336.84375 "/>
<path style=" stroke:none;fill-rule:nonzero;fill:rgb(35.686275%,21.568628%,83.92157%);fill-opacity:1;" d="M 287.117188 293.273438 C 286.660156 295.148438 285.757812 297.035156 285.824219 298.894531 C 286.207031 309.863281 280.890625 317.691406 272.234375 323.484375 C 262.773438 329.8125 247.660156 327.738281 239.265625 320.074219 C 233.890625 315.171875 231.691406 308.84375 228.914062 302.367188 C 230.105469 296.207031 233.421875 291.421875 238.460938 287.511719 C 238.691406 288.617188 238.574219 289.683594 238.28125 290.699219 C 235.941406 298.753906 235.9375 306.464844 241.679688 313.277344 C 247.488281 320.164062 255.363281 321.816406 263.445312 319.894531 C 278.195312 316.382812 284.8125 298.351562 274.175781 285.03125 C 273.429688 284.09375 272.890625 282.992188 272.253906 281.964844 C 273.316406 282.210938 274.378906 282.460938 275.832031 282.972656 C 278.882812 285.113281 281.546875 286.988281 284.324219 289.074219 C 285.328125 290.613281 286.222656 291.941406 287.117188 293.273438 Z M 287.117188 293.273438 "/>
<path style=" stroke:none;fill-rule:nonzero;fill:rgb(39.215687%,25.882354%,84.705883%);fill-opacity:1;" d="M 272.125 281.769531 C 272.890625 282.992188 273.429688 284.09375 274.175781 285.03125 C 284.8125 298.351562 278.195312 316.382812 263.445312 319.894531 C 255.363281 321.816406 247.488281 320.164062 241.679688 313.277344 C 235.9375 306.464844 235.941406 298.753906 238.28125 290.699219 C 238.574219 289.683594 238.691406 288.617188 238.683594 287.398438 C 241.414062 285.140625 244.347656 283.050781 247.398438 280.738281 C 250.0625 280.007812 252.605469 279.511719 255.453125 278.988281 C 258.523438 278.976562 261.292969 278.984375 264.691406 279.003906 C 266.632812 279.257812 267.941406 279.503906 269.25 279.75 C 270.167969 280.355469 271.082031 280.964844 272.125 281.769531 M 253.535156 284.347656 C 246.222656 287.621094 241.425781 294.300781 242.3125 300.253906 C 243.617188 309 250.542969 316.296875 261.371094 314.277344 C 271.699219 312.347656 276.914062 298.703125 270.535156 290.367188 C 266.28125 284.8125 260.777344 283.132812 253.535156 284.347656 Z M 253.535156 284.347656 "/>
<path style=" stroke:none;fill-rule:nonzero;fill:rgb(56.078434%,46.666667%,89.019608%);fill-opacity:1;" d="M 289.464844 326.953125 C 290.5 323.417969 291.539062 319.878906 292.90625 316.042969 C 294.320312 316.394531 295.660156 316.816406 296.453125 317.722656 C 303.09375 325.292969 308.980469 333.667969 316.390625 340.375 C 323.597656 346.898438 331.84375 352.703125 340.511719 357.082031 C 353.722656 363.757812 367.734375 368.304688 382.894531 369.289062 C 393.558594 369.980469 404.089844 369.769531 414.433594 367.824219 C 428.574219 365.160156 441.949219 359.984375 454.191406 352.230469 C 454.988281 351.722656 455.394531 350.597656 455.984375 349.761719 C 462.265625 349.894531 468.542969 350.027344 475.140625 350.4375 C 469.96875 354.8125 464.519531 358.957031 458.980469 362.980469 C 456.066406 365.101562 453 367.011719 450 369.015625 C 441.933594 369.015625 433.863281 369.015625 425.117188 369.015625 C 425.117188 372.378906 425.117188 375.316406 425.042969 378.613281 C 402.796875 378.917969 380.625 378.867188 358.097656 378.488281 C 357.894531 374.832031 354.890625 375.019531 353.078125 374.417969 C 340.957031 370.394531 329.847656 364.429688 319.382812 357.230469 C 307.496094 349.054688 297.859375 338.605469 289.464844 326.953125 Z M 289.464844 326.953125 "/>
<path style=" stroke:none;fill-rule:nonzero;fill:rgb(53.333336%,43.529412%,88.627452%);fill-opacity:1;" d="M 289.269531 327.113281 C 297.859375 338.605469 307.496094 349.054688 319.382812 357.230469 C 329.847656 364.429688 340.957031 370.394531 353.078125 374.417969 C 354.890625 375.019531 357.894531 374.832031 357.75 378.457031 C 344.484375 378.777344 331.21875 378.800781 317.601562 378.789062 C 316.304688 377.195312 315.71875 375.125 314.355469 374.15625 C 301.503906 365.019531 289.789062 354.714844 280.242188 342.089844 C 279.675781 341.335938 279.402344 340.363281 278.980469 339.207031 C 282.335938 335.039062 285.703125 331.15625 289.269531 327.113281 Z M 289.269531 327.113281 "/>
<path style=" stroke:none;fill-rule:nonzero;fill:rgb(54.509807%,44.705883%,88.627452%);fill-opacity:1;" d="M 269.25 279.417969 C 267.941406 279.503906 266.632812 279.257812 265.039062 278.996094 C 263.75 272.667969 262.132812 266.386719 261.871094 260.050781 C 261.15625 243 263.707031 226.339844 269.53125 210.25 C 274.835938 195.589844 282.664062 182.394531 292.660156 170.445312 C 306.019531 154.46875 322.394531 142.480469 341.425781 134.28125 C 352.128906 129.671875 363.265625 126.074219 375.054688 125.226562 C 382.359375 124.699219 389.671875 123.742188 396.96875 123.851562 C 413.675781 124.105469 429.550781 128.21875 444.992188 134.648438 C 463.496094 142.347656 478.636719 154.441406 491.875 169.09375 C 501.707031 179.984375 509.457031 192.324219 514.308594 206.222656 C 517.371094 214.996094 520.234375 223.925781 522.070312 233.011719 C 523.476562 239.957031 523.132812 247.253906 523.542969 254.671875 C 521.925781 254.953125 520.335938 254.953125 518.820312 254.953125 C 518.109375 248.40625 517.6875 242.226562 516.707031 236.136719 C 515.683594 229.78125 514.832031 223.246094 512.621094 217.261719 C 509.3125 208.3125 505.46875 199.449219 500.804688 191.136719 C 490.027344 171.921875 474.332031 157.359375 455.558594 146.070312 C 443.597656 138.878906 430.464844 134.265625 416.941406 131.578125 C 402.652344 128.738281 388.078125 128.992188 373.496094 130.988281 C 360.976562 132.699219 349.289062 136.71875 338.03125 141.976562 C 326.023438 147.582031 315.460938 155.417969 305.839844 164.640625 C 289.730469 180.089844 278.457031 198.441406 272.28125 219.773438 C 270.019531 227.585938 269.136719 235.804688 267.769531 243.863281 C 265.957031 254.566406 267.597656 265.144531 269.179688 275.714844 C 269.347656 276.816406 269.234375 277.960938 269.25 279.417969 Z M 269.25 279.417969 "/>
<path style=" stroke:none;fill-rule:nonzero;fill:rgb(35.686275%,21.568628%,83.92157%);fill-opacity:1;" d="M 118.402344 475.828125 C 119.851562 475.996094 121.53125 476.148438 122.800781 476.957031 C 139.917969 487.835938 159.550781 486.894531 175.523438 474.378906 C 177.859375 472.546875 180.355469 470.914062 182.925781 469.382812 C 182.730469 481.542969 172.789062 493.328125 159.578125 497.425781 C 143.964844 502.269531 125.96875 494.199219 119.300781 479.320312 C 118.855469 478.324219 118.71875 477.191406 118.402344 475.828125 Z M 118.402344 475.828125 "/>
<path style=" stroke:none;fill-rule:nonzero;fill:rgb(56.862748%,47.450981%,89.411765%);fill-opacity:1;" d="M 284.210938 288.863281 C 281.546875 286.988281 278.882812 285.113281 276.105469 283.007812 C 275.21875 276.632812 274.054688 270.503906 273.773438 264.335938 C 273.421875 256.550781 273.234375 248.675781 273.976562 240.933594 C 275.148438 228.738281 278.8125 217.105469 283.976562 205.960938 C 292.550781 187.464844 304.496094 171.863281 321.035156 159.554688 C 334.675781 149.402344 349.644531 142.578125 365.871094 138.25 C 370.753906 136.945312 375.886719 135.859375 380.894531 135.898438 C 392.175781 135.980469 403.394531 135.375 414.761719 137.570312 C 428.054688 140.136719 440.445312 144.445312 451.996094 151.101562 C 468.136719 160.398438 481.8125 172.460938 492.109375 188.277344 C 502.199219 203.769531 508.78125 220.492188 511.339844 238.746094 C 512.082031 244.023438 511.972656 249.414062 512.261719 255.070312 C 510.484375 255.445312 508.699219 255.5 506.585938 255.160156 C 506.007812 250.171875 505.90625 245.570312 505.480469 241 C 504.183594 227.191406 499.800781 214.25 493.359375 202.109375 C 486.921875 189.980469 478.78125 179.15625 468.289062 169.957031 C 455.113281 158.402344 440.101562 150.539062 423.535156 145.550781 C 410.613281 141.664062 397.347656 139.757812 383.816406 141.773438 C 376.605469 142.847656 369.3125 143.710938 362.265625 145.503906 C 349.472656 148.765625 337.8125 154.746094 327.050781 162.332031 C 318.171875 168.585938 310.609375 176.207031 303.714844 184.691406 C 292.023438 199.070312 285.132812 215.496094 281.277344 233.339844 C 279.09375 243.4375 278.929688 253.742188 279.769531 264.03125 C 280.058594 267.609375 280.359375 271.207031 281.015625 274.726562 C 281.898438 279.472656 283.128906 284.15625 284.210938 288.863281 Z M 284.210938 288.863281 "/>
<path style=" stroke:none;fill-rule:nonzero;fill:rgb(99.607843%,99.215686%,99.607843%);fill-opacity:1;" d="M 416.769531 337.179688 C 409.917969 337.246094 403.0625 337.363281 396.210938 337.375 C 379.5 337.402344 362.789062 337.371094 346.074219 337.386719 C 342.054688 337.390625 338.417969 336.5 335.507812 332.878906 C 335.082031 332.136719 334.824219 331.804688 334.542969 331.136719 C 334.441406 328.792969 334.367188 326.78125 334.355469 324.421875 C 334.433594 323.449219 334.460938 322.824219 334.457031 322.199219 C 334.261719 303.613281 334.023438 285.027344 333.882812 266.441406 C 333.828125 259.464844 337.316406 255.707031 343.9375 255.671875 C 356.542969 255.605469 369.144531 255.699219 381.789062 255.988281 C 385.402344 261.34375 388.464844 266.664062 389.097656 273.195312 C 378.828125 281.703125 376.96875 301.777344 385.234375 313.476562 C 390.6875 321.191406 398.480469 321.113281 403.621094 313.117188 C 405 310.976562 405.6875 308.390625 406.867188 305.789062 C 407.480469 303.214844 407.921875 300.859375 408.617188 298.511719 C 409.433594 298.746094 410.089844 298.851562 410.542969 299.210938 C 418.546875 305.582031 425.957031 312.753906 435.304688 317.320312 C 436.222656 317.765625 436.625 319.273438 437.140625 320.503906 C 430.265625 326.203125 423.515625 331.691406 416.769531 337.179688 Z M 416.769531 337.179688 "/>
<path style=" stroke:none;fill-rule:nonzero;fill:rgb(59.607846%,50.588238%,90.196079%);fill-opacity:1;" d="M 334.292969 324.769531 C 334.367188 326.78125 334.441406 328.792969 334.359375 331.246094 C 334.320312 332.140625 334.4375 332.585938 334.554688 333.035156 C 334.542969 336.039062 334.53125 339.042969 334.273438 342.371094 C 318.945312 333.128906 307.59375 320.117188 299.285156 304.457031 C 293.046875 292.703125 289.46875 280.105469 287.890625 266.839844 C 285.96875 250.714844 287.648438 235 292.976562 219.800781 C 298.570312 203.859375 307.59375 190.015625 319.964844 178.292969 C 331.199219 167.652344 344.050781 159.878906 358.589844 154.878906 C 372.757812 150.007812 387.25 148.738281 402.289062 149.757812 C 417.359375 150.78125 431.214844 155.316406 444.09375 162.296875 C 461.449219 171.703125 475.167969 185.394531 484.980469 202.71875 C 491.101562 213.53125 495.167969 225.144531 497.128906 237.363281 C 498.078125 243.273438 497.757812 249.390625 498.011719 255.410156 C 494.246094 255.46875 490.480469 255.523438 486.363281 255.191406 C 485.964844 244.664062 484.285156 234.863281 480.976562 225.214844 C 473.285156 202.789062 459.261719 185.667969 438.699219 174.039062 C 427.484375 167.695312 415.558594 163.527344 402.4375 162.585938 C 392.050781 161.84375 381.867188 161.753906 371.730469 164.273438 C 346.78125 170.480469 327.203125 184.253906 313.632812 206.121094 C 301.90625 225.015625 297.816406 245.691406 300.730469 267.71875 C 303.328125 287.332031 311.535156 304.390625 325.011719 318.773438 C 327.417969 321.34375 329.496094 325.46875 334.292969 324.769531 Z M 334.292969 324.769531 "/>
<path style=" stroke:none;fill-rule:nonzero;fill:rgb(57.647061%,48.627451%,89.411765%);fill-opacity:1;" d="M 498.34375 255.496094 C 497.757812 249.390625 498.078125 243.273438 497.128906 237.363281 C 495.167969 225.144531 491.101562 213.53125 484.980469 202.71875 C 475.167969 185.394531 461.449219 171.703125 444.09375 162.296875 C 431.214844 155.316406 417.359375 150.78125 402.289062 149.757812 C 387.25 148.738281 372.757812 150.007812 358.589844 154.878906 C 344.050781 159.878906 331.199219 167.652344 319.964844 178.292969 C 307.59375 190.015625 298.570312 203.859375 292.976562 219.800781 C 287.648438 235 285.96875 250.714844 287.890625 266.839844 C 289.46875 280.105469 293.046875 292.703125 299.285156 304.457031 C 307.59375 320.117188 318.945312 333.128906 334.292969 342.71875 C 336.957031 347.277344 340.328125 350.21875 346.1875 349.929688 C 347.144531 350.933594 347.640625 352.027344 348.398438 352.261719 C 358.691406 355.410156 368.851562 359.894531 379.382812 361.089844 C 390.214844 362.316406 401.566406 363.046875 412.457031 359.941406 C 420.90625 357.535156 429.285156 354.875 437.648438 352.175781 C 438.4375 351.921875 438.882812 350.609375 439.484375 349.789062 C 444.753906 349.734375 450.027344 349.679688 455.640625 349.691406 C 455.394531 350.597656 454.988281 351.722656 454.191406 352.230469 C 441.949219 359.984375 428.574219 365.160156 414.433594 367.824219 C 404.089844 369.769531 393.558594 369.980469 382.894531 369.289062 C 367.734375 368.304688 353.722656 363.757812 340.511719 357.082031 C 331.84375 352.703125 323.597656 346.898438 316.390625 340.375 C 308.980469 333.667969 303.09375 325.292969 296.453125 317.722656 C 295.660156 316.816406 294.320312 316.394531 292.96875 315.742188 C 293.710938 307.734375 291.582031 300.484375 287.253906 293.5 C 286.222656 291.941406 285.328125 290.613281 284.324219 289.074219 C 283.128906 284.15625 281.898438 279.472656 281.015625 274.726562 C 280.359375 271.207031 280.058594 267.609375 279.769531 264.03125 C 278.929688 253.742188 279.09375 243.4375 281.277344 233.339844 C 285.132812 215.496094 292.023438 199.070312 303.714844 184.691406 C 310.609375 176.207031 318.171875 168.585938 327.050781 162.332031 C 337.8125 154.746094 349.472656 148.765625 362.265625 145.503906 C 369.3125 143.710938 376.605469 142.847656 383.816406 141.773438 C 397.347656 139.757812 410.613281 141.664062 423.535156 145.550781 C 440.101562 150.539062 455.113281 158.402344 468.289062 169.957031 C 478.78125 179.15625 486.921875 189.980469 493.359375 202.109375 C 499.800781 214.25 504.183594 227.191406 505.480469 241 C 505.90625 245.570312 506.007812 250.171875 506.261719 255.082031 C 503.738281 255.460938 501.207031 255.523438 498.34375 255.496094 Z M 498.34375 255.496094 "/>
<path style=" stroke:none;fill-rule:nonzero;fill:rgb(62.352943%,54.11765%,90.588236%);fill-opacity:1;" d="M 417.125 337.277344 C 423.515625 331.691406 430.265625 326.203125 437.378906 320.410156 C 443.078125 316.144531 448.414062 312.179688 454.050781 308.195312 C 458.515625 306.734375 462.164062 307.597656 465.429688 310.519531 C 466.238281 311.242188 467.300781 311.671875 468.25 312.234375 C 474.03125 317.066406 479.789062 321.925781 485.609375 326.714844 C 489.714844 330.09375 493.902344 333.371094 498.152344 336.917969 C 497.515625 337.261719 496.785156 337.488281 496.050781 337.488281 C 469.863281 337.464844 443.671875 337.421875 417.125 337.277344 Z M 417.125 337.277344 "/>
<path style=" stroke:none;fill-rule:nonzero;fill:rgb(59.607846%,50.588238%,90.196079%);fill-opacity:1;" d="M 439.140625 349.714844 C 438.882812 350.609375 438.4375 351.921875 437.648438 352.175781 C 429.285156 354.875 420.90625 357.535156 412.457031 359.941406 C 401.566406 363.046875 390.214844 362.316406 379.382812 361.089844 C 368.851562 359.894531 358.691406 355.410156 348.398438 352.261719 C 347.640625 352.027344 347.144531 350.933594 346.519531 349.984375 C 357.46875 349.679688 368.425781 349.589844 379.386719 349.585938 C 399.1875 349.578125 418.992188 349.621094 439.140625 349.714844 Z M 439.140625 349.714844 "/>
<path style=" stroke:none;fill-rule:nonzero;fill:rgb(53.333336%,43.529412%,88.627452%);fill-opacity:1;" d="M 450.351562 369.03125 C 453 367.011719 456.066406 365.101562 458.980469 362.980469 C 464.519531 358.957031 469.96875 354.8125 475.488281 350.449219 C 483.28125 350.179688 491.050781 350.175781 499.167969 350.179688 C 497.402344 352.875 495.59375 355.914062 493.085938 358.179688 C 488.996094 361.875 484.445312 365.0625 480.042969 368.722656 C 470.230469 369.003906 460.46875 369.027344 450.351562 369.03125 Z M 450.351562 369.03125 "/>
<path style=" stroke:none;fill-rule:nonzero;fill:rgb(62.352943%,54.11765%,90.588236%);fill-opacity:1;" d="M 334.75 333 C 334.4375 332.585938 334.320312 332.140625 334.382812 331.582031 C 334.824219 331.804688 335.082031 332.136719 335.339844 332.6875 C 335.210938 332.925781 335.082031 332.945312 334.75 333 Z M 334.75 333 "/>
<path style=" stroke:none;fill-rule:nonzero;fill:rgb(46.666667%,34.509805%,88.235295%);fill-opacity:1;" d="M 349.144531 654.003906 C 347.570312 657.554688 346.132812 661.503906 343.628906 664.585938 C 334.492188 675.816406 322.195312 681.78125 307.988281 682.265625 C 296.503906 682.65625 285.71875 678.941406 276.566406 671.46875 C 275.136719 670.300781 273.53125 669.351562 271.746094 668.269531 C 271.800781 663.65625 272.121094 659.074219 272.382812 654.222656 C 273.378906 654.144531 274.433594 654.328125 275.746094 654.898438 C 276.335938 656.0625 276.503906 656.976562 277.023438 657.59375 C 288.042969 670.625 305.304688 675.671875 321.445312 668.648438 C 328.308594 665.660156 334.796875 661.796875 337.488281 654.019531 C 341.257812 654.011719 345.027344 654.007812 349.144531 654.003906 Z M 349.144531 654.003906 "/>
<path style=" stroke:none;fill-rule:nonzero;fill:rgb(50.588238%,39.607844%,89.411765%);fill-opacity:1;" d="M 323.851562 595.96875 C 309.207031 603.96875 294.570312 611.710938 279.90625 619.402344 C 278.605469 620.085938 277.144531 620.464844 275.464844 620.972656 C 275.691406 616.683594 276.207031 612.402344 277.011719 607.785156 C 279.289062 606.425781 281.285156 605.421875 283.265625 604.386719 C 295.597656 597.929688 307.929688 591.464844 320.265625 585 C 321.460938 588.566406 322.65625 592.128906 323.851562 595.96875 Z M 323.851562 595.96875 "/>
<path style=" stroke:none;fill-rule:nonzero;fill:rgb(42.352942%,29.803923%,87.058824%);fill-opacity:1;" d="M 314.957031 557.996094 C 315.785156 563.019531 316.617188 568.042969 317.164062 573.398438 C 310.632812 576.988281 304.429688 580.34375 298.113281 583.46875 C 291.796875 586.597656 285.371094 589.496094 278.992188 592.496094 C 279.746094 586.96875 280.503906 581.441406 281.53125 575.558594 C 283.160156 574.570312 284.546875 573.996094 285.871094 573.300781 C 295.574219 568.210938 305.261719 563.101562 314.957031 557.996094 Z M 314.957031 557.996094 "/>
<path style=" stroke:none;fill-rule:nonzero;fill:rgb(46.666667%,34.509805%,88.235295%);fill-opacity:1;" d="M 278.980469 592.800781 C 285.371094 589.496094 291.796875 586.597656 298.113281 583.46875 C 304.429688 580.34375 310.632812 576.988281 317.179688 573.722656 C 318.410156 577.277344 319.339844 580.84375 320.269531 584.707031 C 307.929688 591.464844 295.597656 597.929688 283.265625 604.386719 C 281.285156 605.421875 279.289062 606.425781 277.03125 607.476562 C 277.5 602.703125 278.234375 597.90625 278.980469 592.800781 Z M 278.980469 592.800781 "/>
<path style=" stroke:none;fill-rule:nonzero;fill:rgb(37.64706%,24.313726%,84.705883%);fill-opacity:1;" d="M 315.003906 557.65625 C 305.261719 563.101562 295.574219 568.210938 285.871094 573.300781 C 284.546875 573.996094 283.160156 574.570312 281.535156 575.230469 C 282.019531 571 282.519531 566.671875 283.636719 562.503906 C 284.113281 560.734375 285.542969 558.71875 287.109375 557.832031 C 293.605469 554.144531 300.355469 550.90625 306.925781 547.347656 C 308.074219 546.726562 308.8125 545.351562 309.738281 544.042969 C 311.101562 543.769531 312.460938 543.773438 314.167969 543.800781 C 314.691406 548.320312 314.871094 552.820312 315.003906 557.65625 Z M 315.003906 557.65625 "/>
<path style=" stroke:none;fill-rule:nonzero;fill:rgb(62.352943%,54.11765%,90.588236%);fill-opacity:1;" d="M 334.355469 324.421875 C 329.496094 325.46875 327.417969 321.34375 325.011719 318.773438 C 311.535156 304.390625 303.328125 287.332031 300.730469 267.71875 C 297.816406 245.691406 301.90625 225.015625 313.632812 206.121094 C 327.203125 184.253906 346.78125 170.480469 371.730469 164.273438 C 381.867188 161.753906 392.050781 161.84375 402.4375 162.585938 C 415.558594 163.527344 427.484375 167.695312 438.699219 174.039062 C 459.261719 185.667969 473.285156 202.789062 480.976562 225.214844 C 484.285156 234.863281 485.964844 244.664062 486.023438 255.121094 C 472.257812 255.515625 458.480469 255.59375 444 255.675781 C 435.535156 255.695312 427.765625 255.714844 419.648438 255.703125 C 413.285156 255.691406 407.265625 255.710938 400.898438 255.699219 C 394.285156 255.6875 388.015625 255.707031 381.75 255.726562 C 369.144531 255.699219 356.542969 255.605469 343.9375 255.671875 C 337.316406 255.707031 333.828125 259.464844 333.882812 266.441406 C 334.023438 285.027344 334.261719 303.613281 334.457031 322.199219 C 334.460938 322.824219 334.433594 323.449219 334.355469 324.421875 Z M 334.355469 324.421875 "/>
<path style=" stroke:none;fill-rule:nonzero;fill:rgb(93.725491%,93.333334%,93.333334%);fill-opacity:1;" d="M 420 255.730469 C 427.765625 255.714844 435.535156 255.695312 443.648438 255.707031 C 449.171875 259.820312 454.113281 264.242188 459.558594 267.925781 C 470.945312 275.632812 483.886719 277.800781 497.667969 277.757812 C 494.230469 283.808594 493.375 290.328125 492.808594 297.003906 C 488.90625 296.753906 485.324219 296.53125 481.746094 296.253906 C 470.636719 295.386719 460.519531 291.359375 450.902344 286.09375 C 437.78125 278.910156 428.890625 267.292969 420 255.730469 Z M 420 255.730469 "/>
<path style=" stroke:none;fill-rule:nonzero;fill:rgb(32.549021%,17.647059%,83.529413%);fill-opacity:1;" d="M 493.132812 297.003906 C 493.375 290.328125 494.230469 283.808594 498.023438 277.757812 C 504.257812 270.929688 507.894531 270.21875 514.21875 274.503906 C 515.21875 275.628906 515.980469 276.640625 516.660156 278.113281 C 515.421875 278.964844 514.296875 279.480469 513.113281 279.71875 C 506.535156 281.046875 501.863281 288.691406 503.765625 295.101562 C 505.945312 302.457031 510.382812 305.28125 519.714844 305.25 C 517.550781 309.046875 516.050781 313.5 513.078125 316.492188 C 508.429688 321.171875 502.710938 319.5 497.476562 312.589844 C 494.746094 307.425781 493.019531 302.460938 493.132812 297.003906 Z M 493.132812 297.003906 "/>
<path style=" stroke:none;fill-rule:nonzero;fill:rgb(37.64706%,24.313726%,84.705883%);fill-opacity:1;" d="M 618.199219 432.925781 C 611.296875 439.757812 603.214844 442.007812 594.355469 439.117188 C 585.800781 436.332031 580.640625 430.0625 578.964844 421.011719 C 576.867188 409.675781 584.773438 399.234375 593.035156 396.148438 C 603.492188 392.242188 614.699219 395.808594 620.542969 404.996094 C 626.082031 413.703125 625.199219 425.097656 618.199219 432.925781 M 603.105469 400.527344 C 593.640625 400.457031 586.066406 406.0625 585.03125 413.910156 C 583.699219 423.984375 588.269531 431.167969 597.710938 433.84375 C 603.082031 435.367188 611.332031 432.617188 614.554688 428.230469 C 618.632812 422.671875 619.15625 414.46875 616.101562 409.269531 C 613.257812 404.421875 609.101562 401.722656 603.105469 400.527344 Z M 603.105469 400.527344 "/>
<path style=" stroke:none;fill-rule:nonzero;fill:rgb(96.078432%,95.686275%,95.686275%);fill-opacity:1;" d="M 492.808594 297.003906 C 493.019531 302.460938 494.746094 307.425781 497.265625 312.457031 C 491.933594 312.8125 486.539062 313.046875 481.148438 312.953125 C 477.097656 312.882812 473.054688 312.398438 468.628906 312.164062 C 467.300781 311.671875 466.238281 311.242188 465.429688 310.519531 C 462.164062 307.597656 458.515625 306.734375 454.019531 307.933594 C 452.949219 306.90625 452.34375 305.898438 451.453125 305.375 C 445.914062 302.113281 440.183594 299.167969 434.757812 295.738281 C 419.347656 285.996094 409.890625 271.1875 401.25 255.730469 C 407.265625 255.710938 413.285156 255.691406 419.648438 255.703125 C 428.890625 267.292969 437.78125 278.910156 450.902344 286.09375 C 460.519531 291.359375 470.636719 295.386719 481.746094 296.253906 C 485.324219 296.53125 488.90625 296.753906 492.808594 297.003906 Z M 492.808594 297.003906 "/>
<path style=" stroke:none;fill-rule:nonzero;fill:rgb(50.196081%,39.607844%,87.843138%);fill-opacity:1;" d="M 519.921875 305.058594 C 510.382812 305.28125 505.945312 302.457031 503.765625 295.101562 C 501.863281 288.691406 506.535156 281.046875 513.113281 279.71875 C 514.296875 279.480469 515.421875 278.964844 516.742188 278.339844 C 521.285156 284.296875 521.597656 291.359375 521.300781 298.90625 C 520.925781 301.128906 520.53125 303 519.921875 305.058594 Z M 519.921875 305.058594 "/>
<path style=" stroke:none;fill-rule:nonzero;fill:rgb(42.352942%,29.803923%,87.058824%);fill-opacity:1;" d="M 337.140625 654.011719 C 334.796875 661.796875 328.308594 665.660156 321.445312 668.648438 C 305.304688 675.671875 288.042969 670.625 277.023438 657.59375 C 276.503906 656.976562 276.335938 656.0625 275.996094 655.011719 C 296.253906 654.492188 316.519531 654.25 337.140625 654.011719 Z M 337.140625 654.011719 "/>
<path style=" stroke:none;fill-rule:nonzero;fill:rgb(87.450981%,84.705883%,96.862745%);fill-opacity:1;" d="M 451.167969 400.582031 C 449.429688 402.964844 448.386719 401.542969 447.441406 400.128906 C 445.730469 397.5625 444.085938 394.953125 441.546875 392.472656 C 441.546875 394.738281 441.675781 397.011719 441.484375 399.257812 C 441.40625 400.132812 440.609375 400.941406 440.140625 401.78125 C 439.742188 400.996094 439.023438 400.222656 439 399.425781 C 438.878906 395.460938 438.945312 391.488281 438.945312 387.566406 C 442.769531 386.277344 443.097656 389.433594 444.363281 391.125 C 445.667969 392.867188 446.753906 394.769531 448.691406 396.394531 C 448.691406 393.960938 448.605469 391.527344 448.746094 389.105469 C 448.789062 388.433594 449.511719 387.804688 449.917969 387.160156 C 450.347656 387.785156 451.128906 388.398438 451.148438 389.035156 C 451.265625 392.78125 451.203125 396.53125 451.167969 400.582031 Z M 451.167969 400.582031 "/>
<path style=" stroke:none;fill-rule:nonzero;fill:rgb(84.705883%,81.176472%,96.862745%);fill-opacity:1;" d="M 459.609375 389.386719 C 456.453125 389.09375 456.210938 390.5625 456.703125 392.191406 C 458.523438 393.140625 459.882812 393.847656 461.242188 394.558594 C 459.957031 395.074219 458.671875 395.585938 456.859375 396.308594 C 456.816406 396.792969 456.722656 397.804688 456.613281 399.046875 C 457.886719 399.167969 458.886719 399.109375 459.785156 399.390625 C 460.570312 399.636719 461.238281 400.261719 461.960938 400.722656 C 461.296875 401.105469 460.660156 401.765625 459.96875 401.824219 C 458.144531 401.980469 456.300781 401.878906 454.207031 401.878906 C 454.207031 396.796875 454.207031 392.132812 454.207031 387.078125 C 456.375 387.078125 458.34375 386.992188 460.296875 387.140625 C 460.792969 387.179688 461.234375 387.972656 461.699219 388.421875 C 461.109375 388.742188 460.519531 389.0625 459.609375 389.386719 Z M 459.609375 389.386719 "/>
<path style=" stroke:none;fill-rule:nonzero;fill:rgb(87.450981%,84.705883%,96.862745%);fill-opacity:1;" d="M 469.363281 398.046875 C 468.9375 399.519531 468.511719 400.652344 468.085938 401.785156 C 467.609375 400.6875 466.804688 399.617188 466.726562 398.492188 C 466.53125 395.648438 466.660156 392.78125 466.660156 389.839844 C 465.214844 389.488281 463.980469 389.191406 462.625 388.863281 C 464.382812 386.621094 470.378906 386.355469 473.917969 388.621094 C 472.175781 389.0625 471.011719 389.359375 469.359375 389.777344 C 469.359375 392.308594 469.359375 395.003906 469.363281 398.046875 Z M 469.363281 398.046875 "/>
<path style=" stroke:none;fill-rule:nonzero;fill:rgb(43.137255%,30.588236%,85.882354%);fill-opacity:1;" d="M 253.832031 284.308594 C 260.777344 283.132812 266.28125 284.8125 270.535156 290.367188 C 276.914062 298.703125 271.699219 312.347656 261.371094 314.277344 C 250.542969 316.296875 243.617188 309 242.3125 300.253906 C 241.425781 294.300781 246.222656 287.621094 253.832031 284.308594 M 266.4375 301.175781 C 266.015625 298.847656 266.164062 296.191406 265.058594 294.257812 C 262.660156 290.0625 257.484375 289.234375 253.335938 291.835938 C 249.378906 294.316406 248.078125 299.507812 250.40625 303.539062 C 252.097656 306.464844 254.738281 308.347656 258 308.113281 C 261.886719 307.832031 265.171875 306.003906 266.4375 301.175781 Z M 266.4375 301.175781 "/>
<path style=" stroke:none;fill-rule:nonzero;fill:rgb(97.647059%,97.254902%,97.647059%);fill-opacity:1;" d="M 400.898438 255.699219 C 409.890625 271.1875 419.347656 285.996094 434.757812 295.738281 C 440.183594 299.167969 445.914062 302.113281 451.453125 305.375 C 452.34375 305.898438 452.949219 306.90625 453.71875 307.953125 C 448.414062 312.179688 443.078125 316.144531 437.503906 320.195312 C 436.625 319.273438 436.222656 317.765625 435.304688 317.320312 C 425.957031 312.753906 418.546875 305.582031 410.542969 299.210938 C 410.089844 298.851562 409.433594 298.746094 408.566406 298.234375 C 408.511719 291.144531 407.609375 284.613281 403.65625 278.535156 C 399.371094 272.246094 396.007812 270.996094 389.25 272.996094 C 388.464844 266.664062 385.402344 261.34375 381.789062 255.988281 C 388.015625 255.707031 394.285156 255.6875 400.898438 255.699219 Z M 400.898438 255.699219 "/>
<path style=" stroke:none;fill-rule:nonzero;fill:rgb(32.549021%,17.647059%,83.529413%);fill-opacity:1;" d="M 389.097656 273.195312 C 396.007812 270.996094 399.371094 272.246094 403.476562 278.773438 C 402.128906 279.699219 400.855469 280.171875 399.570312 280.605469 C 390.867188 283.53125 387.679688 293.332031 393.054688 300.855469 C 396.425781 305.574219 401.414062 306.226562 406.691406 306.007812 C 405.6875 308.390625 405 310.976562 403.621094 313.117188 C 398.480469 321.113281 390.6875 321.191406 385.234375 313.476562 C 376.96875 301.777344 378.828125 281.703125 389.097656 273.195312 Z M 389.097656 273.195312 "/>
<path style=" stroke:none;fill-rule:nonzero;fill:rgb(50.196081%,39.607844%,87.843138%);fill-opacity:1;" d="M 406.867188 305.789062 C 401.414062 306.226562 396.425781 305.574219 393.054688 300.855469 C 387.679688 293.332031 390.867188 283.53125 399.570312 280.605469 C 400.855469 280.171875 402.128906 279.699219 403.585938 279.007812 C 407.609375 284.613281 408.511719 291.144531 408.316406 298.226562 C 407.921875 300.859375 407.480469 303.214844 406.867188 305.789062 Z M 406.867188 305.789062 "/>
<path style=" stroke:none;fill-rule:nonzero;fill:rgb(42.352942%,29.803923%,87.058824%);fill-opacity:1;" d="M 603.421875 400.570312 C 609.101562 401.722656 613.257812 404.421875 616.101562 409.269531 C 619.15625 414.46875 618.632812 422.671875 614.554688 428.230469 C 611.332031 432.617188 603.082031 435.367188 597.710938 433.84375 C 588.269531 431.167969 583.699219 423.984375 585.03125 413.910156 C 586.066406 406.0625 593.640625 400.457031 603.421875 400.570312 M 603.003906 408.015625 C 602.382812 408.011719 601.757812 407.996094 601.132812 408.003906 C 596.625 408.050781 592.976562 410.933594 591.949219 415.246094 C 591.023438 419.136719 593.339844 424.03125 597.042969 426.015625 C 600.40625 427.816406 605.652344 426.847656 608.390625 423.988281 C 613.335938 418.832031 611.390625 410.113281 603.003906 408.015625 Z M 603.003906 408.015625 "/>
<path style=" stroke:none;fill-rule:nonzero;fill:rgb(47.058824%,35.686275%,86.666667%);fill-opacity:1;" d="M 266.363281 301.457031 C 265.171875 306.003906 261.886719 307.832031 258 308.113281 C 254.738281 308.347656 252.097656 306.464844 250.40625 303.539062 C 248.078125 299.507812 249.378906 294.316406 253.335938 291.835938 C 257.484375 289.234375 262.660156 290.0625 265.058594 294.257812 C 266.164062 296.191406 266.015625 298.847656 266.363281 301.457031 Z M 266.363281 301.457031 "/>
<path style=" stroke:none;fill-rule:nonzero;fill:rgb(47.058824%,35.686275%,86.666667%);fill-opacity:1;" d="M 603.3125 408.050781 C 611.390625 410.113281 613.335938 418.832031 608.390625 423.988281 C 605.652344 426.847656 600.40625 427.816406 597.042969 426.015625 C 593.339844 424.03125 591.023438 419.136719 591.949219 415.246094 C 592.976562 410.933594 596.625 408.050781 601.132812 408.003906 C 601.757812 407.996094 602.382812 408.011719 603.3125 408.050781 Z M 603.3125 408.050781 "/>
</g>
</svg>
